<?xml version="1.0" standalone="no"?><!DOCTYPE svg PUBLIC "-//W3C//DTD SVG 1.1//EN" "http://www.w3.org/Graphics/SVG/1.1/DTD/svg11.dtd"><svg class="icon" width="200px" height="200.00px" viewBox="0 0 1024 1024" version="1.1" xmlns="http://www.w3.org/2000/svg"><path d="M213.12 120.32c-14.08 0-25.6-11.52-25.6-25.6s11.52-25.6 25.6-25.6 25.6 11.52 25.6 25.6-11.52 25.6-25.6 25.6z m0-36.48c-5.76 0-10.88 4.48-10.88 10.88 0 5.76 4.48 10.88 10.88 10.88s10.88-4.48 10.88-10.88c0-5.76-5.12-10.88-10.88-10.88zM794.88 120.32c-14.08 0-25.6-11.52-25.6-25.6s11.52-25.6 25.6-25.6 25.6 11.52 25.6 25.6-11.52 25.6-25.6 25.6z m0-36.48c-5.76 0-10.88 4.48-10.88 10.88 0 5.76 4.48 10.88 10.88 10.88s10.88-4.48 10.88-10.88c0-5.76-5.12-10.88-10.88-10.88zM769.92 266.24c-14.08 0-25.6-11.52-25.6-25.6s11.52-25.6 25.6-25.6 25.6 11.52 25.6 25.6c0 13.44-11.52 25.6-25.6 25.6z m0-36.48c-5.76 0-10.88 4.48-10.88 10.88 0 5.76 4.48 10.88 10.88 10.88 5.76 0 10.88-4.48 10.88-10.88-0.64-6.4-5.12-10.88-10.88-10.88zM238.08 266.24c-14.08 0-25.6-11.52-25.6-25.6s11.52-25.6 25.6-25.6 25.6 11.52 25.6 25.6c0.64 13.44-10.88 25.6-25.6 25.6z m0-36.48c-5.76 0-10.88 4.48-10.88 10.88 0 5.76 4.48 10.88 10.88 10.88s10.88-4.48 10.88-10.88-4.48-10.88-10.88-10.88zM794.88 993.28c-14.08 0-25.6-11.52-25.6-25.6s11.52-25.6 25.6-25.6 25.6 11.52 25.6 25.6-11.52 25.6-25.6 25.6z m0-36.48c-5.76 0-10.88 4.48-10.88 10.88 0 5.76 4.48 10.88 10.88 10.88s10.88-4.48 10.88-10.88-5.12-10.88-10.88-10.88zM676.48 411.52c-14.08 0-25.6-11.52-25.6-25.6s11.52-25.6 25.6-25.6 25.6 11.52 25.6 25.6-11.52 25.6-25.6 25.6z m0-36.48c-5.76 0-10.88 4.48-10.88 10.88s4.48 10.88 10.88 10.88 10.88-4.48 10.88-10.88-5.12-10.88-10.88-10.88z" fill="#00ABE0" /><path d="M227.84 208.64c-5.76 0-10.88-3.84-12.8-8.96-5.76-18.56-9.6-38.4-10.24-58.88 0-7.68 5.76-13.44 12.8-14.08 7.04 0 13.44 5.76 14.08 12.8 0.64 17.92 3.84 35.2 8.96 51.2 2.56 7.04-1.92 14.72-8.32 16.64-1.92 1.28-3.2 1.28-4.48 1.28zM300.8 356.48c-3.84 0-7.68-1.28-10.24-4.48-17.28-19.84-30.08-39.68-39.68-60.8-3.2-7.04 0-14.72 7.04-17.28 7.04-3.2 14.72 0 17.28 7.04 8.32 18.56 19.84 36.48 35.2 53.76 5.12 5.76 4.48 14.08-1.28 18.56-1.92 2.56-5.12 3.2-8.32 3.2zM478.72 528.64C428.8 490.88 380.16 453.12 337.28 410.24l19.2-18.56c40.96 41.6 88.96 78.72 138.88 115.84l-16.64 21.12zM651.52 670.72c-40.96-41.6-88.96-78.08-138.24-115.2l16-21.12c49.92 37.76 98.56 74.88 140.8 117.76l-18.56 18.56zM744.32 789.76c-5.12 0-10.24-3.2-12.16-8.32-8.32-18.56-19.2-36.48-35.2-53.76-5.12-5.76-4.48-14.08 1.28-18.56 5.76-5.12 14.08-4.48 18.56 1.28 17.28 19.84 30.08 39.68 39.68 60.8 3.2 7.04 0 14.72-7.04 17.28-1.28 0.64-3.2 1.28-5.12 1.28zM789.76 935.04c-7.04 0-12.8-5.76-13.44-12.8-0.64-17.92-3.84-35.2-8.96-51.2-2.56-7.04 1.92-14.72 8.32-16.64 7.04-2.56 14.72 1.92 16.64 8.32 5.76 18.56 9.6 38.4 10.24 58.88 1.28 7.04-4.48 12.8-12.8 13.44 0.64 0 0.64 0 0 0zM780.8 208.64c-1.28 0-2.56 0-3.84-0.64-7.04-2.56-10.88-9.6-8.32-16.64 5.12-16 8.32-33.28 8.96-51.2 0-7.68 6.4-12.8 14.08-12.8 7.68 0 13.44 6.4 12.8 14.08-0.64 20.48-4.48 40.32-10.24 58.88-2.56 5.12-8.32 8.32-13.44 8.32zM707.2 356.48c-3.2 0-6.4-1.28-8.96-3.2-5.76-5.12-6.4-13.44-1.28-18.56 15.36-17.28 26.88-35.2 35.2-53.76 3.2-7.04 10.88-9.6 17.28-7.04 7.04 3.2 9.6 10.88 7.04 17.28-8.96 21.12-22.4 41.6-39.68 60.8-1.92 3.2-5.76 4.48-9.6 4.48zM551.04 506.24c-3.84 0-8.32-1.92-10.88-5.12-4.48-5.76-3.2-14.08 2.56-18.56 28.16-21.12 55.04-42.24 78.72-65.28 5.12-5.12 13.44-5.12 19.2 0 5.12 5.12 5.12 13.44 0 19.2-24.32 24.96-52.48 46.08-81.28 67.84-2.56 0.64-5.12 1.92-8.32 1.92zM376.96 649.6c-3.2 0-7.04-1.28-9.6-3.84-5.12-5.12-5.12-13.44 0-19.2 24.32-24.96 52.48-46.08 81.28-67.84 5.76-4.48 14.08-3.2 18.56 2.56 4.48 5.76 3.2 14.08-2.56 18.56-28.16 21.12-55.04 42.24-78.72 65.28-1.92 3.2-5.76 4.48-8.96 4.48zM263.68 789.76c-1.92 0-3.84-0.64-5.12-1.28-7.04-3.2-9.6-10.88-7.04-17.28 8.96-21.12 22.4-41.6 39.68-60.8 5.12-5.76 13.44-6.4 18.56-1.28 5.76 5.12 6.4 13.44 1.28 18.56-15.36 17.28-26.88 35.2-35.2 53.76-1.92 5.12-7.04 8.32-12.16 8.32zM218.24 935.04s-0.64 0 0 0c-7.68 0-13.44-6.4-13.44-14.08 0.64-20.48 4.48-40.32 10.24-58.88 2.56-7.04 9.6-10.88 16.64-8.32 7.04 2.56 10.88 9.6 8.32 16.64-5.12 16-8.32 33.28-8.96 51.2 0 7.68-5.76 13.44-12.8 13.44zM258.56 102.4h-1.28c-4.48 0-7.68-3.2-7.68-7.68s3.2-7.68 7.68-7.68h1.28c4.48 0 7.68 3.2 7.68 7.68S262.4 102.4 258.56 102.4zM730.88 102.4h-3.2c-4.48 0-7.68-3.2-7.68-7.68s3.2-7.68 7.68-7.68h3.2c4.48 0 7.68 3.2 7.68 7.68s-3.2 7.68-7.68 7.68z m-21.12 0h-3.2c-4.48 0-7.68-3.2-7.68-7.68s3.2-7.68 7.68-7.68h3.2c4.48 0 7.68 3.2 7.68 7.68s-3.84 7.68-7.68 7.68z m-21.76 0h-3.2c-4.48 0-7.68-3.2-7.68-7.68s3.2-7.68 7.68-7.68h3.2c4.48 0 7.68 3.2 7.68 7.68s-3.2 7.68-7.68 7.68z m-21.12 0h-3.2c-4.48 0-7.68-3.2-7.68-7.68s3.2-7.68 7.68-7.68h3.2c4.48 0 7.68 3.2 7.68 7.68s-3.84 7.68-7.68 7.68z m-21.76 0h-3.2c-4.48 0-7.68-3.2-7.68-7.68s3.2-7.68 7.68-7.68h3.2c4.48 0 7.68 3.2 7.68 7.68s-3.2 7.68-7.68 7.68z m-21.12 0H620.8c-4.48 0-7.68-3.2-7.68-7.68s3.2-7.68 7.68-7.68h3.2c4.48 0 7.68 3.2 7.68 7.68-0.64 4.48-3.84 7.68-7.68 7.68z m-21.76 0h-3.2c-4.48 0-7.68-3.2-7.68-7.68s3.2-7.68 7.68-7.68h3.2c4.48 0 7.68 3.2 7.68 7.68s-3.2 7.68-7.68 7.68z m-21.76 0h-3.2c-4.48 0-7.68-3.2-7.68-7.68s3.2-7.68 7.68-7.68h3.2c4.48 0 7.68 3.2 7.68 7.68s-3.2 7.68-7.68 7.68z m-21.12 0h-3.2c-4.48 0-7.68-3.2-7.68-7.68s3.2-7.68 7.68-7.68h3.2c4.48 0 7.68 3.2 7.68 7.68S563.2 102.4 559.36 102.4zM537.6 102.4h-3.2c-4.48 0-7.68-3.2-7.68-7.68s3.2-7.68 7.68-7.68h3.2c4.48 0 7.68 3.2 7.68 7.68S542.08 102.4 537.6 102.4z m-21.12 0h-3.2c-4.48 0-7.68-3.2-7.68-7.68s3.2-7.68 7.68-7.68h3.2c4.48 0 7.68 3.2 7.68 7.68s-3.84 7.68-7.68 7.68z m-21.76 0h-3.2c-4.48 0-7.68-3.2-7.68-7.68s3.2-7.68 7.68-7.68h3.2c4.48 0 7.68 3.2 7.68 7.68S499.2 102.4 494.72 102.4zM473.6 102.4h-3.2c-4.48 0-7.68-3.2-7.68-7.68s3.2-7.68 7.68-7.68h3.2c4.48 0 7.68 3.2 7.68 7.68-0.64 4.48-3.84 7.68-7.68 7.68z m-21.76 0h-3.2c-4.48 0-7.68-3.2-7.68-7.68s3.2-7.68 7.68-7.68h3.2c4.48 0 7.68 3.2 7.68 7.68s-3.2 7.68-7.68 7.68z m-21.76 0h-3.2c-4.48 0-7.68-3.2-7.68-7.68s3.2-7.68 7.68-7.68h3.2c4.48 0 7.68 3.2 7.68 7.68s-3.2 7.68-7.68 7.68z m-21.12 0h-3.2c-4.48 0-7.68-3.2-7.68-7.68s3.2-7.68 7.68-7.68h3.2c4.48 0 7.68 3.2 7.68 7.68s-3.84 7.68-7.68 7.68z m-21.76 0H384c-4.48 0-7.68-3.2-7.68-7.68s3.2-7.68 7.68-7.68h3.2c4.48 0 7.68 3.2 7.68 7.68s-3.2 7.68-7.68 7.68z m-21.12 0h-3.2c-4.48 0-7.68-3.2-7.68-7.68s3.2-7.68 7.68-7.68h3.2c4.48 0 7.68 3.2 7.68 7.68s-3.84 7.68-7.68 7.68z m-21.76 0h-3.2c-4.48 0-7.68-3.2-7.68-7.68s3.2-7.68 7.68-7.68h3.2c4.48 0 7.68 3.2 7.68 7.68s-3.2 7.68-7.68 7.68z m-21.12 0H320c-4.48 0-7.68-3.2-7.68-7.68s3.2-7.68 7.68-7.68h3.2c4.48 0 7.68 3.2 7.68 7.68-0.64 4.48-3.84 7.68-7.68 7.68z m-21.76 0h-3.2c-4.48 0-7.68-3.2-7.68-7.68s3.2-7.68 7.68-7.68h3.2c4.48 0 7.68 3.2 7.68 7.68s-3.2 7.68-7.68 7.68z m-21.76 0h-3.2c-4.48 0-7.68-3.2-7.68-7.68s3.2-7.68 7.68-7.68h3.2c4.48 0 7.68 3.2 7.68 7.68s-3.2 7.68-7.68 7.68zM751.36 102.4h-1.28c-4.48 0-7.68-3.2-7.68-7.68s3.2-7.68 7.68-7.68h1.28c4.48 0 7.68 3.2 7.68 7.68s-3.84 7.68-7.68 7.68zM283.52 247.68h-1.28c-4.48 0-7.68-3.2-7.68-7.68s3.2-7.68 7.68-7.68h1.28c4.48 0 7.68 3.2 7.68 7.68s-3.2 7.68-7.68 7.68zM705.28 247.68h-3.2c-4.48 0-7.68-3.2-7.68-7.68s3.2-7.68 7.68-7.68h3.2c4.48 0 7.68 3.2 7.68 7.68s-3.2 7.68-7.68 7.68z m-22.4 0h-3.2c-4.48 0-7.68-3.2-7.68-7.68s3.2-7.68 7.68-7.68h3.2c4.48 0 7.68 3.2 7.68 7.68s-3.2 7.68-7.68 7.68z m-21.76 0h-3.2c-4.48 0-7.68-3.2-7.68-7.68s3.2-7.68 7.68-7.68h3.2c4.48 0 7.68 3.2 7.68 7.68s-3.84 7.68-7.68 7.68z m-22.4 0h-3.2c-4.48 0-7.68-3.2-7.68-7.68s3.2-7.68 7.68-7.68h3.2c4.48 0 7.68 3.2 7.68 7.68s-3.2 7.68-7.68 7.68z m-22.4 0h-3.2c-4.48 0-7.68-3.2-7.68-7.68s3.2-7.68 7.68-7.68h3.2c4.48 0 7.68 3.2 7.68 7.68s-3.2 7.68-7.68 7.68z m-21.76 0h-3.2c-4.48 0-7.68-3.2-7.68-7.68s3.2-7.68 7.68-7.68h3.2c4.48 0 7.68 3.2 7.68 7.68s-3.84 7.68-7.68 7.68z m-22.4 0h-3.2c-4.48 0-7.68-3.2-7.68-7.68s3.2-7.68 7.68-7.68h3.2c4.48 0 7.68 3.2 7.68 7.68s-3.2 7.68-7.68 7.68z m-22.4 0h-3.2c-4.48 0-7.68-3.2-7.68-7.68s3.2-7.68 7.68-7.68h3.2c4.48 0 7.68 3.2 7.68 7.68s-3.2 7.68-7.68 7.68z m-21.76 0H524.8c-4.48 0-7.68-3.2-7.68-7.68s3.2-7.68 7.68-7.68h3.2c4.48 0 7.68 3.2 7.68 7.68s-3.84 7.68-7.68 7.68z m-22.4 0h-3.2c-4.48 0-7.68-3.2-7.68-7.68s3.2-7.68 7.68-7.68h3.2c4.48 0 7.68 3.2 7.68 7.68s-3.2 7.68-7.68 7.68z m-22.4 0H480c-4.48 0-7.68-3.2-7.68-7.68s3.2-7.68 7.68-7.68h3.2c4.48 0 7.68 3.2 7.68 7.68s-3.2 7.68-7.68 7.68z m-21.76 0h-3.2c-4.48 0-7.68-3.2-7.68-7.68s3.2-7.68 7.68-7.68h3.2c4.48 0 7.68 3.2 7.68 7.68s-3.84 7.68-7.68 7.68z m-22.4 0h-3.2c-4.48 0-7.68-3.2-7.68-7.68s3.2-7.68 7.68-7.68h3.2c4.48 0 7.68 3.2 7.68 7.68s-3.2 7.68-7.68 7.68z m-22.4 0h-3.2c-4.48 0-7.68-3.2-7.68-7.68s3.2-7.68 7.68-7.68h3.2c4.48 0 7.68 3.2 7.68 7.68s-3.2 7.68-7.68 7.68z m-21.76 0h-3.2c-4.48 0-7.68-3.2-7.68-7.68s3.2-7.68 7.68-7.68h3.2c4.48 0 7.68 3.2 7.68 7.68-0.64 4.48-3.84 7.68-7.68 7.68z m-22.4 0h-3.2c-4.48 0-7.68-3.2-7.68-7.68s3.2-7.68 7.68-7.68h3.2c4.48 0 7.68 3.2 7.68 7.68s-3.2 7.68-7.68 7.68z m-22.4 0h-3.2c-4.48 0-7.68-3.2-7.68-7.68s3.2-7.68 7.68-7.68h3.2c4.48 0 7.68 3.2 7.68 7.68s-3.2 7.68-7.68 7.68z m-21.76 0h-3.2c-4.48 0-7.68-3.2-7.68-7.68s3.2-7.68 7.68-7.68h3.2c4.48 0 7.68 3.2 7.68 7.68-0.64 4.48-3.84 7.68-7.68 7.68z m-22.4 0h-3.2c-4.48 0-7.68-3.2-7.68-7.68s3.2-7.68 7.68-7.68h3.2c4.48 0 7.68 3.2 7.68 7.68s-3.84 7.68-7.68 7.68zM725.76 247.68h-1.28c-4.48 0-7.68-3.2-7.68-7.68s3.2-7.68 7.68-7.68h1.28c4.48 0 7.68 3.2 7.68 7.68s-3.2 7.68-7.68 7.68zM376.96 392.96h-1.28c-4.48 0-7.68-3.2-7.68-7.68S371.2 377.6 375.68 377.6h1.28c4.48 0 7.68 3.2 7.68 7.68s-3.2 7.68-7.68 7.68zM612.48 392.96h-3.2c-4.48 0-7.68-3.2-7.68-7.68s3.2-7.68 7.68-7.68h3.2c4.48 0 7.68 3.2 7.68 7.68s-3.2 7.68-7.68 7.68z m-21.12 0h-3.2c-4.48 0-7.68-3.2-7.68-7.68s3.2-7.68 7.68-7.68h3.2c4.48 0 7.68 3.2 7.68 7.68s-3.84 7.68-7.68 7.68z m-21.76 0h-3.2c-4.48 0-7.68-3.2-7.68-7.68s3.2-7.68 7.68-7.68h3.2c4.48 0 7.68 3.2 7.68 7.68s-3.2 7.68-7.68 7.68z m-21.12 0h-3.2c-4.48 0-7.68-3.2-7.68-7.68s3.2-7.68 7.68-7.68h3.2c4.48 0 7.68 3.2 7.68 7.68s-3.84 7.68-7.68 7.68z m-21.76 0h-3.2c-4.48 0-7.68-3.2-7.68-7.68s3.2-7.68 7.68-7.68h3.2c4.48 0 7.68 3.2 7.68 7.68s-3.2 7.68-7.68 7.68z m-21.12 0h-3.2c-4.48 0-7.68-3.2-7.68-7.68s3.2-7.68 7.68-7.68h3.2c4.48 0 7.68 3.2 7.68 7.68s-3.84 7.68-7.68 7.68z m-21.76 0h-3.2c-4.48 0-7.68-3.2-7.68-7.68s3.2-7.68 7.68-7.68h3.2c4.48 0 7.68 3.2 7.68 7.68s-3.2 7.68-7.68 7.68z m-21.12 0h-3.2c-4.48 0-7.68-3.2-7.68-7.68s3.2-7.68 7.68-7.68h3.2c4.48 0 7.68 3.2 7.68 7.68s-3.2 7.68-7.68 7.68z m-21.76 0h-3.2c-4.48 0-7.68-3.2-7.68-7.68s3.2-7.68 7.68-7.68h3.2c4.48 0 7.68 3.2 7.68 7.68s-3.2 7.68-7.68 7.68z m-21.12 0h-3.2c-4.48 0-7.68-3.2-7.68-7.68s3.2-7.68 7.68-7.68h3.2c4.48 0 7.68 3.2 7.68 7.68s-3.2 7.68-7.68 7.68z m-21.12 0h-3.2c-4.48 0-7.68-3.2-7.68-7.68s3.2-7.68 7.68-7.68h3.2c4.48 0 7.68 3.2 7.68 7.68-0.64 4.48-3.84 7.68-7.68 7.68zM632.96 392.96h-1.28c-4.48 0-7.68-3.2-7.68-7.68S627.2 377.6 631.68 377.6h1.28c4.48 0 7.68 3.2 7.68 7.68-0.64 4.48-3.84 7.68-7.68 7.68zM751.36 974.72h-1.28c-4.48 0-7.68-3.2-7.68-7.68s3.2-7.68 7.68-7.68h1.28c4.48 0 7.68 3.2 7.68 7.68s-3.84 7.68-7.68 7.68zM730.88 974.72h-3.2c-4.48 0-7.68-3.2-7.68-7.68s3.2-7.68 7.68-7.68h3.2c4.48 0 7.68 3.2 7.68 7.68s-3.2 7.68-7.68 7.68z m-21.12 0h-3.2c-4.48 0-7.68-3.2-7.68-7.68s3.2-7.68 7.68-7.68h3.2c4.48 0 7.68 3.2 7.68 7.68s-3.84 7.68-7.68 7.68z m-21.76 0h-3.2c-4.48 0-7.68-3.2-7.68-7.68s3.2-7.68 7.68-7.68h3.2c4.48 0 7.68 3.2 7.68 7.68s-3.2 7.68-7.68 7.68z m-21.12 0h-3.2c-4.48 0-7.68-3.2-7.68-7.68s3.2-7.68 7.68-7.68h3.2c4.48 0 7.68 3.2 7.68 7.68s-3.84 7.68-7.68 7.68z m-21.76 0h-3.2c-4.48 0-7.68-3.2-7.68-7.68s3.2-7.68 7.68-7.68h3.2c4.48 0 7.68 3.2 7.68 7.68s-3.2 7.68-7.68 7.68z m-21.12 0H620.8c-4.48 0-7.68-3.2-7.68-7.68s3.2-7.68 7.68-7.68h3.2c4.48 0 7.68 3.2 7.68 7.68-0.64 4.48-3.84 7.68-7.68 7.68z m-21.76 0h-3.2c-4.48 0-7.68-3.2-7.68-7.68s3.2-7.68 7.68-7.68h3.2c4.48 0 7.68 3.2 7.68 7.68s-3.2 7.68-7.68 7.68z m-21.76 0h-3.2c-4.48 0-7.68-3.2-7.68-7.68s3.2-7.68 7.68-7.68h3.2c4.48 0 7.68 3.2 7.68 7.68s-3.2 7.68-7.68 7.68z m-21.12 0h-3.2c-4.48 0-7.68-3.2-7.68-7.68s3.2-7.68 7.68-7.68h3.2c4.48 0 7.68 3.2 7.68 7.68s-3.84 7.68-7.68 7.68z m-21.76 0h-3.2c-4.48 0-7.68-3.2-7.68-7.68s3.2-7.68 7.68-7.68h3.2c4.48 0 7.68 3.2 7.68 7.68s-3.2 7.68-7.68 7.68z m-21.12 0h-3.2c-4.48 0-7.68-3.2-7.68-7.68s3.2-7.68 7.68-7.68h3.2c4.48 0 7.68 3.2 7.68 7.68s-3.84 7.68-7.68 7.68z m-21.76 0h-3.2c-4.48 0-7.68-3.2-7.68-7.68s3.2-7.68 7.68-7.68h3.2c4.48 0 7.68 3.2 7.68 7.68s-3.2 7.68-7.68 7.68z m-21.12 0h-3.2c-4.48 0-7.68-3.2-7.68-7.68s3.2-7.68 7.68-7.68h3.2c4.48 0 7.68 3.2 7.68 7.68-0.64 4.48-3.84 7.68-7.68 7.68z m-21.76 0h-3.2c-4.48 0-7.68-3.2-7.68-7.68s3.2-7.68 7.68-7.68h3.2c4.48 0 7.68 3.2 7.68 7.68s-3.2 7.68-7.68 7.68z m-21.76 0h-3.2c-4.48 0-7.68-3.2-7.68-7.68s3.2-7.68 7.68-7.68h3.2c4.48 0 7.68 3.2 7.68 7.68s-3.2 7.68-7.68 7.68z m-21.12 0h-3.2c-4.48 0-7.68-3.2-7.68-7.68s3.2-7.68 7.68-7.68h3.2c4.48 0 7.68 3.2 7.68 7.68s-3.84 7.68-7.68 7.68z m-21.76 0H384c-4.48 0-7.68-3.2-7.68-7.68s3.2-7.68 7.68-7.68h3.2c4.48 0 7.68 3.2 7.68 7.68s-3.2 7.68-7.68 7.68z m-21.12 0h-3.2c-4.48 0-7.68-3.2-7.68-7.68s3.2-7.68 7.68-7.68h3.2c4.48 0 7.68 3.2 7.68 7.68s-3.84 7.68-7.68 7.68z m-21.76 0h-3.2c-4.48 0-7.68-3.2-7.68-7.68s3.2-7.68 7.68-7.68h3.2c4.48 0 7.68 3.2 7.68 7.68s-3.2 7.68-7.68 7.68z m-21.12 0H320c-4.48 0-7.68-3.2-7.68-7.68s3.2-7.68 7.68-7.68h3.2c4.48 0 7.68 3.2 7.68 7.68-0.64 4.48-3.84 7.68-7.68 7.68z m-21.76 0h-3.2c-4.48 0-7.68-3.2-7.68-7.68s3.2-7.68 7.68-7.68h3.2c4.48 0 7.68 3.2 7.68 7.68s-3.2 7.68-7.68 7.68z m-21.76 0h-3.2c-4.48 0-7.68-3.2-7.68-7.68s3.2-7.68 7.68-7.68h3.2c4.48 0 7.68 3.2 7.68 7.68s-3.2 7.68-7.68 7.68zM258.56 974.72h-1.28c-4.48 0-7.68-3.2-7.68-7.68s3.2-7.68 7.68-7.68h1.28c4.48 0 7.68 3.2 7.68 7.68s-3.84 7.68-7.68 7.68zM725.76 829.44h-1.28c-4.48 0-7.68-3.2-7.68-7.68s3.2-7.68 7.68-7.68h1.28c4.48 0 7.68 3.2 7.68 7.68s-3.2 7.68-7.68 7.68zM705.28 829.44h-3.2c-4.48 0-7.68-3.2-7.68-7.68s3.2-7.68 7.68-7.68h3.2c4.48 0 7.68 3.2 7.68 7.68s-3.2 7.68-7.68 7.68z m-22.4 0h-3.2c-4.48 0-7.68-3.2-7.68-7.68s3.2-7.68 7.68-7.68h3.2c4.48 0 7.68 3.2 7.68 7.68s-3.2 7.68-7.68 7.68z m-21.76 0h-3.2c-4.48 0-7.68-3.2-7.68-7.68s3.2-7.68 7.68-7.68h3.2c4.48 0 7.68 3.2 7.68 7.68s-3.84 7.68-7.68 7.68z m-22.4 0h-3.2c-4.48 0-7.68-3.2-7.68-7.68s3.2-7.68 7.68-7.68h3.2c4.48 0 7.68 3.2 7.68 7.68s-3.2 7.68-7.68 7.68z m-22.4 0h-3.2c-4.48 0-7.68-3.2-7.68-7.68s3.2-7.68 7.68-7.68h3.2c4.48 0 7.68 3.2 7.68 7.68s-3.2 7.68-7.68 7.68z m-21.76 0h-3.2c-4.48 0-7.68-3.2-7.68-7.68s3.2-7.68 7.68-7.68h3.2c4.48 0 7.68 3.2 7.68 7.68s-3.84 7.68-7.68 7.68z m-22.4 0h-3.2c-4.48 0-7.68-3.2-7.68-7.68s3.2-7.68 7.68-7.68h3.2c4.48 0 7.68 3.2 7.68 7.68s-3.2 7.68-7.68 7.68z m-22.4 0h-3.2c-4.48 0-7.68-3.2-7.68-7.68s3.2-7.68 7.68-7.68h3.2c4.48 0 7.68 3.2 7.68 7.68s-3.2 7.68-7.68 7.68z m-21.76 0H524.8c-4.48 0-7.68-3.2-7.68-7.68s3.2-7.68 7.68-7.68h3.2c4.48 0 7.68 3.2 7.68 7.68s-3.84 7.68-7.68 7.68z m-22.4 0h-3.2c-4.48 0-7.68-3.2-7.68-7.68s3.2-7.68 7.68-7.68h3.2c4.48 0 7.68 3.2 7.68 7.68s-3.2 7.68-7.68 7.68z m-22.4 0H480c-4.48 0-7.68-3.2-7.68-7.68s3.2-7.68 7.68-7.68h3.2c4.48 0 7.68 3.2 7.68 7.68s-3.2 7.68-7.68 7.68z m-21.76 0h-3.2c-4.48 0-7.68-3.2-7.68-7.68s3.2-7.68 7.68-7.68h3.2c4.48 0 7.68 3.2 7.68 7.68s-3.84 7.68-7.68 7.68z m-22.4 0h-3.2c-4.48 0-7.68-3.2-7.68-7.68s3.2-7.68 7.68-7.68h3.2c4.48 0 7.68 3.2 7.68 7.68s-3.2 7.68-7.68 7.68z m-22.4 0h-3.2c-4.48 0-7.68-3.2-7.68-7.68s3.2-7.68 7.68-7.68h3.2c4.48 0 7.68 3.2 7.68 7.68s-3.2 7.68-7.68 7.68z m-21.76 0h-3.2c-4.48 0-7.68-3.2-7.68-7.68s3.2-7.68 7.68-7.68h3.2c4.48 0 7.68 3.2 7.68 7.68-0.64 4.48-3.84 7.68-7.68 7.68z m-22.4 0h-3.2c-4.48 0-7.68-3.2-7.68-7.68s3.2-7.68 7.68-7.68h3.2c4.48 0 7.68 3.2 7.68 7.68s-3.2 7.68-7.68 7.68z m-22.4 0h-3.2c-4.48 0-7.68-3.2-7.68-7.68s3.2-7.68 7.68-7.68h3.2c4.48 0 7.68 3.2 7.68 7.68s-3.2 7.68-7.68 7.68z m-21.76 0h-3.2c-4.48 0-7.68-3.2-7.68-7.68s3.2-7.68 7.68-7.68h3.2c4.48 0 7.68 3.2 7.68 7.68-0.64 4.48-3.84 7.68-7.68 7.68z m-22.4 0h-3.2c-4.48 0-7.68-3.2-7.68-7.68s3.2-7.68 7.68-7.68h3.2c4.48 0 7.68 3.2 7.68 7.68s-3.84 7.68-7.68 7.68zM283.52 829.44h-1.28c-4.48 0-7.68-3.2-7.68-7.68s3.2-7.68 7.68-7.68h1.28c4.48 0 7.68 3.2 7.68 7.68s-3.2 7.68-7.68 7.68zM632.96 684.16h-1.28c-4.48 0-7.68-3.2-7.68-7.68s3.2-7.68 7.68-7.68h1.28c4.48 0 7.68 3.2 7.68 7.68-0.64 4.48-3.84 7.68-7.68 7.68zM612.48 684.16h-3.2c-4.48 0-7.68-3.2-7.68-7.68s3.2-7.68 7.68-7.68h3.2c4.48 0 7.68 3.2 7.68 7.68s-3.2 7.68-7.68 7.68z m-21.12 0h-3.2c-4.48 0-7.68-3.2-7.68-7.68s3.2-7.68 7.68-7.68h3.2c4.48 0 7.68 3.2 7.68 7.68s-3.84 7.68-7.68 7.68z m-21.76 0h-3.2c-4.48 0-7.68-3.2-7.68-7.68s3.2-7.68 7.68-7.68h3.2c4.48 0 7.68 3.2 7.68 7.68s-3.2 7.68-7.68 7.68z m-21.12 0h-3.2c-4.48 0-7.68-3.2-7.68-7.68s3.2-7.68 7.68-7.68h3.2c4.48 0 7.68 3.2 7.68 7.68s-3.84 7.68-7.68 7.68z m-21.76 0h-3.2c-4.48 0-7.68-3.2-7.68-7.68s3.2-7.68 7.68-7.68h3.2c4.48 0 7.68 3.2 7.68 7.68s-3.2 7.68-7.68 7.68z m-21.12 0h-3.2c-4.48 0-7.68-3.2-7.68-7.68s3.2-7.68 7.68-7.68h3.2c4.48 0 7.68 3.2 7.68 7.68s-3.84 7.68-7.68 7.68z m-21.76 0h-3.2c-4.48 0-7.68-3.2-7.68-7.68s3.2-7.68 7.68-7.68h3.2c4.48 0 7.68 3.2 7.68 7.68s-3.2 7.68-7.68 7.68z m-21.12 0h-3.2c-4.48 0-7.68-3.2-7.68-7.68s3.2-7.68 7.68-7.68h3.2c4.48 0 7.68 3.2 7.68 7.68s-3.2 7.68-7.68 7.68z m-21.76 0h-3.2c-4.48 0-7.68-3.2-7.68-7.68s3.2-7.68 7.68-7.68h3.2c4.48 0 7.68 3.2 7.68 7.68s-3.2 7.68-7.68 7.68z m-21.12 0h-3.2c-4.48 0-7.68-3.2-7.68-7.68s3.2-7.68 7.68-7.68h3.2c4.48 0 7.68 3.2 7.68 7.68s-3.2 7.68-7.68 7.68z m-21.12 0h-3.2c-4.48 0-7.68-3.2-7.68-7.68s3.2-7.68 7.68-7.68h3.2c4.48 0 7.68 3.2 7.68 7.68-0.64 4.48-3.84 7.68-7.68 7.68zM376.96 684.16h-1.28c-4.48 0-7.68-3.2-7.68-7.68s3.2-7.68 7.68-7.68h1.28c4.48 0 7.68 3.2 7.68 7.68s-3.2 7.68-7.68 7.68z" fill="#211D1C" /><path d="M504.32 556.8c-14.08 0-25.6-11.52-25.6-25.6s11.52-25.6 25.6-25.6 25.6 11.52 25.6 25.6-11.52 25.6-25.6 25.6z m0-36.48c-5.76 0-10.88 4.48-10.88 10.88 0 5.76 4.48 10.88 10.88 10.88 5.76 0 10.88-4.48 10.88-10.88 0-5.76-5.12-10.88-10.88-10.88zM331.52 411.52c-14.08 0-25.6-11.52-25.6-25.6s11.52-25.6 25.6-25.6 25.6 11.52 25.6 25.6-11.52 25.6-25.6 25.6z m0-36.48c-5.76 0-10.88 4.48-10.88 10.88s4.48 10.88 10.88 10.88c5.76 0 10.88-4.48 10.88-10.88s-5.12-10.88-10.88-10.88zM331.52 702.08c-14.08 0-25.6-11.52-25.6-25.6s11.52-25.6 25.6-25.6 25.6 11.52 25.6 25.6-11.52 25.6-25.6 25.6z m0-36.48c-5.76 0-10.88 4.48-10.88 10.88 0 5.76 4.48 10.88 10.88 10.88 5.76 0 10.88-4.48 10.88-10.88 0-5.76-5.12-10.88-10.88-10.88zM238.08 847.36c-14.08 0-25.6-11.52-25.6-25.6s11.52-25.6 25.6-25.6 25.6 11.52 25.6 25.6c0.64 14.08-10.88 25.6-25.6 25.6z m0-35.84c-5.76 0-10.88 4.48-10.88 10.88s4.48 10.88 10.88 10.88c5.76 0 10.88-4.48 10.88-10.88s-4.48-10.88-10.88-10.88zM213.12 993.28c-14.08 0-25.6-11.52-25.6-25.6s11.52-25.6 25.6-25.6 25.6 11.52 25.6 25.6-11.52 25.6-25.6 25.6z m0-36.48c-5.76 0-10.88 4.48-10.88 10.88 0 5.76 4.48 10.88 10.88 10.88s10.88-4.48 10.88-10.88-5.12-10.88-10.88-10.88zM676.48 702.08c-14.08 0-25.6-11.52-25.6-25.6s11.52-25.6 25.6-25.6 25.6 11.52 25.6 25.6-11.52 25.6-25.6 25.6z m0-36.48c-5.76 0-10.88 4.48-10.88 10.88 0 5.76 4.48 10.88 10.88 10.88s10.88-4.48 10.88-10.88c0-5.76-5.12-10.88-10.88-10.88zM769.92 847.36c-14.08 0-25.6-11.52-25.6-25.6s11.52-25.6 25.6-25.6 25.6 11.52 25.6 25.6-11.52 25.6-25.6 25.6z m0-35.84c-5.76 0-10.88 4.48-10.88 10.88s4.48 10.88 10.88 10.88c5.76 0 10.88-4.48 10.88-10.88s-5.12-10.88-10.88-10.88z" fill="#00ABE0" /></svg>