<?xml version="1.0" standalone="no"?><!DOCTYPE svg PUBLIC "-//W3C//DTD SVG 1.1//EN" "http://www.w3.org/Graphics/SVG/1.1/DTD/svg11.dtd"><svg class="icon" width="200px" height="200.00px" viewBox="0 0 1024 1024" version="1.1" xmlns="http://www.w3.org/2000/svg"><path d="M443.98 160.85H245.71l-99.13 171.71 99.13 171.7h198.27l99.13-171.7z" fill="#64ABDA" /><path d="M752.95 330H551.83L451.27 504.18l100.56 174.17h201.12L853.5 504.18z" fill="#FFBE2C" /><path d="M752.95 690.32H551.83c-4.28 0-8.23-2.28-10.37-5.98L440.91 510.16c-2.14-3.7-2.14-8.27 0-11.97l100.56-174.17c2.14-3.7 6.09-5.98 10.37-5.98h201.12c4.28 0 8.23 2.28 10.37 5.98l100.56 174.17c2.14 3.7 2.14 8.27 0 11.97L763.31 684.33a11.96 11.96 0 0 1-10.36 5.99z m-194.21-23.94h187.29l93.65-162.2-93.65-162.2H558.74l-93.65 162.2 93.65 162.2z"  /><path d="M445.53 513.49H245L144.74 687.14 245 860.8h200.53l100.26-173.66z" fill="#B9CE4F" /><path d="M245.02 159.5m-60.51 0a60.51 60.51 0 1 0 121.02 0 60.51 60.51 0 1 0-121.02 0Z" fill="#F0CB74" /><path d="M245.02 231.98c-39.97 0-72.48-32.51-72.48-72.48s32.51-72.48 72.48-72.48 72.48 32.51 72.48 72.48-32.51 72.48-72.48 72.48z m0-121.02c-26.77 0-48.54 21.78-48.54 48.54s21.78 48.54 48.54 48.54 48.54-21.78 48.54-48.54-21.78-48.54-48.54-48.54z"  /><path d="M863.56 159.5m-60.51 0a60.51 60.51 0 1 0 121.02 0 60.51 60.51 0 1 0-121.02 0Z" fill="#B9CE4F" /><path d="M863.56 231.98c-39.97 0-72.48-32.51-72.48-72.48s32.51-72.48 72.48-72.48 72.48 32.51 72.48 72.48-32.52 72.48-72.48 72.48z m0-121.02c-26.77 0-48.54 21.78-48.54 48.54s21.78 48.54 48.54 48.54 48.54-21.78 48.54-48.54-21.78-48.54-48.54-48.54z"  /><path d="M863.56 864.5m-60.51 0a60.51 60.51 0 1 0 121.02 0 60.51 60.51 0 1 0-121.02 0Z" fill="#33ABDF" /><path d="M863.56 936.98c-39.97 0-72.48-32.51-72.48-72.48 0-39.97 32.51-72.48 72.48-72.48s72.48 32.51 72.48 72.48c0 39.96-32.52 72.48-72.48 72.48z m0-121.03c-26.77 0-48.54 21.78-48.54 48.54s21.78 48.54 48.54 48.54 48.54-21.78 48.54-48.54-21.78-48.54-48.54-48.54z"  /><path d="M447.03 864.5m-60.51 0a60.51 60.51 0 1 0 121.02 0 60.51 60.51 0 1 0-121.02 0Z" fill="#78CAEE" /><path d="M447.03 936.98c-39.97 0-72.48-32.51-72.48-72.48 0-39.97 32.51-72.48 72.48-72.48s72.48 32.51 72.48 72.48c0 39.96-32.51 72.48-72.48 72.48z m0-121.03c-26.77 0-48.54 21.78-48.54 48.54s21.78 48.54 48.54 48.54c26.77 0 48.54-21.78 48.54-48.54s-21.77-48.54-48.54-48.54z"  /><path d="M146.04 680.81m-60.51 0a60.51 60.51 0 1 0 121.02 0 60.51 60.51 0 1 0-121.02 0Z" fill="#FFBE2C" /><path d="M146.04 753.29c-39.97 0-72.48-32.51-72.48-72.48 0-39.97 32.51-72.48 72.48-72.48s72.48 32.51 72.48 72.48c0 39.97-32.51 72.48-72.48 72.48z m0-121.02c-26.77 0-48.54 21.78-48.54 48.54s21.78 48.54 48.54 48.54 48.54-21.78 48.54-48.54-21.77-48.54-48.54-48.54zM760.32 341.1H543.75c-4.22 0-8.13-2.23-10.29-5.86l-95.6-160.96H354c-6.61 0-11.97-5.36-11.97-11.97s5.36-11.97 11.97-11.97h90.67c4.22 0 8.13 2.23 10.29 5.86l95.6 160.96h203.12l45.38-72.68c3.5-5.61 10.89-7.32 16.49-3.81 5.61 3.5 7.31 10.88 3.81 16.49l-48.89 78.31a11.96 11.96 0 0 1-10.15 5.63z"  /><path d="M481.66 349.83c-4.08 0-8.05-2.08-10.29-5.84l-70.25-117.84c-3.38-5.68-1.53-13.03 4.15-16.41 5.68-3.39 13.03-1.53 16.41 4.15l70.25 117.84c3.38 5.68 1.53 13.03-4.15 16.41a11.86 11.86 0 0 1-6.12 1.69zM414.66 464.25H275.5c-4.33 0-8.33-2.34-10.45-6.13l-64.84-115.89c-3.23-5.77-1.17-13.06 4.6-16.29 5.77-3.23 13.06-1.17 16.29 4.6l61.41 109.76h132.14c6.61 0 11.97 5.36 11.97 11.97s-5.35 11.98-11.96 11.98z"  /><path d="M243.03 523.95c-4.3 0-8.28-2.31-10.41-6.06l-98.96-174.12a11.987 11.987 0 0 1-0.02-11.8l52.02-92.14c3.25-5.75 10.55-7.79 16.31-4.54 5.76 3.25 7.79 10.55 4.54 16.31l-48.68 86.23 92.09 162.03 190.11-3.79 99.5-172.92c3.3-5.73 10.61-7.7 16.34-4.41 5.73 3.3 7.7 10.62 4.41 16.34L457.4 513.88a11.98 11.98 0 0 1-10.14 6l-204 4.07h-0.23z"  /><path d="M549.9 694.89c-4.31 0-8.29-2.32-10.42-6.08L438.6 510.34c-3.25-5.75-1.22-13.06 4.53-16.31 5.75-3.26 13.06-1.23 16.31 4.53l97.42 172.33 192.94-1.52 93.92-164.8-100.49-169.33c-3.37-5.69-1.5-13.03 4.19-16.4 5.68-3.37 13.03-1.5 16.4 4.19l104.04 175.32c2.2 3.7 2.24 8.3 0.11 12.04L767.18 687.21a11.953 11.953 0 0 1-10.31 6.04L550 694.89h-0.1z"  /><path d="M806.62 785.76c-4.19 0-8.26-2.21-10.46-6.12l-51.78-92.48c-3.23-5.77-1.17-13.06 4.6-16.29 5.77-3.23 13.06-1.17 16.29 4.6l51.78 92.48c3.23 5.77 1.17 13.06-4.6 16.29a11.915 11.915 0 0 1-5.83 1.52zM495.98 789.1c-2.11 0-4.25-0.56-6.19-1.73-5.66-3.42-7.46-10.78-4.04-16.44l57.05-94.24c3.42-5.66 10.78-7.47 16.44-4.04 5.66 3.42 7.46 10.78 4.04 16.44l-57.05 94.24c-2.25 3.71-6.2 5.77-10.25 5.77zM782.99 513.13c-4.12 0-8.13-2.13-10.35-5.95l-62.22-106.82c-3.33-5.71-1.39-13.04 4.32-16.37 5.71-3.33 13.04-1.39 16.37 4.32l62.22 106.82c3.33 5.71 1.39 13.04-4.32 16.37-1.9 1.1-3.98 1.63-6.02 1.63zM720.76 631.24H586.29c-6.61 0-11.97-5.36-11.97-11.97s5.36-11.97 11.97-11.97h134.47c6.61 0 11.97 5.36 11.97 11.97s-5.36 11.97-11.97 11.97zM522.22 520.45c-2.02 0-4.07-0.51-5.95-1.59-5.73-3.29-7.71-10.61-4.42-16.34l67.97-118.3c3.29-5.73 10.61-7.71 16.34-4.42s7.71 10.61 4.42 16.34l-67.97 118.3a11.963 11.963 0 0 1-10.39 6.01zM480.36 702.71c-4.17 0-8.23-2.19-10.43-6.08l-68.95-121.92c-3.25-5.75-1.23-13.06 4.53-16.31 5.75-3.25 13.06-1.23 16.31 4.53l68.95 121.92c3.25 5.75 1.23 13.06-4.53 16.31a11.95 11.95 0 0 1-5.88 1.55zM195.42 607.85c-2 0-4.03-0.5-5.89-1.56-5.75-3.26-7.77-10.57-4.51-16.32l47.59-83.9c3.26-5.75 10.57-7.77 16.32-4.5 5.75 3.26 7.77 10.57 4.5 16.32l-47.59 83.9c-2.2 3.88-6.25 6.06-10.42 6.06zM341.27 876.47h-98.24c-4.25 0-8.18-2.25-10.33-5.92l-47.59-81.18c-3.34-5.7-1.43-13.04 4.27-16.38 5.7-3.34 13.04-1.43 16.38 4.27l44.13 75.26h91.39c6.61 0 11.97 5.36 11.97 11.97s-5.37 11.98-11.98 11.98z"  /></svg>