<?xml version="1.0" encoding="utf-8"?>
<!-- Generator: Adobe Illustrator 27.0.0, SVG Export Plug-In . SVG Version: 6.00 Build 0)  -->
<svg version="1.1" id="Layer_1" xmlns="http://www.w3.org/2000/svg" xmlns:xlink="http://www.w3.org/1999/xlink" x="0px" y="0px"
	 viewBox="0 0 1200 1000" style="enable-background:new 0 0 1200 1000;" xml:space="preserve">
<style type="text/css">
	.st0{fill:#692ADB;}
	.st1{fill:#6930D4;}
	.st2{fill:#6936CF;}
	.st3{fill:#B69AC9;}
	.st4{fill:#6E31DC;}
	.st5{fill:#7034DD;}
	.st6{fill:#6E32DC;}
	.st7{fill:#753BDE;}
	.st8{fill:#7238DD;}
	.st9{fill:#814CE1;}
	.st10{fill:#FFFFFF;}
</style>
<path class="st0" d="M710.9,518.7c-0.4,1.4-0.7,2.7-1.1,3.7c0.2,0.2,0.4,0.2,0.5,0.4c2.5-2.3,4.8-4.6,7.3-6.9
	c8.5-8.4,18.5-14.4,29.7-18.7c6.1-2.3,12.5-3.9,19.2-3.6c2.3,0.2,4.8,0,7.1,0c3,0.2,5.9,0.4,9.1,0.5c0.2-2.7,0.2-5.3-0.4-8.2
	c-0.7-3-0.9-6.6-0.2-9.6c0.7-2.8,0.5-5.7,0.7-8.5c0.4-5.9,1.4-11.6,4.3-16.7c2.3-4.1,5.5-6.8,10.5-6.2c3.7,0.4,6.6,2.7,8.7,5.9
	c2.5,3.6,3.9,7.7,4.8,11.9c1.6,7.1,2.3,14.2,2.1,21.4c0,7.7,0.2,15.5-2,23c-0.5,1.6,0,2.8,0.9,4.1c4.8,6.4,10.9,10.9,18,14.1
	c3.7,1.8,7.5,3.2,11.4,4.1c2.3,0.5,5,0.4,7.3-0.4c3.2-1.1,5.7-0.9,8,1.8c4.1,4.5,8.5,8.7,12.6,13.4c1.4,1.6,2.5,3.6,3.9,5.5
	c-6.1,5.7-13,10-19.4,14.1c0.5,5.3,1.1,10.5,1.6,15.7c0.2,2.3,1.1,4.8,0.7,6.9c-0.9,5.7-0.5,11.6-1.6,17.3
	c-1.2,6.4-2.8,12.5-5.3,18.3c-6.2,15-16.6,26.4-30.4,34.7c-8.5,5.2-17.6,8.7-27.2,11.2c-4.5,1.1-8.9,2.7-13.5,3.4
	c-5.9,1.1-11.9,1.8-18,1.8c-17.1-0.4-34.2,0-51.3-0.2c-1.6,0-3.2-0.5-4.8-0.7c-1.6-0.2-3.2-0.5-4.8-0.7c-2.1-0.4-4.5-0.7-6.6-0.9
	c-2.8-0.4-5.9-0.7-8.7-1.2c-5.7-1.1-11.4-2.1-17.1-3.4c-3-0.5-6.1-1.1-9.1-2c-5.7-1.4-11.4-2.8-16.9-4.8c-6.2-2.1-12.5-4.5-18.7-7.3
	c-14.8-6.6-28.8-14.4-41.3-24.8c-8.5-6.9-16.2-14.6-23.1-23.3c-6.6-8.4-12.5-17.3-16.9-27.1c-2.8-6.2-5.3-12.8-7.5-19.2
	c-1.8-5.5-3.2-11-4.5-16.7c-0.7-3.4-0.5-6.9-1.6-10.1c-2.5-8-1.1-16.4-1.4-24.6c-0.2-8.2,0-16.6,0-24.8c0-0.9,0.4-2,0.4-2.8
	c0.4-2.3,0.7-4.6,1.1-6.9c0.5-3.7,1.1-7.7,1.8-11.4c0.9-4.6,1.6-9.4,2.8-14.1c1.6-6.4,3.4-12.8,5.5-19.1c1.6-4.6,3.6-9.1,5.7-13.5
	c6.6-13.4,15-25.5,27.2-34.4c2.7-2,5.5-3.7,8.5-5c1.8-0.7,4.1-0.4,6.2-0.4c2.3-0.2,4.6,0,6.6,1.6c2.7,2.1,3.6,4.6,4.5,7.8
	c1.4,5.2-0.2,10.1-0.2,15.1c0,3.2-1.1,6.6-1.8,9.8c-0.4,2.1-0.9,4.3-1.2,6.6c-0.9,4.3-1.6,8.7-2.3,13c-0.5,3.2-1.6,6.2-2,9.4
	c-0.4,2,0,4.1,0,6.2c2,0.7,2.8-0.5,3.7-1.6c2.7-3.6,5.2-7.3,8-10.9c5-6.2,11.2-10.7,19.2-12.3c4.5-0.9,8.4-0.2,11.8,2.5
	c3.6,2.7,5,6.6,6.4,10.5c1.4,3.9,0.5,7.8,2.5,11.9c3.2,0.4,6.9,0.9,10.7,1.4c5,0.9,9.8,2.1,14.4,4.3c6.9,3,12.8,7.8,17.1,14.1
	c3,4.3,5.2,9.1,6.2,14.6c1.2-0.7,2.1-1.2,3.4-1.8c5.2-2.8,10.5-2.5,15.5,0.4c4.1,2.3,5.9,6.2,6.1,10.7c0.2,3.9,0.2,7.8,0,11.6
	c-0.2,3.9-0.7,7.8-1.4,11.8C712.5,513.1,711.6,515.8,710.9,518.7 M670.5,511c-2.7-1.4-2.8,0.9-3.6,2.7c-0.5-0.4-0.9-0.5-1.1-0.7
	c-0.9-0.4-1.8-1.1-2.5-0.7c-1.2,0.5-1.1,1.6-0.7,2.8c0.7,2.7,1.2,5.3,2,7.8c0.4,1.1,0.5,2.5,2,2.1c0.7-0.2,1.8-1.6,1.8-2.5
	c0-2.1-0.7-4.1-1.1-6.2c-0.2-0.7-0.2-1.4-0.2-3c1.1,0.9,1.8,1.2,2.1,1.8c1.1,1.6,1.8,3.2,2.8,4.8c0.4,0.5,1.4,1.2,2,1.1
	c0.5-0.2,1.2-1.2,1.2-2c0-0.9-0.5-2-0.9-2.8c-0.4-1.1-0.9-2-0.7-3.4c2.8,1.4,3.9,4.5,5.5,6.8c0.9,1.2,1.4,2.7,3.7,2.5
	c0.2-0.9,0.7-2,0.4-2.7c-2-4.8-5.2-8.7-9.1-12.1c-1.4-1.2-2.8-0.4-2.8,1.6C671.2,509.7,671.2,510.5,670.5,511 M681.2,534.3
	c-8.2-1.8-16.4-3.4-24.8-3c-3.7,0.2-7.8,0.7-11.4,2c-8.9,3.2-12.1,13-6.9,20.8c1.4,2.3,3.6,4.5,5.7,6.4c4.5,3.9,9.8,6.4,15.3,8.7
	c13.9,5.7,28.5,9.1,43.3,11.8c1.6,0.4,2.8,0,3.7-2.1c-1.2-0.5-2.3-1.4-3.6-1.6c-7.5-1.6-15-3-22.3-4.8c-10.3-2.5-20.3-6.1-29.6-11.6
	c-4.3-2.7-8.4-5.5-10.5-10.3c-2.1-5-0.4-10.3,4.5-12.8c5-2.7,10.3-3,15.7-2.7c10.9,0.5,21.5,2.8,31.9,6.1c4.5,1.4,9.1,2.8,13.5,4.3
	c1.6,0.5,3.2,1.1,4.1-0.9c-0.5-2.1-2.1-2.5-3.7-3C698.1,539.1,690.1,536.8,681.2,534.3 M828.6,554.1c-2.3-1.6-4.6-3.6-7.1-4.6
	c-6.6-2.7-12.5,1.2-13.2,8.2c-0.2,2.1-0.2,4.5,0.2,6.8c1.4,9.3,5,17.8,9.1,26c0.5,1.1,1.6,2,2.5,3c1.8-1.2,1.6-2.7,1.1-3.9
	c-0.7-1.4-1.4-2.8-2.1-4.5c-3.4-7.3-6.1-14.8-7.1-22.8c-0.4-3.4-0.5-6.9,2.8-9.1c2.7-1.8,6.2-0.9,9.8,2.5c2.3,2.3,4.5,4.8,6.4,7.3
	c4.5,6.2,7.8,13,10.9,19.9c0.4,1.1,0.9,2,1.6,2.8c0.4,0.4,1.2,0.7,1.6,0.5c0.5-0.4,1.1-1.1,1.2-1.6c0.2-0.7-0.2-1.4-0.4-2.1
	c-0.5-1.4-1.2-2.7-1.8-4.1C839.8,569.9,835.6,561.4,828.6,554.1 M624.6,434.6c-0.4,0-0.7,0-1.1,0c-5.5-0.2-9.3,2.8-13,6.4
	c-0.9,0.9-1.4,2.1-0.4,2.8c0.5,0.4,1.8,0.2,2.7-0.2c0.7-0.2,1.1-1.1,1.6-1.4c1.2-0.9,2.3-1.8,3.6-2.5c5.2-2.8,8.5-1.8,11.4,3.4
	c0.4,0.7,0.5,1.8,1.2,2.3c0.5,0.5,1.4,0.9,2.1,0.7c0.4,0,0.7-1.1,0.9-1.8c0.2-0.4-0.2-0.9-0.4-1.4
	C632,439.1,629.7,435.7,624.6,434.6 M706.3,500.3c-0.5,1.6-0.5,3,1.6,4.1c0.5-0.7,1.4-1.6,1.8-2.5c1.6-4.5,0.5-9.8-2.5-12.5
	c-3.4-3-8.7-3.4-13.5-1.6c-0.7,0.2-1.1,1.2-1.4,2c0.7,0.5,1.4,1.2,2.3,1.4c1.1,0.2,2.1-0.4,3.4-0.5c6.4-0.7,9.1,2,8.5,8.4
	C706.5,499.2,706.5,499.4,706.3,500.3 M645,493c1.2-1.1,1.4-2.3,0.5-3.6c-1.1-1.4-3.9-2.5-5.3-2.1c-1.6,0.4-2,1.6-2.1,3.2
	c0,1.1-0.4,2.1-0.7,3.2c0,0.2-0.5,0.4-0.9,0.5c-1.1-0.5-2-1.1-2.8-1.6c-1.8,2.7-0.9,5.5,2.3,7.5c2.7,1.6,4.5,1.4,6.2-1.1
	c-0.7-0.7-1.4-1.4-2-2.1C640.8,494.1,643.3,494.4,645,493 M635.3,480.9c2.1-2.7,1.6-5.7,0-8.4c-1.8-3.2-5.2-3.6-8.5-3.4
	c-1.8,0-3,0.7-3.2,3.2c1.2,0.2,2.3,0.7,3.6,0.7c4.8,0.2,5.3,0.5,5.9,5.2C632.9,479.7,632.9,480.9,635.3,480.9 M608.9,482
	c-3.4-0.2-6.9-0.5-10.3-0.7c-1.4,0-2.7,0.5-2.8,2.3c0.7,1.4,2.1,1.6,3.6,1.4c3.7-0.5,7.1,0.2,10.5,1.6c0.9,0.4,2.1,0.4,3.2,0.4
	C613.7,483.4,611.2,483,608.9,482 M606,467c-1.6-0.2-3.2-0.7-4.8-0.7c-0.7,0-1.8,0.7-2,1.4c-0.2,0.5,0.5,1.6,1.2,2
	c0.5,0.4,1.4,0.4,2.1,0.5c2.1,0.5,4.3,1.1,6.6,1.6c1.2,0.4,2.3,0.9,3.6,1.2c0.5,0.2,1.4-0.2,1.6-0.4c0.2-0.5,0.4-1.6,0-2
	c-0.4-0.7-1.2-1.2-2-1.6C610.3,468.4,608.5,467.9,606,467 M608.4,479.1c0.5,0.2,1.2,0.2,1.8,0.4c1.4,0.4,2.7,0,2.8-1.4
	c0-0.7-1.1-2-2-2.1c-1.8-0.7-3.9-0.9-5.9-1.2c-1.8-0.4-3.7-0.7-5.5-0.9c-0.7,0-1.8,0.7-2,1.4c-0.2,0.5,0.5,1.6,1.2,2
	c0.7,0.5,1.6,0.5,2.5,0.7C603.7,478.2,605.7,478.8,608.4,479.1 M661.4,498.7c0.4,1.4,0.7,2.8,1.1,4.3c0.2,0.5,0.9,1.1,1.2,1.1
	c0.5-0.2,1.4-0.7,1.6-1.1c0.7-2.7,0.4-5.2-1.6-7.3c-1.6-1.8-5.5-2.8-7.5-1.8c-0.7,0.4-1.6,1.4-1.6,1.8c0.4,0.7,1.2,1.4,2,1.8
	C658,497.8,659.5,497.8,661.4,498.7z"/>
<path class="st1" d="M322.4,465.2c2.5,0,4.6,0,7.1,0c3.2,9.4,6.6,18.9,9.8,28.1c3.4,9.6,6.8,19.1,10,28.7c3.2,9.4,6.8,18.7,9.6,28.5
	c-13,0-25.5,0-38.1,0c-1.8-4.8-3.4-9.4-5.2-14.4c-8.4,0-16.4,0-24.6,0c-1.6,0-2.1,0.9-2.7,2.1c-0.9,2.7-1.8,5.2-2.7,7.8
	c-0.5,1.6-1.1,3-1.6,4.5c-12.8,0-25.3,0-38.5,0c10-28.7,19.8-56.8,29.6-85.3C290.9,465.2,306.4,465.2,322.4,465.2 M300.1,502.8
	c-1.4,4.1-2.7,8.2-4.1,12.6c4.3,0,8,0,12.5,0c-2-6.2-3.9-11.9-6.1-18.7C301.6,499.1,301,500.7,300.1,502.8z"/>
<path class="st2" d="M282,345.4c-13.5-4.5-23.3-12.8-27.8-26c-8.4-25.1,3.4-51.3,30.8-58.2c15.7-3.9,31-1.6,45.6,5.3
	c1.1,0.5,2.1,1.2,3.6,2.1c-5.3,10.1-10.5,20.1-15.8,30.4c-1.1-0.2-2-0.2-3-0.5c-4.8-1.2-9.6-2.1-14.4-1.6c-2.5,0.2-5,0.7-7.1,2
	c-3.6,1.8-3.6,5.7-0.2,7.7c2.1,1.2,4.6,2,7.1,2.1c5.2,0.5,10.1,0,15.1-2c0.7-0.4,1.4-0.4,2.5-0.7c5.3,10.9,10.7,21.7,16,32.9
	C317.2,347.4,300.1,350,282,345.4z"/>
<path class="st1" d="M321.5,669.1c1.1,0.4,1.8,0.7,2.3,1.2c0.2,0.2,0,0.7,0,1.1c0,11.6,0,23,0,34.5c0,0.4-0.2,0.7-0.4,1.4
	c-6.1,0-12.1,0-18.3,0c0,15.8,0,31.2,0,46.3c-2.8,0.9-32.8,1.2-38.3,0.4c0-15.3,0-30.8,0-46.5c-6.4,0-12.3,0-18.2,0
	c-0.9-3-1.1-32.6-0.4-38.5C272.5,669.1,296.8,669.1,321.5,669.1z"/>
<path class="st3" d="M488.9,332.6c0,4.6,0,8.7,0,13.2c-7.8,0-15.5,0-23.5,0c0-0.9-0.2-2-0.2-3c0-7.5,0-15,0-22.4c0-0.9,0-1.8,0-2.7
	c-0.2-5.9-3-7.3-8.9-4.5c0,10.7,0,21.5,0,32.8c-8,0-15.7,0-23.5,0c-0.2-0.9-0.4-1.8-0.4-2.7c0-8.2,0-16.2,0-24.4c0-1.1,0-2-0.2-3
	c-0.5-3.4-3-4.8-6.4-3.9c-1.8,0.5-2.7,1.4-2.5,3.6c0.2,6.6,0,13.2,0,19.9c0,3.4,0,6.9,0,10.5c-8.5,0-16.6,0-24.9,0
	c0-16,0-32.1,0-48.4c8.2,0,16.4,0,24.9,0c0,1.6,0,3.2,0,4.8c13.4-8.2,22.3-7.5,30.4,2.5c1.1-0.9,2.3-2,3.4-2.8
	c3.9-3.2,8.4-5,13.4-5.2c10.1-0.5,17.3,5.9,17.8,16C489.1,319.2,488.9,325.8,488.9,332.6z"/>
<path class="st3" d="M700.1,721.8c0-5.5,0-10.9,0-16.2c8.4,0,16.6,0,24.8,0c0.2,0.9,0.4,1.8,0.5,2.8c0.5,0,0.9,0,1.2-0.2
	c13.7-8.2,30.1,0.7,31.5,17.3c0.4,3.7,0.2,7.5-0.7,11c-3.2,13.4-15.1,20.5-28.5,17.3c-1.1-0.4-2.1-0.5-3.6-1.1c0,5.2,0,9.8,0,14.6
	c-0.7,0.2-1.1,0.4-1.4,0.4c-7.7,0-15.5,0-23.7,0C700.1,752.4,700.1,737.3,700.1,721.8 M731.4,725.4c-4.5-1.2-6.4,0.2-6.4,4.6
	c0,1.8,0,3.7,0,5.3c2.7,1.4,5,2.1,7.1,0.2c2.1-1.8,2.3-4.5,1.6-6.8C733.5,727.7,732.7,726.6,731.4,725.4z"/>
<path class="st3" d="M506.9,297.3c5.3,0,10.3,0,15.5,0c0.2,1.1,0.4,2,0.4,3c0.5-0.2,0.9-0.2,1.2-0.4c12.6-7.8,28.8-0.5,31.5,15.8
	c0.9,5.2,0.5,10.5-1.2,15.5c-4.3,11.4-15.3,17.3-27.1,14.4c-1.2-0.4-2.7-0.7-4.3-1.1c0,5,0,9.8,0,14.8c-8.5,0-16.7,0-24.9,0
	c0-20.7,0-41.3,0-62.1C500.8,297.3,503.7,297.3,506.9,297.3 M524,327.9c2.7,0.7,5.3,0.9,6.8-2c1.2-2.5,1.2-5.2-0.4-7.5
	c-1.8-2.7-6.8-2.7-7.5,0.2C522.4,321.5,521.6,324.7,524,327.9z"/>
<path class="st3" d="M763.6,340.6c-12.8-9.3-12.3-29-1.6-37.9c6.8-5.7,14.4-6.9,22.8-5.2c0.7,0.2,1.4,0.4,2.5,0.7
	c0-4.6,0-9.1,0-13.7c8.5,0,16.6,0,24.9,0c0,20.5,0,40.8,0,61.4c-0.7,0-1.4,0.2-2.1,0.2c-9.1,0-18.2,0-27.4,0
	C775.9,345.9,769.5,344.7,763.6,340.6 M782.7,316.2c-3.7,1.6-5.2,4.1-4.5,7.8c0.7,3,3.4,4.3,8.7,3.9c0-3.6,0-7.1,0-10.7
	C785.7,316.7,784.5,316.4,782.7,316.2z"/>
<path class="st3" d="M441,547c-16.4-8.7-16.2-30.3-5.2-39.9c6.4-5.7,13.9-6.8,22.1-5.3c0.9,0.2,2,0.4,3.2,0.7c0-4.6,0-9.1,0-13.7
	c8.5,0,16.7,0,25.1,0c0,20.3,0,40.6,0,61.3c-0.5,0-1.1,0.2-1.8,0.2c-9.8,0-19.8,0-29.6,0C450.2,550.2,445.6,549.1,441,547
	 M456.5,520.6c-3.6,1.6-5,4.3-4.1,7.7c0.9,3.2,3.2,4.3,8.7,3.7c0-3.4,0-6.8,0-10.7C459.9,521.1,458.4,520.8,456.5,520.6z"/>
<path class="st3" d="M629,297.1c5.5,0,10.9,0,16.2,0c0,1.1,0.2,2.1,0.2,3c0,7.3,0,14.8,0,22.1c0,1.4,0,2.8,0.4,4.1
	c0.7,2.7,2.3,3.7,5,3.4c2.3-0.4,3.4-1.8,3.4-4.5c0-8.5,0-16.9,0-25.5c0-0.7,0-1.4,0-2.3c8.4,0,16.6,0,24.9,0c0,16.2,0,32.2,0,48.4
	c-7.8,0-15.7,0-23.9,0c0-2.3,0-4.8,0-7.1c-0.2,0-0.5-0.2-0.7-0.2c-0.7,0.7-1.4,1.4-2.3,2.3c-5.5,5.5-12.1,6.6-19.4,4.8
	c-6.4-1.6-10-6.2-11-12.6c-0.2-1.6-0.4-3.2-0.4-4.8c0-9.4,0-19.1,0-28.5c0-0.5,0-1.2,0.2-2.3C624.4,297.1,626.5,297.1,629,297.1z"/>
<path class="st3" d="M402.7,501.2c1.8,0.2,3.4,0,4.8,0.4C415,503,420,508,420.3,516c0.5,11.2,0.2,22.6,0.2,34.2
	c-7.8,0-15.5,0-23.5,0c0-1.2,0-2.5,0-3.7c0-7.1,0-14.2,0-21.4c0-1.1,0-2,0-3c-0.4-5.9-3.2-7.3-8.7-4.3c0,10.7,0,21.4,0,32.4
	c-8.5,0-16.7,0-25.1,0c0-16,0-32.1,0-48.3c8.2,0,16.4,0,24.8,0c0.2,1.4,0.4,3,0.5,5C392.6,503.5,397,501,402.7,501.2z"/>
<path class="st3" d="M498.7,751.7c0.2,2-0.5,2.5-2.1,2.5c-5.5,0-11,0-16.6,0c-1.6,0-3.2,0-5.2,0c0-1.6,0-2.7,0-3.9
	c0-7.1,0-14.2,0-21.4c0-1.1,0-2,0-3c-0.4-5.9-3.2-7.3-8.7-4.1c0,10.5,0,21.2,0,32.2c-8.4,0-16.6,0-25.1,0c0-16,0-32.1,0-48.3
	c8.2,0,16.4,0,24.8,0c0.2,1.6,0.2,3.2,0.4,5.2c1.1-0.9,1.8-1.4,2.7-2c6.1-4.3,12.8-4.8,19.6-2.5c6.9,2.3,9.6,8.2,9.8,15
	c0.4,8.9,0.2,18,0.2,27.1C498.7,749.2,498.7,750.3,498.7,751.7z"/>
<path class="st3" d="M688.8,300.3c0-1.1,0-1.8,0-3.2c4.1,0,8.2,0,12.3,0c4.1,0,8.2,0,12.6,0c0,1.8,0,3.4,0,5.3c1.2-0.9,2-1.2,2.8-2
	c6.1-4.5,12.6-5,19.6-2.8c6.1,2,8.9,6.6,10,12.5c0.4,2.1,0.5,4.3,0.5,6.4c0,8.9,0,17.8,0,26.5c0,0.7-0.2,1.4-0.2,2.3
	c-7.8,0-15.5,0-23.7,0c0-1.2,0-2.5,0-3.7c0-7.5,0-15,0-22.4c0-0.7,0-1.2,0-2c-0.2-5.9-3.4-7.7-8.9-4.3c0,10.7,0,21.4,0,32.2
	c-8.4,0-16.6,0-25.1,0C688.8,330.6,688.8,315.7,688.8,300.3z"/>
<path class="st3" d="M338.2,326.2c0-3.6-0.4-6.9,0.2-10c1.8-10.3,9.8-17.8,20.1-19.4c4.3-0.7,8.7-0.7,13,0.2
	c15,29.6,22.1-75,19.4,28.1c-1.6,13.9-13.5,22.8-29.2,21.5c-6.2-0.5-11.6-2.5-16.2-6.8C341.6,336.1,339.3,331.7,338.2,326.2
	 M366.4,326c0.9-0.7,2-1.2,2.5-2c1.4-2,1.1-5.2-0.5-6.9c-1.6-1.8-4.5-2.1-6.6-1.1c-2,1.1-3.2,3.7-2.7,6.1
	C360,325.1,361.9,326.3,366.4,326z"/>
<path class="st3" d="M585.9,346.5c-6.4-0.7-11.9-2.7-16.4-7.1c-7.7-7.7-8.9-16.9-5.9-26.7c3-9.4,10.1-14.6,19.8-16.2
	c4.3-0.7,8.7-0.5,13,0.4c11.4,2.5,20.7,12.5,18.9,27.8c-1.6,13.2-11.6,21.5-25.6,21.9C588.4,346.6,587.4,346.6,585.9,346.5
	 M584.5,317.6c-0.4,0.9-0.9,1.8-1.1,2.8c-0.4,3,1.8,5.7,4.8,5.9c3,0.4,5.5-2,5.7-5c0.2-3.2-1.8-5.9-4.8-5.7
	C587.7,315.7,586.3,316.7,584.5,317.6z"/>
<path class="st3" d="M393.6,706.7c7.7-2,15.1-2.1,22.6-0.7c9.6,2,15.3,8,15.7,17.8c0.4,10,0,19.9,0,30.1c-8.2,0-16.4,0-24.8,0
	c-0.2-0.7-0.2-1.6-0.4-2.5c-0.5,0-0.9,0-1.1,0.2c-4.1,2.3-8.5,3.6-13.2,2.8c-5-0.9-8.5-3.7-10-8.5c-1.6-5-0.5-9.6,3.2-13.5
	c2.8-2.8,6.4-4.5,10.3-4.5c3.4-0.2,6.9,0.2,10.3,0.4c-0.2-3-1.2-4.6-4.5-5.5c-4.1-1.4-8.2-0.7-12.1,0.5c-2.1,0.7-4.1,1.6-6.4,2.5
	c0-5,0-9.8,0-15C386.5,709.4,389.9,708.1,393.6,706.7 M403.1,736.1c-0.9,0.2-1.8,0.2-2.5,0.5c-3.2,1.4-3.4,5.3-0.4,7.1
	c1.2,0.7,3,0.7,4.6,0.7c1.6,0,2.3-1.1,2.3-2.8c-0.2-1.4,0-3,0-4.6C405.7,736.6,404.8,736.2,403.1,736.1z"/>
<path class="st3" d="M576.7,705.4c9.3-1.8,17.8-0.5,26.5,2.1c0,7.1,0,13.9,0,21.2c-1.1-0.4-2-0.5-2.7-0.9c-3.7-1.4-7.7-2.5-11.6-2.3
	c-1.4,0-2.7,0.4-3.9,0.7c-1.6,0.5-2.7,1.6-2.7,3.2c0,1.8,1.1,3,2.7,3.6c1.2,0.4,2.3,0.7,3.6,0.7c4.8,0.4,9.6-0.2,14.6-2.3
	c0,7.1,0,13.9,0,21c-2,1.4-4.6,1.4-7.3,1.8c-6.8,0.9-13.4,0.9-20.1-0.9c-11.8-3.2-18.7-11.8-18.9-23c-0.2-11.9,6.6-21,18-24.6
	C575.4,705.8,576,705.6,576.7,705.4z"/>
<path class="st3" d="M836.1,327.2c-3-1.1-6.1-2-8.7-3c-5.3-2.3-8.4-6.6-8.5-12.5c0-6.1,3.2-10,8.4-12.6c3.7-1.8,7.8-2.5,11.9-2.7
	c7.8-0.4,15.7,0.4,23.1,3.2c0.5,0.2,1.1,0.5,2,0.9c-2,4.1-3.9,8.2-5.9,12.3c-1.6-1.1-2.8-2-4.1-2.8c-2.3-1.4-4.8-2.5-7.8-2.3
	c-1.6,0.2-3,0.5-3.4,2.3c-0.4,1.8,0.7,2.8,2.3,3.4c1.6,0.7,3.4,1.1,5,1.6c2.3,0.7,4.8,1.4,7.1,2.3c10.1,3.9,10.5,17.8,3.6,23.7
	c-3.4,2.8-7.3,4.3-11.6,5c-8,1.2-15.7,0-23.3-2c-3-0.7-5.9-2-9.1-2.8c2-4.8,3.7-9.3,5.7-13.9c3.2,3.7,6.6,6.4,11,7.1
	c1.4,0.2,3,0.2,4.5-0.2c0.9-0.4,2.1-1.6,2.3-2.5c0.2-0.9-0.7-2.3-1.4-3.2C838.4,327.9,837.4,327.6,836.1,327.2z"/>
<path class="st3" d="M826.8,735.4c-3-1.1-6.1-2-8.7-3c-5.2-2.3-8.2-6.6-8.2-12.3c-0.2-5.9,2.8-10,8-12.3c2.8-1.2,5.9-2.1,8.9-2.5
	c9.6-1.2,19.1-0.4,28.5,3.7c-2,4.1-3.9,8.2-5.9,12.5c-1.2-0.9-2.1-1.8-3.4-2.3c-2.5-1.1-5-2.1-7.7-2.8c-2-0.5-3.9,0.9-4.3,2.3
	c-0.4,1.4,0.7,3,2.8,3.9c1.4,0.5,3,0.9,4.6,1.4c2.1,0.7,4.3,1.2,6.4,2.1c5.3,2.1,8.4,6.2,8.7,11.9c0.4,5.5-1.8,10-6.4,13.2
	c-3.2,2.1-6.9,3.6-10.9,3.9c-10.7,1.1-21-1.1-31.5-5.2c1.8-4.6,3.7-9.1,5.5-13.7c1.6,1.4,2.8,2.8,4.5,3.9c2.7,2,5.5,3.4,8.9,3.2
	c2.5,0,4.1-0.9,4.6-2.5c0.5-1.8-0.5-3.2-3-4.5C828.1,735.7,827.6,735.5,826.8,735.4z"/>
<path class="st3" d="M509.4,736.4c3,3.4,6.4,5.7,10.7,6.2c3.6,0.5,5.9-0.5,6.4-2.3c0.5-2.1-0.9-3.7-4.5-5c-3.2-1.1-6.4-2-9.4-3.4
	c-6.4-3.2-9.3-10.1-6.9-16.7c1.2-3.6,3.6-6.1,6.9-7.5c2.8-1.2,6.1-2.3,9.3-2.7c9.6-1.2,19.1-0.4,28.7,3.7c-2,4.3-3.9,8.4-5.7,12.1
	c-3.4-1.6-6.4-3.2-9.6-4.5c-1.1-0.4-2.5-0.4-3.6,0c-0.9,0.4-2,1.2-2.1,2.1s0.5,2.3,1.4,2.8c1.2,0.9,2.8,1.4,4.5,1.8
	c2.7,0.9,5.3,1.4,7.8,2.5c5.3,2.1,8.4,6.1,8.7,11.9c0.4,5.7-1.8,10.1-6.6,13.4c-3.4,2.3-7.1,3.4-11.2,3.7
	c-10.3,0.9-20.1-1.1-29.7-4.8c-0.4-0.2-0.5-0.4-1.1-0.7c1.8-4.1,3.4-8.2,5.2-12.3C508.1,736.4,508.8,736.4,509.4,736.4z"/>
<path class="st3" d="M378.5,709.9c0.7,2.5,2,4.8,2,6.9c0.2,9.6-9.4,15-18,10.3c-1.2-0.7-2.3-1.4-3.7-2.5c-2.5,2.3-3.2,5.5-3.4,8.7
	c-0.2,5.3-0.2,10.7-0.2,16c0,1.4,0,2.7,0,4.3c-8.4,0-16.6,0-24.9,0c0-15.8,0-31.9,0-48.3c8.2,0,16.4,0,24.8,0c0,2.7,0,5.3,0,8.2
	c0.2,0.2,0.4,0.2,0.7,0.4c0.7-0.9,1.2-1.8,2-2.8c2.7-3.6,5.9-6.1,10.7-6.1C372.4,705.1,375.8,706.3,378.5,709.9z"/>
<path class="st3" d="M611.9,715.8c0-3.6,0-6.8,0-10.1c8.5,0,16.7,0,25.1,0c0,2.8,0,5.5,0,8.2c0.2,0,0.4,0.2,0.5,0.2
	c0.7-1.1,1.4-2.1,2.1-3.2c2.7-3.6,6.2-5.7,10.9-5.7c5.2,0,9.1,2.5,10.9,6.9c1.8,4.5,0.7,10.5-2.5,13.5c-3.7,3.6-10.5,4.1-15.3,1.2
	c-1.1-0.7-2-1.4-3-2.1c-2.7,2.5-3.4,5.7-3.4,8.9c-0.2,5.5,0,11-0.2,16.4c0,1.2,0,2.5,0,3.7c-8.5,0-16.7,0-25.3,0
	C611.9,741.2,611.9,728.8,611.9,715.8z"/>
<path class="st3" d="M769.3,721.1c0.2-1.6-0.7-1.8-1.8-1.8c-2.5,0-5,0-7.3,0c-0.2-0.2-0.2-0.4-0.2-0.5c0-0.2,0-0.4,0-0.4
	c11-8.7,22.1-17.5,33.1-26.2c0.2-0.2,0.7-0.2,1.2-0.4c0,4.5,0,8.7,0,13.4c3.6,0,6.8,0,10.1,0c0,4.6,0,9.1,0,13.9c-3.2,0-6.4,0-10,0
	c0,4.1-0.2,8,0,11.8c0.2,3.4,3.6,4.6,6.8,3.2c1.1-0.5,2-1.4,3.6-2.5c0,3.4,0,6.4,0,9.4c0,3.2,0,6.2,0,9.3
	c-8.5,6.4-22.6,5.7-30.3-1.6c-3.9-3.7-5.5-8.5-5.7-13.9C769.3,730.5,769.3,725.9,769.3,721.1z"/>
<path class="st3" d="M683.9,754.2c-6.2,0-12.1,0-18.2,0c0-16.2,0-32.2,0-48.4c8.4,3.4,16.4,3.6,24.8,0c0,16.2,0,32.1,0,48.4
	C688.3,754.2,686.2,754.2,683.9,754.2z"/>
<path class="st4" d="M875.8,521.5c0.2-0.5,0.2-1.2,0.4-1.8c2.3-8.2-2-13.4-10.9-12.5c5-11.6,9.8-22.8,14.8-34.4
	c1.4,1.4,2.7,2.7,3.9,3.6c2.5,2,5,2,6.8,0.4c1.6-1.4,2-4.5,0.9-6.9c-1.2-2.5-3-4.1-5.7-5.2c-0.5-0.2-0.9-0.4-1.8-0.7
	c3.4-8,7.3-15.7,11.4-23.3c0.4,0,0.5,0.2,0.9,0.2c-0.2,1.1-0.2,2.1-0.4,3.2c-0.2,1.2-0.5,2.5-0.9,3.6c-0.4,1.2-0.7,2.3-1.1,3.7
	c5.5,1.1,9.1,5.2,13.9,8.2c-5.9,1.8-7.8,5.5-5.7,11c0.9,2.3,2.7,4.5,3.7,6.9c-0.7,0.4-1.2,0.4-1.6,0.5c-2.3-1.6-4.6-3.2-6.6-4.6
	c-1.6,4.3-3,8.4-4.8,12.6c-0.5,0.5-0.7,0.7-1.1,1.1c-4.8,2.3-6.2,6.4-6.1,11.6c-0.7,0-1.2-0.2-1.8-0.2c-1.4,3.7-2.8,7.7-4.3,11
	c6.8,3.7,11.8,9.8,17.8,15c-1.8,2.1-3.2,3.9-4.8,5.7c-0.2-5-1.8-8.9-6.4-10.9c-3.9-1.6-7.3-0.7-10.7,2
	C875.8,521.5,875.8,521.5,875.8,521.5z"/>
<path class="st5" d="M926,404.5c-0.5,1.1-1.1,2.1-1.4,3.6c0,0.2,0,0.2,0,0.2c-2.1,2.3-2,5-1.4,7.7c0.7,4.3,2.8,8,6.4,10.7
	c4.3,3.2,8.9,2.3,11.6-2.7c1.6-3.2,2.8-6.6,4.3-10c0.7,2.7,0.2,5.3,0.4,8c0.2,2.8,0.2,5.7,0,8.5c-0.4,2.8-0.9,5.5-1.6,8.2
	c-0.7,2.7-1.6,5.3-3,8c-0.2-1.8-0.4-3.6-0.4-5.3c-0.2-2.8-1.1-5.5-3.6-7.1c-7.1-4.8-14.2-9.4-21.7-14.4c-0.5,4.1-1.1,7.5-1.6,11.4
	c-1.6,0.4-3.6,0.5-4.5,2.7c-0.9,2.3-0.7,4.5,0.2,6.6c2.7,6.4,7.7,10.7,14.1,13.2c2.1,0.9,4.5,0.7,6.8-1.2c0.9,0,1.2,0,1.6,0
	c0,0.2,0,0.5,0,0.7c0.4,4.3,1.1,4.8,5.5,4.8c-1.4,3.2-2.7,6.2-3.9,9.3c-0.2,0-0.4,0-0.5-0.2c0-1.2-0.2-2.5-0.2-3.6
	c-1.6-0.9-3-1.4-4.5-2.3c-10-7.1-19.9-14.2-29.9-21.2c-0.4-0.4-0.7-0.7-1.4-1.2c1.2-2.3,2.5-4.6,3.9-6.9
	c5.2-8.5,10.5-16.9,18.3-23.3c1.8-1.6,4.1-2.7,6.4-3.9C926,404.5,926,404.5,926,404.5z"/>
<path class="st6" d="M892.6,487.3c0-0.4,0.2-0.5,0.5-0.9c2.5-0.7,4.5-0.2,6.2,1.6c2.7,2.3,5.3,4.5,8.2,6.6c2.5,1.8,5,3.6,7.8,5.5
	c-3,5-6.4,10.3-10.7,15.3c-3.6-3-6.8-5.9-10-8.7c-1.4-1.2-3-2.5-4.5-3.9c-0.7-0.7-1.4-1.8-1.8-2.8c-0.2-0.5,0-1.6,0.5-2
	c0.4-0.4,1.6-0.4,2,0c1.6,1.4,3,3,4.6,4.8c3-0.7,5-3.6,4.8-7.3C900.4,491.2,897.7,488.4,892.6,487.3z"/>
<path class="st3" d="M679.4,692.6c2.3-1.2,4.6-1.4,6.8-0.5c3.7,1.6,5.3,6.1,3.4,9.8c-1.8,3.6-6.1,5-9.6,3.2c-3.6-1.8-5.2-6.6-3-10
	C677.6,694.2,678.5,693.5,679.4,692.6z"/>
<path class="st7" d="M925.3,473.1c-0.2,0.9-0.2,2-0.4,2.8c-2.8,0.4-5-0.7-10-4.8c-5.9-4.8-6.8-5.9-7.1-9.1c1.8-0.7,3.2,0.4,4.5,1.2
	c3.4,2.3,6.6,5,9.8,7.5c0.9,0.7,1.8,1.8,3,2.5C925.3,473.1,925.3,473.1,925.3,473.1z"/>
<path class="st8" d="M919.8,434.8c2.7,2.1,5.2,3.9,7.5,5.9c0.7,0.5,1.2,1.6,1.8,2.5c0.7,1.8-0.2,2.8-2.1,2.5
	c-0.9-0.2-1.8-0.4-2.5-0.9c-3.2-2.5-6.6-5-9.6-7.7c-0.9-0.7-1.2-2.1-1.8-3.6C915.9,432.5,917.7,433.9,919.8,434.8z"/>
<path class="st7" d="M882.8,530.4c0.9,1.4,1.8,2.5,2,3.7c0,1.1-0.7,2.3-1.4,3c-1.1,0.9-2.3,0.7-3.4-0.4c-2.7-2.7-5.5-5.3-8.2-8
	c2.1-2.8,3.7-3.6,6.2-2.3C879.6,527.6,881,529,882.8,530.4z"/>
<path class="st7" d="M937.6,406.1c-0.5-0.7-0.7-1.2-1.1-1.8c3.6,0.5,4.6,1.4,5,4.1c0.4,2.5,0.5,5.2,0.2,7.7
	c-0.5,3.2-2.3,3.9-6.1,2.7C937.1,414.8,939.4,410.9,937.6,406.1z"/>
<path class="st8" d="M866.7,517.2c1.2,1.2,2.5,2.5,3.6,3.7c1.4,1.8,1.6,3.9-0.4,6.2c-3-2.8-6.2-5.5-9.4-8.4c0.5-1.2,1.1-2.3,1.6-3.9
	C863.7,515.6,865.1,516.3,866.7,517.2z"/>
<path class="st9" d="M904.8,478.4c0.4-0.4,0.9-0.4,1.6-0.4c1.6,1.1,3,2.3,4.3,3.4c3.6,3,7.5,5.2,12.8,5.2c-0.9,1.8-1.6,3.2-2.3,4.6
	C915.2,487.7,910.2,483.2,904.8,478.4z"/>
<path class="st7" d="M924.4,408.4c3.6,0.4,6.6,1.6,9.1,4.3c0.7,0.7,1.2,1.6,1.6,2.5c0.5,1.6-1.2,3.2-2.5,2.5c-3-1.8-5.9-3.7-7.5-7.1
	c-0.2-0.5,0-1.2-0.4-2C924.6,408.3,924.6,408.4,924.4,408.4z"/>
<path class="st9" d="M931.9,452.4c-0.5,0.2-0.9,0.2-1.4,0.2c1.6-3.2,1.6-6.6-0.2-10.5c3.6,1.4,6.1,3.2,7.7,5.9
	c0.7,1.1,0.7,2.3-0.9,3.6c-1.1-0.9-2.1-2-3.6-3.2C933,449.6,932.4,450.8,931.9,452.4z"/>
<path class="st9" d="M925.5,473.2c-0.2-0.2-0.2-0.2-0.2-0.2c1.6,0.2,3,0.2,5.2,0.4c-0.7,1.4-1.2,2.7-2.1,4.6
	C927.3,476.1,926.4,474.7,925.5,473.2z"/>
<path class="st5" d="M926,404.5c0.2-0.2,0.4-0.4,0.5-0.4c0,0,0.2,0,0.2,0.2C926.6,404.3,926.4,404.3,926,404.5L926,404.5z"/>
<path class="st7" d="M935.3,403.4C935.3,403.4,935.5,403.4,935.3,403.4C935.5,403.4,935.5,403.6,935.3,403.4z"/>
</svg>
