<?xml version="1.0" encoding="utf-8" standalone="no"?>
<!DOCTYPE svg PUBLIC "-//W3C//DTD SVG 1.1//EN"
  "http://www.w3.org/Graphics/SVG/1.1/DTD/svg11.dtd">
<svg xmlns:xlink="http://www.w3.org/1999/xlink" width="432pt" height="432pt" viewBox="0 0 432 432" xmlns="http://www.w3.org/2000/svg" version="1.1">
 <metadata>
  <rdf:RDF xmlns:dc="http://purl.org/dc/elements/1.1/" xmlns:cc="http://creativecommons.org/ns#" xmlns:rdf="http://www.w3.org/1999/02/22-rdf-syntax-ns#">
   <cc:Work>
    <dc:type rdf:resource="http://purl.org/dc/dcmitype/StillImage"/>
    <dc:date>2023-09-10T02:02:54.839996</dc:date>
    <dc:format>image/svg+xml</dc:format>
    <dc:creator>
     <cc:Agent>
      <dc:title>Matplotlib v3.7.2, https://matplotlib.org/</dc:title>
     </cc:Agent>
    </dc:creator>
   </cc:Work>
  </rdf:RDF>
 </metadata>
 <defs>
  <style type="text/css">*{stroke-linejoin: round; stroke-linecap: butt}</style>
 </defs>
 <g id="figure_1">
  <g id="patch_1">
   <path d="M 0 432 
L 432 432 
L 432 0 
L 0 0 
z
" style="fill: #ffffff"/>
  </g>
  <g id="axes_1">
   <g id="patch_2">
    <path d="M 129.6 384.48 
L 388.8 384.48 
L 388.8 51.84 
L 129.6 51.84 
z
" style="fill: #ffffff"/>
   </g>
   <g id="PathCollection_1">
    <path d="M 377.018182 74.031068 
C 378.893451 74.031068 380.692166 73.286015 382.018182 71.96 
C 383.344197 70.633984 384.08925 68.835269 384.08925 66.96 
C 384.08925 65.084731 383.344197 63.286015 382.018182 61.96 
C 380.692166 60.633984 378.893451 59.888932 377.018182 59.888932 
C 375.142913 59.888932 373.344197 60.633984 372.018182 61.96 
C 370.692166 63.286015 369.947114 65.084731 369.947114 66.96 
C 369.947114 68.835269 370.692166 70.633984 372.018182 71.96 
C 373.344197 73.286015 375.142913 74.031068 377.018182 74.031068 
z
" clip-path="url(#p53f9f79548)" style="fill: #7a2e70; stroke: #ffffff; stroke-width: 0.570137"/>
    <path d="M 323.86897 95.005281 
C 325.578278 95.005281 327.217808 94.326166 328.426472 93.117502 
C 329.635136 91.908838 330.314251 90.269309 330.314251 88.56 
C 330.314251 86.850691 329.635136 85.211162 328.426472 84.002498 
C 327.217808 82.793834 325.578278 82.114719 323.86897 82.114719 
C 322.159661 82.114719 320.520132 82.793834 319.311468 84.002498 
C 318.102804 85.211162 317.423689 86.850691 317.423689 88.56 
C 317.423689 90.269309 318.102804 91.908838 319.311468 93.117502 
C 320.520132 94.326166 322.159661 95.005281 323.86897 95.005281 
z
" clip-path="url(#p53f9f79548)" style="fill: #7a2e70; stroke: #ffffff; stroke-width: 0.570137"/>
    <path d="M 253.551358 115.669179 
C 255.012409 115.669179 256.413816 115.088697 257.446936 114.055578 
C 258.480055 113.022459 259.060537 111.621051 259.060537 110.16 
C 259.060537 108.698949 258.480055 107.297541 257.446936 106.264422 
C 256.413816 105.231303 255.012409 104.650821 253.551358 104.650821 
C 252.090306 104.650821 250.688899 105.231303 249.65578 106.264422 
C 248.62266 107.297541 248.042178 108.698949 248.042178 110.16 
C 248.042178 111.621051 248.62266 113.022459 249.65578 114.055578 
C 250.688899 115.088697 252.090306 115.669179 253.551358 115.669179 
z
" clip-path="url(#p53f9f79548)" style="fill: #7a2e70; stroke: #ffffff; stroke-width: 0.570137"/>
    <path d="M 245.608194 137.153232 
C 247.038496 137.153232 248.410408 136.584967 249.421785 135.573591 
C 250.433161 134.562215 251.001426 133.190302 251.001426 131.76 
C 251.001426 130.329698 250.433161 128.957785 249.421785 127.946409 
C 248.410408 126.935033 247.038496 126.366768 245.608194 126.366768 
C 244.177892 126.366768 242.805979 126.935033 241.794603 127.946409 
C 240.783227 128.957785 240.214962 130.329698 240.214962 131.76 
C 240.214962 133.190302 240.783227 134.562215 241.794603 135.573591 
C 242.805979 136.584967 244.177892 137.153232 245.608194 137.153232 
z
" clip-path="url(#p53f9f79548)" style="fill: #7a2e70; stroke: #ffffff; stroke-width: 0.570137"/>
    <path d="M 218.342766 158.33472 
C 219.662077 158.33472 220.92753 157.810552 221.860424 156.877658 
C 222.793317 155.944764 223.317485 154.679311 223.317485 153.36 
C 223.317485 152.040689 222.793317 150.775236 221.860424 149.842342 
C 220.92753 148.909448 219.662077 148.38528 218.342766 148.38528 
C 217.023455 148.38528 215.758001 148.909448 214.825108 149.842342 
C 213.892214 150.775236 213.368046 152.040689 213.368046 153.36 
C 213.368046 154.679311 213.892214 155.944764 214.825108 156.877658 
C 215.758001 157.810552 217.023455 158.33472 218.342766 158.33472 
z
" clip-path="url(#p53f9f79548)" style="fill: #aa3a6e; stroke: #ffffff; stroke-width: 0.570137"/>
    <path d="M 207.32625 179.755272 
C 208.597971 179.755272 209.817777 179.250011 210.717019 178.350769 
C 211.616262 177.451527 212.121522 176.231721 212.121522 174.96 
C 212.121522 173.688279 211.616262 172.468473 210.717019 171.569231 
C 209.817777 170.669989 208.597971 170.164728 207.32625 170.164728 
C 206.05453 170.164728 204.834724 170.669989 203.935481 171.569231 
C 203.036239 172.468473 202.530979 173.688279 202.530979 174.96 
C 202.530979 176.231721 203.036239 177.451527 203.935481 178.350769 
C 204.834724 179.250011 206.05453 179.755272 207.32625 179.755272 
z
" clip-path="url(#p53f9f79548)" style="fill: #aa3a6e; stroke: #ffffff; stroke-width: 0.570137"/>
    <path d="M 180.548187 200.888172 
C 181.696031 200.888172 182.797018 200.432129 183.608666 199.62048 
C 184.420315 198.808831 184.876359 197.707845 184.876359 196.56 
C 184.876359 195.412155 184.420315 194.311169 183.608666 193.49952 
C 182.797018 192.687871 181.696031 192.231828 180.548187 192.231828 
C 179.400342 192.231828 178.299356 192.687871 177.487707 193.49952 
C 176.676058 194.311169 176.220015 195.412155 176.220015 196.56 
C 176.220015 197.707845 176.676058 198.808831 177.487707 199.62048 
C 178.299356 200.432129 179.400342 200.888172 180.548187 200.888172 
z
" clip-path="url(#p53f9f79548)" style="fill: #aa3a6e; stroke: #ffffff; stroke-width: 0.570137"/>
    <path d="M 175.319765 222.390958 
C 176.441828 222.390958 177.518085 221.945157 178.311504 221.151739 
C 179.104922 220.358321 179.550723 219.282063 179.550723 218.16 
C 179.550723 217.037937 179.104922 215.961679 178.311504 215.168261 
C 177.518085 214.374843 176.441828 213.929042 175.319765 213.929042 
C 174.197702 213.929042 173.121444 214.374843 172.328026 215.168261 
C 171.534607 215.961679 171.088807 217.037937 171.088807 218.16 
C 171.088807 219.282063 171.534607 220.358321 172.328026 221.151739 
C 173.121444 221.945157 174.197702 222.390958 175.319765 222.390958 
z
" clip-path="url(#p53f9f79548)" style="fill: #d64f5f; stroke: #ffffff; stroke-width: 0.570137"/>
    <path d="M 171.813286 243.924489 
C 172.917722 243.924489 173.977071 243.485692 174.758025 242.704739 
C 175.538979 241.923785 175.977775 240.864435 175.977775 239.76 
C 175.977775 238.655565 175.538979 237.596215 174.758025 236.815261 
C 173.977071 236.034308 172.917722 235.595511 171.813286 235.595511 
C 170.708851 235.595511 169.649501 236.034308 168.868548 236.815261 
C 168.087594 237.596215 167.648797 238.655565 167.648797 239.76 
C 167.648797 240.864435 168.087594 241.923785 168.868548 242.704739 
C 169.649501 243.485692 170.708851 243.924489 171.813286 243.924489 
z
" clip-path="url(#p53f9f79548)" style="fill: #d64f5f; stroke: #ffffff; stroke-width: 0.570137"/>
    <path d="M 151.177845 265.10953 
C 152.172231 265.10953 153.126025 264.714456 153.829163 264.011318 
C 154.5323 263.30818 154.927374 262.354387 154.927374 261.36 
C 154.927374 260.365613 154.5323 259.41182 153.829163 258.708682 
C 153.126025 258.005544 152.172231 257.61047 151.177845 257.61047 
C 150.183458 257.61047 149.229664 258.005544 148.526527 258.708682 
C 147.823389 259.41182 147.428315 260.365613 147.428315 261.36 
C 147.428315 262.354387 147.823389 263.30818 148.526527 264.011318 
C 149.229664 264.714456 150.183458 265.10953 151.177845 265.10953 
z
" clip-path="url(#p53f9f79548)" style="fill: #d64f5f; stroke: #ffffff; stroke-width: 0.570137"/>
    <path d="M 150.168579 286.68805 
C 151.15727 286.68805 152.105599 286.295239 152.804709 285.596129 
C 153.503818 284.89702 153.896629 283.94869 153.896629 282.96 
C 153.896629 281.97131 153.503818 281.02298 152.804709 280.323871 
C 152.105599 279.624761 151.15727 279.23195 150.168579 279.23195 
C 149.179889 279.23195 148.23156 279.624761 147.53245 280.323871 
C 146.83334 281.02298 146.440529 281.97131 146.440529 282.96 
C 146.440529 283.94869 146.83334 284.89702 147.53245 285.596129 
C 148.23156 286.295239 149.179889 286.68805 150.168579 286.68805 
z
" clip-path="url(#p53f9f79548)" style="fill: #d64f5f; stroke: #ffffff; stroke-width: 0.570137"/>
    <path d="M 148.316523 308.248308 
C 149.294674 308.248308 150.232893 307.859684 150.92455 307.168027 
C 151.616207 306.47637 152.004831 305.538151 152.004831 304.56 
C 152.004831 303.581849 151.616207 302.64363 150.92455 301.951973 
C 150.232893 301.260316 149.294674 300.871692 148.316523 300.871692 
C 147.338372 300.871692 146.400153 301.260316 145.708496 301.951973 
C 145.016839 302.64363 144.628215 303.581849 144.628215 304.56 
C 144.628215 305.538151 145.016839 306.47637 145.708496 307.168027 
C 146.400153 307.859684 147.338372 308.248308 148.316523 308.248308 
z
" clip-path="url(#p53f9f79548)" style="fill: #e77e63; stroke: #ffffff; stroke-width: 0.570137"/>
    <path d="M 144.348367 329.761681 
C 145.303544 329.761681 146.219728 329.382185 146.89514 328.706773 
C 147.570552 328.031361 147.950048 327.115177 147.950048 326.16 
C 147.950048 325.204823 147.570552 324.288639 146.89514 323.613227 
C 146.219728 322.937815 145.303544 322.558319 144.348367 322.558319 
C 143.39319 322.558319 142.477006 322.937815 141.801593 323.613227 
C 141.126181 324.288639 140.746685 325.204823 140.746685 326.16 
C 140.746685 327.115177 141.126181 328.031361 141.801593 328.706773 
C 142.477006 329.382185 143.39319 329.761681 144.348367 329.761681 
z
" clip-path="url(#p53f9f79548)" style="fill: #e77e63; stroke: #ffffff; stroke-width: 0.570137"/>
    <path d="M 141.47239 351.297572 
C 142.410565 351.297572 143.310441 350.924831 143.973831 350.261441 
C 144.63722 349.598051 145.009961 348.698175 145.009961 347.76 
C 145.009961 346.821825 144.63722 345.921949 143.973831 345.258559 
C 143.310441 344.595169 142.410565 344.222428 141.47239 344.222428 
C 140.534215 344.222428 139.634338 344.595169 138.970949 345.258559 
C 138.307559 345.921949 137.934818 346.821825 137.934818 347.76 
C 137.934818 348.698175 138.307559 349.598051 138.970949 350.261441 
C 139.634338 350.924831 140.534215 351.297572 141.47239 351.297572 
z
" clip-path="url(#p53f9f79548)" style="fill: #e77e63; stroke: #ffffff; stroke-width: 0.570137"/>
    <path d="M 141.381818 372.895534 
C 142.319453 372.895534 143.21881 372.523008 143.881818 371.86 
C 144.544826 371.196992 144.917352 370.297635 144.917352 369.36 
C 144.917352 368.422365 144.544826 367.523008 143.881818 366.86 
C 143.21881 366.196992 142.319453 365.824466 141.381818 365.824466 
C 140.444184 365.824466 139.544826 366.196992 138.881818 366.86 
C 138.21881 367.523008 137.846284 368.422365 137.846284 369.36 
C 137.846284 370.297635 138.21881 371.196992 138.881818 371.86 
C 139.544826 372.523008 140.444184 372.895534 141.381818 372.895534 
z
" clip-path="url(#p53f9f79548)" style="fill: #e77e63; stroke: #ffffff; stroke-width: 0.570137"/>
   </g>
   <g id="PathCollection_2"/>
   <g id="PathCollection_3"/>
   <g id="PathCollection_4"/>
   <g id="PathCollection_5"/>
   <g id="PathCollection_6"/>
   <g id="PathCollection_7"/>
   <g id="PathCollection_8"/>
   <g id="PathCollection_9"/>
   <g id="PathCollection_10"/>
   <g id="matplotlib.axis_1">
    <g id="xtick_1">
     <g id="line2d_1">
      <defs>
       <path id="m51f73e2133" d="M 0 0 
L 0 3.5 
" style="stroke: #000000; stroke-width: 0.8"/>
      </defs>
      <g>
       <use xlink:href="#m51f73e2133" x="178.66355" y="384.48" style="stroke: #000000; stroke-width: 0.8"/>
      </g>
     </g>
     <g id="text_1">
      <!-- 0.2 -->
      <g transform="translate(170.711987 399.078438) scale(0.1 -0.1)">
       <defs>
        <path id="DejaVuSans-30" d="M 2034 4250 
Q 1547 4250 1301 3770 
Q 1056 3291 1056 2328 
Q 1056 1369 1301 889 
Q 1547 409 2034 409 
Q 2525 409 2770 889 
Q 3016 1369 3016 2328 
Q 3016 3291 2770 3770 
Q 2525 4250 2034 4250 
z
M 2034 4750 
Q 2819 4750 3233 4129 
Q 3647 3509 3647 2328 
Q 3647 1150 3233 529 
Q 2819 -91 2034 -91 
Q 1250 -91 836 529 
Q 422 1150 422 2328 
Q 422 3509 836 4129 
Q 1250 4750 2034 4750 
z
" transform="scale(0.015625)"/>
        <path id="DejaVuSans-2e" d="M 684 794 
L 1344 794 
L 1344 0 
L 684 0 
L 684 794 
z
" transform="scale(0.015625)"/>
        <path id="DejaVuSans-32" d="M 1228 531 
L 3431 531 
L 3431 0 
L 469 0 
L 469 531 
Q 828 903 1448 1529 
Q 2069 2156 2228 2338 
Q 2531 2678 2651 2914 
Q 2772 3150 2772 3378 
Q 2772 3750 2511 3984 
Q 2250 4219 1831 4219 
Q 1534 4219 1204 4116 
Q 875 4013 500 3803 
L 500 4441 
Q 881 4594 1212 4672 
Q 1544 4750 1819 4750 
Q 2544 4750 2975 4387 
Q 3406 4025 3406 3419 
Q 3406 3131 3298 2873 
Q 3191 2616 2906 2266 
Q 2828 2175 2409 1742 
Q 1991 1309 1228 531 
z
" transform="scale(0.015625)"/>
       </defs>
       <use xlink:href="#DejaVuSans-30"/>
       <use xlink:href="#DejaVuSans-2e" x="63.623047"/>
       <use xlink:href="#DejaVuSans-32" x="95.410156"/>
      </g>
     </g>
    </g>
    <g id="xtick_2">
     <g id="line2d_2">
      <g>
       <use xlink:href="#m51f73e2133" x="238.559542" y="384.48" style="stroke: #000000; stroke-width: 0.8"/>
      </g>
     </g>
     <g id="text_2">
      <!-- 0.4 -->
      <g transform="translate(230.60798 399.078438) scale(0.1 -0.1)">
       <defs>
        <path id="DejaVuSans-34" d="M 2419 4116 
L 825 1625 
L 2419 1625 
L 2419 4116 
z
M 2253 4666 
L 3047 4666 
L 3047 1625 
L 3713 1625 
L 3713 1100 
L 3047 1100 
L 3047 0 
L 2419 0 
L 2419 1100 
L 313 1100 
L 313 1709 
L 2253 4666 
z
" transform="scale(0.015625)"/>
       </defs>
       <use xlink:href="#DejaVuSans-30"/>
       <use xlink:href="#DejaVuSans-2e" x="63.623047"/>
       <use xlink:href="#DejaVuSans-34" x="95.410156"/>
      </g>
     </g>
    </g>
    <g id="xtick_3">
     <g id="line2d_3">
      <g>
       <use xlink:href="#m51f73e2133" x="298.455534" y="384.48" style="stroke: #000000; stroke-width: 0.8"/>
      </g>
     </g>
     <g id="text_3">
      <!-- 0.6 -->
      <g transform="translate(290.503972 399.078438) scale(0.1 -0.1)">
       <defs>
        <path id="DejaVuSans-36" d="M 2113 2584 
Q 1688 2584 1439 2293 
Q 1191 2003 1191 1497 
Q 1191 994 1439 701 
Q 1688 409 2113 409 
Q 2538 409 2786 701 
Q 3034 994 3034 1497 
Q 3034 2003 2786 2293 
Q 2538 2584 2113 2584 
z
M 3366 4563 
L 3366 3988 
Q 3128 4100 2886 4159 
Q 2644 4219 2406 4219 
Q 1781 4219 1451 3797 
Q 1122 3375 1075 2522 
Q 1259 2794 1537 2939 
Q 1816 3084 2150 3084 
Q 2853 3084 3261 2657 
Q 3669 2231 3669 1497 
Q 3669 778 3244 343 
Q 2819 -91 2113 -91 
Q 1303 -91 875 529 
Q 447 1150 447 2328 
Q 447 3434 972 4092 
Q 1497 4750 2381 4750 
Q 2619 4750 2861 4703 
Q 3103 4656 3366 4563 
z
" transform="scale(0.015625)"/>
       </defs>
       <use xlink:href="#DejaVuSans-30"/>
       <use xlink:href="#DejaVuSans-2e" x="63.623047"/>
       <use xlink:href="#DejaVuSans-36" x="95.410156"/>
      </g>
     </g>
    </g>
    <g id="xtick_4">
     <g id="line2d_4">
      <g>
       <use xlink:href="#m51f73e2133" x="358.351527" y="384.48" style="stroke: #000000; stroke-width: 0.8"/>
      </g>
     </g>
     <g id="text_4">
      <!-- 0.8 -->
      <g transform="translate(350.399964 399.078438) scale(0.1 -0.1)">
       <defs>
        <path id="DejaVuSans-38" d="M 2034 2216 
Q 1584 2216 1326 1975 
Q 1069 1734 1069 1313 
Q 1069 891 1326 650 
Q 1584 409 2034 409 
Q 2484 409 2743 651 
Q 3003 894 3003 1313 
Q 3003 1734 2745 1975 
Q 2488 2216 2034 2216 
z
M 1403 2484 
Q 997 2584 770 2862 
Q 544 3141 544 3541 
Q 544 4100 942 4425 
Q 1341 4750 2034 4750 
Q 2731 4750 3128 4425 
Q 3525 4100 3525 3541 
Q 3525 3141 3298 2862 
Q 3072 2584 2669 2484 
Q 3125 2378 3379 2068 
Q 3634 1759 3634 1313 
Q 3634 634 3220 271 
Q 2806 -91 2034 -91 
Q 1263 -91 848 271 
Q 434 634 434 1313 
Q 434 1759 690 2068 
Q 947 2378 1403 2484 
z
M 1172 3481 
Q 1172 3119 1398 2916 
Q 1625 2713 2034 2713 
Q 2441 2713 2670 2916 
Q 2900 3119 2900 3481 
Q 2900 3844 2670 4047 
Q 2441 4250 2034 4250 
Q 1625 4250 1398 4047 
Q 1172 3844 1172 3481 
z
" transform="scale(0.015625)"/>
       </defs>
       <use xlink:href="#DejaVuSans-30"/>
       <use xlink:href="#DejaVuSans-2e" x="63.623047"/>
       <use xlink:href="#DejaVuSans-38" x="95.410156"/>
      </g>
     </g>
    </g>
    <g id="text_5">
     <!-- Importance -->
     <g transform="translate(230.546875 412.756563) scale(0.1 -0.1)">
      <defs>
       <path id="DejaVuSans-49" d="M 628 4666 
L 1259 4666 
L 1259 0 
L 628 0 
L 628 4666 
z
" transform="scale(0.015625)"/>
       <path id="DejaVuSans-6d" d="M 3328 2828 
Q 3544 3216 3844 3400 
Q 4144 3584 4550 3584 
Q 5097 3584 5394 3201 
Q 5691 2819 5691 2113 
L 5691 0 
L 5113 0 
L 5113 2094 
Q 5113 2597 4934 2840 
Q 4756 3084 4391 3084 
Q 3944 3084 3684 2787 
Q 3425 2491 3425 1978 
L 3425 0 
L 2847 0 
L 2847 2094 
Q 2847 2600 2669 2842 
Q 2491 3084 2119 3084 
Q 1678 3084 1418 2786 
Q 1159 2488 1159 1978 
L 1159 0 
L 581 0 
L 581 3500 
L 1159 3500 
L 1159 2956 
Q 1356 3278 1631 3431 
Q 1906 3584 2284 3584 
Q 2666 3584 2933 3390 
Q 3200 3197 3328 2828 
z
" transform="scale(0.015625)"/>
       <path id="DejaVuSans-70" d="M 1159 525 
L 1159 -1331 
L 581 -1331 
L 581 3500 
L 1159 3500 
L 1159 2969 
Q 1341 3281 1617 3432 
Q 1894 3584 2278 3584 
Q 2916 3584 3314 3078 
Q 3713 2572 3713 1747 
Q 3713 922 3314 415 
Q 2916 -91 2278 -91 
Q 1894 -91 1617 61 
Q 1341 213 1159 525 
z
M 3116 1747 
Q 3116 2381 2855 2742 
Q 2594 3103 2138 3103 
Q 1681 3103 1420 2742 
Q 1159 2381 1159 1747 
Q 1159 1113 1420 752 
Q 1681 391 2138 391 
Q 2594 391 2855 752 
Q 3116 1113 3116 1747 
z
" transform="scale(0.015625)"/>
       <path id="DejaVuSans-6f" d="M 1959 3097 
Q 1497 3097 1228 2736 
Q 959 2375 959 1747 
Q 959 1119 1226 758 
Q 1494 397 1959 397 
Q 2419 397 2687 759 
Q 2956 1122 2956 1747 
Q 2956 2369 2687 2733 
Q 2419 3097 1959 3097 
z
M 1959 3584 
Q 2709 3584 3137 3096 
Q 3566 2609 3566 1747 
Q 3566 888 3137 398 
Q 2709 -91 1959 -91 
Q 1206 -91 779 398 
Q 353 888 353 1747 
Q 353 2609 779 3096 
Q 1206 3584 1959 3584 
z
" transform="scale(0.015625)"/>
       <path id="DejaVuSans-72" d="M 2631 2963 
Q 2534 3019 2420 3045 
Q 2306 3072 2169 3072 
Q 1681 3072 1420 2755 
Q 1159 2438 1159 1844 
L 1159 0 
L 581 0 
L 581 3500 
L 1159 3500 
L 1159 2956 
Q 1341 3275 1631 3429 
Q 1922 3584 2338 3584 
Q 2397 3584 2469 3576 
Q 2541 3569 2628 3553 
L 2631 2963 
z
" transform="scale(0.015625)"/>
       <path id="DejaVuSans-74" d="M 1172 4494 
L 1172 3500 
L 2356 3500 
L 2356 3053 
L 1172 3053 
L 1172 1153 
Q 1172 725 1289 603 
Q 1406 481 1766 481 
L 2356 481 
L 2356 0 
L 1766 0 
Q 1100 0 847 248 
Q 594 497 594 1153 
L 594 3053 
L 172 3053 
L 172 3500 
L 594 3500 
L 594 4494 
L 1172 4494 
z
" transform="scale(0.015625)"/>
       <path id="DejaVuSans-61" d="M 2194 1759 
Q 1497 1759 1228 1600 
Q 959 1441 959 1056 
Q 959 750 1161 570 
Q 1363 391 1709 391 
Q 2188 391 2477 730 
Q 2766 1069 2766 1631 
L 2766 1759 
L 2194 1759 
z
M 3341 1997 
L 3341 0 
L 2766 0 
L 2766 531 
Q 2569 213 2275 61 
Q 1981 -91 1556 -91 
Q 1019 -91 701 211 
Q 384 513 384 1019 
Q 384 1609 779 1909 
Q 1175 2209 1959 2209 
L 2766 2209 
L 2766 2266 
Q 2766 2663 2505 2880 
Q 2244 3097 1772 3097 
Q 1472 3097 1187 3025 
Q 903 2953 641 2809 
L 641 3341 
Q 956 3463 1253 3523 
Q 1550 3584 1831 3584 
Q 2591 3584 2966 3190 
Q 3341 2797 3341 1997 
z
" transform="scale(0.015625)"/>
       <path id="DejaVuSans-6e" d="M 3513 2113 
L 3513 0 
L 2938 0 
L 2938 2094 
Q 2938 2591 2744 2837 
Q 2550 3084 2163 3084 
Q 1697 3084 1428 2787 
Q 1159 2491 1159 1978 
L 1159 0 
L 581 0 
L 581 3500 
L 1159 3500 
L 1159 2956 
Q 1366 3272 1645 3428 
Q 1925 3584 2291 3584 
Q 2894 3584 3203 3211 
Q 3513 2838 3513 2113 
z
" transform="scale(0.015625)"/>
       <path id="DejaVuSans-63" d="M 3122 3366 
L 3122 2828 
Q 2878 2963 2633 3030 
Q 2388 3097 2138 3097 
Q 1578 3097 1268 2742 
Q 959 2388 959 1747 
Q 959 1106 1268 751 
Q 1578 397 2138 397 
Q 2388 397 2633 464 
Q 2878 531 3122 666 
L 3122 134 
Q 2881 22 2623 -34 
Q 2366 -91 2075 -91 
Q 1284 -91 818 406 
Q 353 903 353 1747 
Q 353 2603 823 3093 
Q 1294 3584 2113 3584 
Q 2378 3584 2631 3529 
Q 2884 3475 3122 3366 
z
" transform="scale(0.015625)"/>
       <path id="DejaVuSans-65" d="M 3597 1894 
L 3597 1613 
L 953 1613 
Q 991 1019 1311 708 
Q 1631 397 2203 397 
Q 2534 397 2845 478 
Q 3156 559 3463 722 
L 3463 178 
Q 3153 47 2828 -22 
Q 2503 -91 2169 -91 
Q 1331 -91 842 396 
Q 353 884 353 1716 
Q 353 2575 817 3079 
Q 1281 3584 2069 3584 
Q 2775 3584 3186 3129 
Q 3597 2675 3597 1894 
z
M 3022 2063 
Q 3016 2534 2758 2815 
Q 2500 3097 2075 3097 
Q 1594 3097 1305 2825 
Q 1016 2553 972 2059 
L 3022 2063 
z
" transform="scale(0.015625)"/>
      </defs>
      <use xlink:href="#DejaVuSans-49"/>
      <use xlink:href="#DejaVuSans-6d" x="29.492188"/>
      <use xlink:href="#DejaVuSans-70" x="126.904297"/>
      <use xlink:href="#DejaVuSans-6f" x="190.380859"/>
      <use xlink:href="#DejaVuSans-72" x="251.5625"/>
      <use xlink:href="#DejaVuSans-74" x="292.675781"/>
      <use xlink:href="#DejaVuSans-61" x="331.884766"/>
      <use xlink:href="#DejaVuSans-6e" x="393.164062"/>
      <use xlink:href="#DejaVuSans-63" x="456.542969"/>
      <use xlink:href="#DejaVuSans-65" x="511.523438"/>
     </g>
    </g>
   </g>
   <g id="matplotlib.axis_2">
    <g id="ytick_1">
     <g id="line2d_5">
      <defs>
       <path id="m65a77c3fd3" d="M 0 0 
L -3.5 0 
" style="stroke: #000000; stroke-width: 0.8"/>
      </defs>
      <g>
       <use xlink:href="#m65a77c3fd3" x="129.6" y="66.96" style="stroke: #000000; stroke-width: 0.8"/>
      </g>
     </g>
     <g id="text_6">
      <!-- Cc72_00056795-RA -->
      <g transform="translate(24.496875 70.670937) scale(0.1 -0.1)">
       <defs>
        <path id="DejaVuSans-43" d="M 4122 4306 
L 4122 3641 
Q 3803 3938 3442 4084 
Q 3081 4231 2675 4231 
Q 1875 4231 1450 3742 
Q 1025 3253 1025 2328 
Q 1025 1406 1450 917 
Q 1875 428 2675 428 
Q 3081 428 3442 575 
Q 3803 722 4122 1019 
L 4122 359 
Q 3791 134 3420 21 
Q 3050 -91 2638 -91 
Q 1578 -91 968 557 
Q 359 1206 359 2328 
Q 359 3453 968 4101 
Q 1578 4750 2638 4750 
Q 3056 4750 3426 4639 
Q 3797 4528 4122 4306 
z
" transform="scale(0.015625)"/>
        <path id="DejaVuSans-37" d="M 525 4666 
L 3525 4666 
L 3525 4397 
L 1831 0 
L 1172 0 
L 2766 4134 
L 525 4134 
L 525 4666 
z
" transform="scale(0.015625)"/>
        <path id="DejaVuSans-5f" d="M 3263 -1063 
L 3263 -1509 
L -63 -1509 
L -63 -1063 
L 3263 -1063 
z
" transform="scale(0.015625)"/>
        <path id="DejaVuSans-35" d="M 691 4666 
L 3169 4666 
L 3169 4134 
L 1269 4134 
L 1269 2991 
Q 1406 3038 1543 3061 
Q 1681 3084 1819 3084 
Q 2600 3084 3056 2656 
Q 3513 2228 3513 1497 
Q 3513 744 3044 326 
Q 2575 -91 1722 -91 
Q 1428 -91 1123 -41 
Q 819 9 494 109 
L 494 744 
Q 775 591 1075 516 
Q 1375 441 1709 441 
Q 2250 441 2565 725 
Q 2881 1009 2881 1497 
Q 2881 1984 2565 2268 
Q 2250 2553 1709 2553 
Q 1456 2553 1204 2497 
Q 953 2441 691 2322 
L 691 4666 
z
" transform="scale(0.015625)"/>
        <path id="DejaVuSans-39" d="M 703 97 
L 703 672 
Q 941 559 1184 500 
Q 1428 441 1663 441 
Q 2288 441 2617 861 
Q 2947 1281 2994 2138 
Q 2813 1869 2534 1725 
Q 2256 1581 1919 1581 
Q 1219 1581 811 2004 
Q 403 2428 403 3163 
Q 403 3881 828 4315 
Q 1253 4750 1959 4750 
Q 2769 4750 3195 4129 
Q 3622 3509 3622 2328 
Q 3622 1225 3098 567 
Q 2575 -91 1691 -91 
Q 1453 -91 1209 -44 
Q 966 3 703 97 
z
M 1959 2075 
Q 2384 2075 2632 2365 
Q 2881 2656 2881 3163 
Q 2881 3666 2632 3958 
Q 2384 4250 1959 4250 
Q 1534 4250 1286 3958 
Q 1038 3666 1038 3163 
Q 1038 2656 1286 2365 
Q 1534 2075 1959 2075 
z
" transform="scale(0.015625)"/>
        <path id="DejaVuSans-2d" d="M 313 2009 
L 1997 2009 
L 1997 1497 
L 313 1497 
L 313 2009 
z
" transform="scale(0.015625)"/>
        <path id="DejaVuSans-52" d="M 2841 2188 
Q 3044 2119 3236 1894 
Q 3428 1669 3622 1275 
L 4263 0 
L 3584 0 
L 2988 1197 
Q 2756 1666 2539 1819 
Q 2322 1972 1947 1972 
L 1259 1972 
L 1259 0 
L 628 0 
L 628 4666 
L 2053 4666 
Q 2853 4666 3247 4331 
Q 3641 3997 3641 3322 
Q 3641 2881 3436 2590 
Q 3231 2300 2841 2188 
z
M 1259 4147 
L 1259 2491 
L 2053 2491 
Q 2509 2491 2742 2702 
Q 2975 2913 2975 3322 
Q 2975 3731 2742 3939 
Q 2509 4147 2053 4147 
L 1259 4147 
z
" transform="scale(0.015625)"/>
        <path id="DejaVuSans-41" d="M 2188 4044 
L 1331 1722 
L 3047 1722 
L 2188 4044 
z
M 1831 4666 
L 2547 4666 
L 4325 0 
L 3669 0 
L 3244 1197 
L 1141 1197 
L 716 0 
L 50 0 
L 1831 4666 
z
" transform="scale(0.015625)"/>
       </defs>
       <use xlink:href="#DejaVuSans-43"/>
       <use xlink:href="#DejaVuSans-63" x="69.824219"/>
       <use xlink:href="#DejaVuSans-37" x="124.804688"/>
       <use xlink:href="#DejaVuSans-32" x="188.427734"/>
       <use xlink:href="#DejaVuSans-5f" x="252.050781"/>
       <use xlink:href="#DejaVuSans-30" x="302.050781"/>
       <use xlink:href="#DejaVuSans-30" x="365.673828"/>
       <use xlink:href="#DejaVuSans-30" x="429.296875"/>
       <use xlink:href="#DejaVuSans-35" x="492.919922"/>
       <use xlink:href="#DejaVuSans-36" x="556.542969"/>
       <use xlink:href="#DejaVuSans-37" x="620.166016"/>
       <use xlink:href="#DejaVuSans-39" x="683.789062"/>
       <use xlink:href="#DejaVuSans-35" x="747.412109"/>
       <use xlink:href="#DejaVuSans-2d" x="811.035156"/>
       <use xlink:href="#DejaVuSans-52" x="847.119141"/>
       <use xlink:href="#DejaVuSans-41" x="912.601562"/>
      </g>
     </g>
    </g>
    <g id="ytick_2">
     <g id="line2d_6">
      <g>
       <use xlink:href="#m65a77c3fd3" x="129.6" y="88.56" style="stroke: #000000; stroke-width: 0.8"/>
      </g>
     </g>
     <g id="text_7">
      <!-- Cc72_00013836-RA -->
      <g transform="translate(24.496875 92.270938) scale(0.1 -0.1)">
       <defs>
        <path id="DejaVuSans-31" d="M 794 531 
L 1825 531 
L 1825 4091 
L 703 3866 
L 703 4441 
L 1819 4666 
L 2450 4666 
L 2450 531 
L 3481 531 
L 3481 0 
L 794 0 
L 794 531 
z
" transform="scale(0.015625)"/>
        <path id="DejaVuSans-33" d="M 2597 2516 
Q 3050 2419 3304 2112 
Q 3559 1806 3559 1356 
Q 3559 666 3084 287 
Q 2609 -91 1734 -91 
Q 1441 -91 1130 -33 
Q 819 25 488 141 
L 488 750 
Q 750 597 1062 519 
Q 1375 441 1716 441 
Q 2309 441 2620 675 
Q 2931 909 2931 1356 
Q 2931 1769 2642 2001 
Q 2353 2234 1838 2234 
L 1294 2234 
L 1294 2753 
L 1863 2753 
Q 2328 2753 2575 2939 
Q 2822 3125 2822 3475 
Q 2822 3834 2567 4026 
Q 2313 4219 1838 4219 
Q 1578 4219 1281 4162 
Q 984 4106 628 3988 
L 628 4550 
Q 988 4650 1302 4700 
Q 1616 4750 1894 4750 
Q 2613 4750 3031 4423 
Q 3450 4097 3450 3541 
Q 3450 3153 3228 2886 
Q 3006 2619 2597 2516 
z
" transform="scale(0.015625)"/>
       </defs>
       <use xlink:href="#DejaVuSans-43"/>
       <use xlink:href="#DejaVuSans-63" x="69.824219"/>
       <use xlink:href="#DejaVuSans-37" x="124.804688"/>
       <use xlink:href="#DejaVuSans-32" x="188.427734"/>
       <use xlink:href="#DejaVuSans-5f" x="252.050781"/>
       <use xlink:href="#DejaVuSans-30" x="302.050781"/>
       <use xlink:href="#DejaVuSans-30" x="365.673828"/>
       <use xlink:href="#DejaVuSans-30" x="429.296875"/>
       <use xlink:href="#DejaVuSans-31" x="492.919922"/>
       <use xlink:href="#DejaVuSans-33" x="556.542969"/>
       <use xlink:href="#DejaVuSans-38" x="620.166016"/>
       <use xlink:href="#DejaVuSans-33" x="683.789062"/>
       <use xlink:href="#DejaVuSans-36" x="747.412109"/>
       <use xlink:href="#DejaVuSans-2d" x="811.035156"/>
       <use xlink:href="#DejaVuSans-52" x="847.119141"/>
       <use xlink:href="#DejaVuSans-41" x="912.601562"/>
      </g>
     </g>
    </g>
    <g id="ytick_3">
     <g id="line2d_7">
      <g>
       <use xlink:href="#m65a77c3fd3" x="129.6" y="110.16" style="stroke: #000000; stroke-width: 0.8"/>
      </g>
     </g>
     <g id="text_8">
      <!-- Cc72_00034652-RA -->
      <g transform="translate(24.496875 113.870937) scale(0.1 -0.1)">
       <use xlink:href="#DejaVuSans-43"/>
       <use xlink:href="#DejaVuSans-63" x="69.824219"/>
       <use xlink:href="#DejaVuSans-37" x="124.804688"/>
       <use xlink:href="#DejaVuSans-32" x="188.427734"/>
       <use xlink:href="#DejaVuSans-5f" x="252.050781"/>
       <use xlink:href="#DejaVuSans-30" x="302.050781"/>
       <use xlink:href="#DejaVuSans-30" x="365.673828"/>
       <use xlink:href="#DejaVuSans-30" x="429.296875"/>
       <use xlink:href="#DejaVuSans-33" x="492.919922"/>
       <use xlink:href="#DejaVuSans-34" x="556.542969"/>
       <use xlink:href="#DejaVuSans-36" x="620.166016"/>
       <use xlink:href="#DejaVuSans-35" x="683.789062"/>
       <use xlink:href="#DejaVuSans-32" x="747.412109"/>
       <use xlink:href="#DejaVuSans-2d" x="811.035156"/>
       <use xlink:href="#DejaVuSans-52" x="847.119141"/>
       <use xlink:href="#DejaVuSans-41" x="912.601562"/>
      </g>
     </g>
    </g>
    <g id="ytick_4">
     <g id="line2d_8">
      <g>
       <use xlink:href="#m65a77c3fd3" x="129.6" y="131.76" style="stroke: #000000; stroke-width: 0.8"/>
      </g>
     </g>
     <g id="text_9">
      <!-- Cc72_00018292-RA -->
      <g transform="translate(24.496875 135.470937) scale(0.1 -0.1)">
       <use xlink:href="#DejaVuSans-43"/>
       <use xlink:href="#DejaVuSans-63" x="69.824219"/>
       <use xlink:href="#DejaVuSans-37" x="124.804688"/>
       <use xlink:href="#DejaVuSans-32" x="188.427734"/>
       <use xlink:href="#DejaVuSans-5f" x="252.050781"/>
       <use xlink:href="#DejaVuSans-30" x="302.050781"/>
       <use xlink:href="#DejaVuSans-30" x="365.673828"/>
       <use xlink:href="#DejaVuSans-30" x="429.296875"/>
       <use xlink:href="#DejaVuSans-31" x="492.919922"/>
       <use xlink:href="#DejaVuSans-38" x="556.542969"/>
       <use xlink:href="#DejaVuSans-32" x="620.166016"/>
       <use xlink:href="#DejaVuSans-39" x="683.789062"/>
       <use xlink:href="#DejaVuSans-32" x="747.412109"/>
       <use xlink:href="#DejaVuSans-2d" x="811.035156"/>
       <use xlink:href="#DejaVuSans-52" x="847.119141"/>
       <use xlink:href="#DejaVuSans-41" x="912.601562"/>
      </g>
     </g>
    </g>
    <g id="ytick_5">
     <g id="line2d_9">
      <g>
       <use xlink:href="#m65a77c3fd3" x="129.6" y="153.36" style="stroke: #000000; stroke-width: 0.8"/>
      </g>
     </g>
     <g id="text_10">
      <!-- Cc72_00052617-RA -->
      <g transform="translate(24.496875 157.070938) scale(0.1 -0.1)">
       <use xlink:href="#DejaVuSans-43"/>
       <use xlink:href="#DejaVuSans-63" x="69.824219"/>
       <use xlink:href="#DejaVuSans-37" x="124.804688"/>
       <use xlink:href="#DejaVuSans-32" x="188.427734"/>
       <use xlink:href="#DejaVuSans-5f" x="252.050781"/>
       <use xlink:href="#DejaVuSans-30" x="302.050781"/>
       <use xlink:href="#DejaVuSans-30" x="365.673828"/>
       <use xlink:href="#DejaVuSans-30" x="429.296875"/>
       <use xlink:href="#DejaVuSans-35" x="492.919922"/>
       <use xlink:href="#DejaVuSans-32" x="556.542969"/>
       <use xlink:href="#DejaVuSans-36" x="620.166016"/>
       <use xlink:href="#DejaVuSans-31" x="683.789062"/>
       <use xlink:href="#DejaVuSans-37" x="747.412109"/>
       <use xlink:href="#DejaVuSans-2d" x="811.035156"/>
       <use xlink:href="#DejaVuSans-52" x="847.119141"/>
       <use xlink:href="#DejaVuSans-41" x="912.601562"/>
      </g>
     </g>
    </g>
    <g id="ytick_6">
     <g id="line2d_10">
      <g>
       <use xlink:href="#m65a77c3fd3" x="129.6" y="174.96" style="stroke: #000000; stroke-width: 0.8"/>
      </g>
     </g>
     <g id="text_11">
      <!-- Cc72_00027769-RA -->
      <g transform="translate(24.496875 178.670938) scale(0.1 -0.1)">
       <use xlink:href="#DejaVuSans-43"/>
       <use xlink:href="#DejaVuSans-63" x="69.824219"/>
       <use xlink:href="#DejaVuSans-37" x="124.804688"/>
       <use xlink:href="#DejaVuSans-32" x="188.427734"/>
       <use xlink:href="#DejaVuSans-5f" x="252.050781"/>
       <use xlink:href="#DejaVuSans-30" x="302.050781"/>
       <use xlink:href="#DejaVuSans-30" x="365.673828"/>
       <use xlink:href="#DejaVuSans-30" x="429.296875"/>
       <use xlink:href="#DejaVuSans-32" x="492.919922"/>
       <use xlink:href="#DejaVuSans-37" x="556.542969"/>
       <use xlink:href="#DejaVuSans-37" x="620.166016"/>
       <use xlink:href="#DejaVuSans-36" x="683.789062"/>
       <use xlink:href="#DejaVuSans-39" x="747.412109"/>
       <use xlink:href="#DejaVuSans-2d" x="811.035156"/>
       <use xlink:href="#DejaVuSans-52" x="847.119141"/>
       <use xlink:href="#DejaVuSans-41" x="912.601562"/>
      </g>
     </g>
    </g>
    <g id="ytick_7">
     <g id="line2d_11">
      <g>
       <use xlink:href="#m65a77c3fd3" x="129.6" y="196.56" style="stroke: #000000; stroke-width: 0.8"/>
      </g>
     </g>
     <g id="text_12">
      <!-- Cc72_00018299-RA -->
      <g transform="translate(24.496875 200.270938) scale(0.1 -0.1)">
       <use xlink:href="#DejaVuSans-43"/>
       <use xlink:href="#DejaVuSans-63" x="69.824219"/>
       <use xlink:href="#DejaVuSans-37" x="124.804688"/>
       <use xlink:href="#DejaVuSans-32" x="188.427734"/>
       <use xlink:href="#DejaVuSans-5f" x="252.050781"/>
       <use xlink:href="#DejaVuSans-30" x="302.050781"/>
       <use xlink:href="#DejaVuSans-30" x="365.673828"/>
       <use xlink:href="#DejaVuSans-30" x="429.296875"/>
       <use xlink:href="#DejaVuSans-31" x="492.919922"/>
       <use xlink:href="#DejaVuSans-38" x="556.542969"/>
       <use xlink:href="#DejaVuSans-32" x="620.166016"/>
       <use xlink:href="#DejaVuSans-39" x="683.789062"/>
       <use xlink:href="#DejaVuSans-39" x="747.412109"/>
       <use xlink:href="#DejaVuSans-2d" x="811.035156"/>
       <use xlink:href="#DejaVuSans-52" x="847.119141"/>
       <use xlink:href="#DejaVuSans-41" x="912.601562"/>
      </g>
     </g>
    </g>
    <g id="ytick_8">
     <g id="line2d_12">
      <g>
       <use xlink:href="#m65a77c3fd3" x="129.6" y="218.16" style="stroke: #000000; stroke-width: 0.8"/>
      </g>
     </g>
     <g id="text_13">
      <!-- Cc72_00020453-RA -->
      <g transform="translate(24.496875 221.870938) scale(0.1 -0.1)">
       <use xlink:href="#DejaVuSans-43"/>
       <use xlink:href="#DejaVuSans-63" x="69.824219"/>
       <use xlink:href="#DejaVuSans-37" x="124.804688"/>
       <use xlink:href="#DejaVuSans-32" x="188.427734"/>
       <use xlink:href="#DejaVuSans-5f" x="252.050781"/>
       <use xlink:href="#DejaVuSans-30" x="302.050781"/>
       <use xlink:href="#DejaVuSans-30" x="365.673828"/>
       <use xlink:href="#DejaVuSans-30" x="429.296875"/>
       <use xlink:href="#DejaVuSans-32" x="492.919922"/>
       <use xlink:href="#DejaVuSans-30" x="556.542969"/>
       <use xlink:href="#DejaVuSans-34" x="620.166016"/>
       <use xlink:href="#DejaVuSans-35" x="683.789062"/>
       <use xlink:href="#DejaVuSans-33" x="747.412109"/>
       <use xlink:href="#DejaVuSans-2d" x="811.035156"/>
       <use xlink:href="#DejaVuSans-52" x="847.119141"/>
       <use xlink:href="#DejaVuSans-41" x="912.601562"/>
      </g>
     </g>
    </g>
    <g id="ytick_9">
     <g id="line2d_13">
      <g>
       <use xlink:href="#m65a77c3fd3" x="129.6" y="239.76" style="stroke: #000000; stroke-width: 0.8"/>
      </g>
     </g>
     <g id="text_14">
      <!-- Cc72_00051542-RA -->
      <g transform="translate(24.496875 243.470938) scale(0.1 -0.1)">
       <use xlink:href="#DejaVuSans-43"/>
       <use xlink:href="#DejaVuSans-63" x="69.824219"/>
       <use xlink:href="#DejaVuSans-37" x="124.804688"/>
       <use xlink:href="#DejaVuSans-32" x="188.427734"/>
       <use xlink:href="#DejaVuSans-5f" x="252.050781"/>
       <use xlink:href="#DejaVuSans-30" x="302.050781"/>
       <use xlink:href="#DejaVuSans-30" x="365.673828"/>
       <use xlink:href="#DejaVuSans-30" x="429.296875"/>
       <use xlink:href="#DejaVuSans-35" x="492.919922"/>
       <use xlink:href="#DejaVuSans-31" x="556.542969"/>
       <use xlink:href="#DejaVuSans-35" x="620.166016"/>
       <use xlink:href="#DejaVuSans-34" x="683.789062"/>
       <use xlink:href="#DejaVuSans-32" x="747.412109"/>
       <use xlink:href="#DejaVuSans-2d" x="811.035156"/>
       <use xlink:href="#DejaVuSans-52" x="847.119141"/>
       <use xlink:href="#DejaVuSans-41" x="912.601562"/>
      </g>
     </g>
    </g>
    <g id="ytick_10">
     <g id="line2d_14">
      <g>
       <use xlink:href="#m65a77c3fd3" x="129.6" y="261.36" style="stroke: #000000; stroke-width: 0.8"/>
      </g>
     </g>
     <g id="text_15">
      <!-- Cc72_00018070-RA -->
      <g transform="translate(24.496875 265.070938) scale(0.1 -0.1)">
       <use xlink:href="#DejaVuSans-43"/>
       <use xlink:href="#DejaVuSans-63" x="69.824219"/>
       <use xlink:href="#DejaVuSans-37" x="124.804688"/>
       <use xlink:href="#DejaVuSans-32" x="188.427734"/>
       <use xlink:href="#DejaVuSans-5f" x="252.050781"/>
       <use xlink:href="#DejaVuSans-30" x="302.050781"/>
       <use xlink:href="#DejaVuSans-30" x="365.673828"/>
       <use xlink:href="#DejaVuSans-30" x="429.296875"/>
       <use xlink:href="#DejaVuSans-31" x="492.919922"/>
       <use xlink:href="#DejaVuSans-38" x="556.542969"/>
       <use xlink:href="#DejaVuSans-30" x="620.166016"/>
       <use xlink:href="#DejaVuSans-37" x="683.789062"/>
       <use xlink:href="#DejaVuSans-30" x="747.412109"/>
       <use xlink:href="#DejaVuSans-2d" x="811.035156"/>
       <use xlink:href="#DejaVuSans-52" x="847.119141"/>
       <use xlink:href="#DejaVuSans-41" x="912.601562"/>
      </g>
     </g>
    </g>
    <g id="ytick_11">
     <g id="line2d_15">
      <g>
       <use xlink:href="#m65a77c3fd3" x="129.6" y="282.96" style="stroke: #000000; stroke-width: 0.8"/>
      </g>
     </g>
     <g id="text_16">
      <!-- Cc72_00028597-RA -->
      <g transform="translate(24.496875 286.670938) scale(0.1 -0.1)">
       <use xlink:href="#DejaVuSans-43"/>
       <use xlink:href="#DejaVuSans-63" x="69.824219"/>
       <use xlink:href="#DejaVuSans-37" x="124.804688"/>
       <use xlink:href="#DejaVuSans-32" x="188.427734"/>
       <use xlink:href="#DejaVuSans-5f" x="252.050781"/>
       <use xlink:href="#DejaVuSans-30" x="302.050781"/>
       <use xlink:href="#DejaVuSans-30" x="365.673828"/>
       <use xlink:href="#DejaVuSans-30" x="429.296875"/>
       <use xlink:href="#DejaVuSans-32" x="492.919922"/>
       <use xlink:href="#DejaVuSans-38" x="556.542969"/>
       <use xlink:href="#DejaVuSans-35" x="620.166016"/>
       <use xlink:href="#DejaVuSans-39" x="683.789062"/>
       <use xlink:href="#DejaVuSans-37" x="747.412109"/>
       <use xlink:href="#DejaVuSans-2d" x="811.035156"/>
       <use xlink:href="#DejaVuSans-52" x="847.119141"/>
       <use xlink:href="#DejaVuSans-41" x="912.601562"/>
      </g>
     </g>
    </g>
    <g id="ytick_12">
     <g id="line2d_16">
      <g>
       <use xlink:href="#m65a77c3fd3" x="129.6" y="304.56" style="stroke: #000000; stroke-width: 0.8"/>
      </g>
     </g>
     <g id="text_17">
      <!-- Cc72_00040441-RA -->
      <g transform="translate(24.496875 308.270938) scale(0.1 -0.1)">
       <use xlink:href="#DejaVuSans-43"/>
       <use xlink:href="#DejaVuSans-63" x="69.824219"/>
       <use xlink:href="#DejaVuSans-37" x="124.804688"/>
       <use xlink:href="#DejaVuSans-32" x="188.427734"/>
       <use xlink:href="#DejaVuSans-5f" x="252.050781"/>
       <use xlink:href="#DejaVuSans-30" x="302.050781"/>
       <use xlink:href="#DejaVuSans-30" x="365.673828"/>
       <use xlink:href="#DejaVuSans-30" x="429.296875"/>
       <use xlink:href="#DejaVuSans-34" x="492.919922"/>
       <use xlink:href="#DejaVuSans-30" x="556.542969"/>
       <use xlink:href="#DejaVuSans-34" x="620.166016"/>
       <use xlink:href="#DejaVuSans-34" x="683.789062"/>
       <use xlink:href="#DejaVuSans-31" x="747.412109"/>
       <use xlink:href="#DejaVuSans-2d" x="811.035156"/>
       <use xlink:href="#DejaVuSans-52" x="847.119141"/>
       <use xlink:href="#DejaVuSans-41" x="912.601562"/>
      </g>
     </g>
    </g>
    <g id="ytick_13">
     <g id="line2d_17">
      <g>
       <use xlink:href="#m65a77c3fd3" x="129.6" y="326.16" style="stroke: #000000; stroke-width: 0.8"/>
      </g>
     </g>
     <g id="text_18">
      <!-- Cc72_00050839-RA -->
      <g transform="translate(24.496875 329.870938) scale(0.1 -0.1)">
       <use xlink:href="#DejaVuSans-43"/>
       <use xlink:href="#DejaVuSans-63" x="69.824219"/>
       <use xlink:href="#DejaVuSans-37" x="124.804688"/>
       <use xlink:href="#DejaVuSans-32" x="188.427734"/>
       <use xlink:href="#DejaVuSans-5f" x="252.050781"/>
       <use xlink:href="#DejaVuSans-30" x="302.050781"/>
       <use xlink:href="#DejaVuSans-30" x="365.673828"/>
       <use xlink:href="#DejaVuSans-30" x="429.296875"/>
       <use xlink:href="#DejaVuSans-35" x="492.919922"/>
       <use xlink:href="#DejaVuSans-30" x="556.542969"/>
       <use xlink:href="#DejaVuSans-38" x="620.166016"/>
       <use xlink:href="#DejaVuSans-33" x="683.789062"/>
       <use xlink:href="#DejaVuSans-39" x="747.412109"/>
       <use xlink:href="#DejaVuSans-2d" x="811.035156"/>
       <use xlink:href="#DejaVuSans-52" x="847.119141"/>
       <use xlink:href="#DejaVuSans-41" x="912.601562"/>
      </g>
     </g>
    </g>
    <g id="ytick_14">
     <g id="line2d_18">
      <g>
       <use xlink:href="#m65a77c3fd3" x="129.6" y="347.76" style="stroke: #000000; stroke-width: 0.8"/>
      </g>
     </g>
     <g id="text_19">
      <!-- Cc72_00008676-RA -->
      <g transform="translate(24.496875 351.470938) scale(0.1 -0.1)">
       <use xlink:href="#DejaVuSans-43"/>
       <use xlink:href="#DejaVuSans-63" x="69.824219"/>
       <use xlink:href="#DejaVuSans-37" x="124.804688"/>
       <use xlink:href="#DejaVuSans-32" x="188.427734"/>
       <use xlink:href="#DejaVuSans-5f" x="252.050781"/>
       <use xlink:href="#DejaVuSans-30" x="302.050781"/>
       <use xlink:href="#DejaVuSans-30" x="365.673828"/>
       <use xlink:href="#DejaVuSans-30" x="429.296875"/>
       <use xlink:href="#DejaVuSans-30" x="492.919922"/>
       <use xlink:href="#DejaVuSans-38" x="556.542969"/>
       <use xlink:href="#DejaVuSans-36" x="620.166016"/>
       <use xlink:href="#DejaVuSans-37" x="683.789062"/>
       <use xlink:href="#DejaVuSans-36" x="747.412109"/>
       <use xlink:href="#DejaVuSans-2d" x="811.035156"/>
       <use xlink:href="#DejaVuSans-52" x="847.119141"/>
       <use xlink:href="#DejaVuSans-41" x="912.601562"/>
      </g>
     </g>
    </g>
    <g id="ytick_15">
     <g id="line2d_19">
      <g>
       <use xlink:href="#m65a77c3fd3" x="129.6" y="369.36" style="stroke: #000000; stroke-width: 0.8"/>
      </g>
     </g>
     <g id="text_20">
      <!-- Cc72_00056748-RA -->
      <g transform="translate(24.496875 373.070938) scale(0.1 -0.1)">
       <use xlink:href="#DejaVuSans-43"/>
       <use xlink:href="#DejaVuSans-63" x="69.824219"/>
       <use xlink:href="#DejaVuSans-37" x="124.804688"/>
       <use xlink:href="#DejaVuSans-32" x="188.427734"/>
       <use xlink:href="#DejaVuSans-5f" x="252.050781"/>
       <use xlink:href="#DejaVuSans-30" x="302.050781"/>
       <use xlink:href="#DejaVuSans-30" x="365.673828"/>
       <use xlink:href="#DejaVuSans-30" x="429.296875"/>
       <use xlink:href="#DejaVuSans-35" x="492.919922"/>
       <use xlink:href="#DejaVuSans-36" x="556.542969"/>
       <use xlink:href="#DejaVuSans-37" x="620.166016"/>
       <use xlink:href="#DejaVuSans-34" x="683.789062"/>
       <use xlink:href="#DejaVuSans-38" x="747.412109"/>
       <use xlink:href="#DejaVuSans-2d" x="811.035156"/>
       <use xlink:href="#DejaVuSans-52" x="847.119141"/>
       <use xlink:href="#DejaVuSans-41" x="912.601562"/>
      </g>
     </g>
    </g>
    <g id="text_21">
     <!--   -->
     <g transform="translate(18.417187 219.749062) rotate(-90) scale(0.1 -0.1)">
      <defs>
       <path id="DejaVuSans-20" transform="scale(0.015625)"/>
      </defs>
      <use xlink:href="#DejaVuSans-20"/>
     </g>
    </g>
   </g>
   <g id="patch_3">
    <path d="M 129.6 384.48 
L 129.6 51.84 
" style="fill: none; stroke: #000000; stroke-width: 0.8; stroke-linejoin: miter; stroke-linecap: square"/>
   </g>
   <g id="patch_4">
    <path d="M 388.8 384.48 
L 388.8 51.84 
" style="fill: none; stroke: #000000; stroke-width: 0.8; stroke-linejoin: miter; stroke-linecap: square"/>
   </g>
   <g id="patch_5">
    <path d="M 129.6 384.48 
L 388.8 384.48 
" style="fill: none; stroke: #000000; stroke-width: 0.8; stroke-linejoin: miter; stroke-linecap: square"/>
   </g>
   <g id="patch_6">
    <path d="M 129.6 51.84 
L 388.8 51.84 
" style="fill: none; stroke: #000000; stroke-width: 0.8; stroke-linejoin: miter; stroke-linecap: square"/>
   </g>
  </g>
 </g>
 <defs>
  <clipPath id="p53f9f79548">
   <rect x="129.6" y="51.84" width="259.2" height="332.64"/>
  </clipPath>
 </defs>
</svg>
