<?xml version="1.0" encoding="utf-8" standalone="no"?>
<!DOCTYPE svg PUBLIC "-//W3C//DTD SVG 1.1//EN"
  "http://www.w3.org/Graphics/SVG/1.1/DTD/svg11.dtd">
<svg xmlns:xlink="http://www.w3.org/1999/xlink" width="720pt" height="576pt" viewBox="0 0 720 576" xmlns="http://www.w3.org/2000/svg" version="1.1">
 <metadata>
  <rdf:RDF xmlns:dc="http://purl.org/dc/elements/1.1/" xmlns:cc="http://creativecommons.org/ns#" xmlns:rdf="http://www.w3.org/1999/02/22-rdf-syntax-ns#">
   <cc:Work>
    <dc:type rdf:resource="http://purl.org/dc/dcmitype/StillImage"/>
    <dc:date>2023-09-09T11:17:03.437140</dc:date>
    <dc:format>image/svg+xml</dc:format>
    <dc:creator>
     <cc:Agent>
      <dc:title>Matplotlib v3.7.2, https://matplotlib.org/</dc:title>
     </cc:Agent>
    </dc:creator>
   </cc:Work>
  </rdf:RDF>
 </metadata>
 <defs>
  <style type="text/css">*{stroke-linejoin: round; stroke-linecap: butt}</style>
 </defs>
 <g id="figure_1">
  <g id="patch_1">
   <path d="M 0 576 
L 720 576 
L 720 0 
L 0 0 
z
" style="fill: #ffffff"/>
  </g>
  <g id="axes_1">
   <g id="LineCollection_1">
    <path d="M 368.717939 293.477986 
L 138.421488 228.301078 
" clip-path="url(#p59458a1099)" style="fill: none; stroke: #808080; stroke-opacity: 0.7; stroke-width: 0.997441"/>
    <path d="M 368.717939 293.477986 
L 499.727556 362.161136 
" clip-path="url(#p59458a1099)" style="fill: none; stroke: #808080; stroke-opacity: 0.7; stroke-width: 0.995981"/>
    <path d="M 368.717939 293.477986 
L 226.463765 221.826392 
" clip-path="url(#p59458a1099)" style="fill: none; stroke: #808080; stroke-opacity: 0.7; stroke-width: 0.99285"/>
    <path d="M 368.717939 293.477986 
L 221.539559 145.719875 
" clip-path="url(#p59458a1099)" style="fill: none; stroke: #808080; stroke-opacity: 0.7; stroke-width: 0.991774"/>
    <path d="M 368.717939 293.477986 
L 599.578512 274.854222 
" clip-path="url(#p59458a1099)" style="fill: none; stroke: #808080; stroke-opacity: 0.7; stroke-width: 0.989494"/>
    <path d="M 368.717939 293.477986 
L 338.972317 182.137658 
" clip-path="url(#p59458a1099)" style="fill: none; stroke: #808080; stroke-opacity: 0.7; stroke-width: 0.987133"/>
    <path d="M 368.717939 293.477986 
L 333.948495 474.152727 
" clip-path="url(#p59458a1099)" style="fill: none; stroke: #808080; stroke-opacity: 0.7; stroke-width: 0.986865"/>
    <path d="M 368.717939 293.477986 
L 418.078304 124.658963 
" clip-path="url(#p59458a1099)" style="fill: none; stroke: #808080; stroke-opacity: 0.7; stroke-width: 0.986553"/>
    <path d="M 368.717939 293.477986 
L 365.71534 404.735689 
" clip-path="url(#p59458a1099)" style="fill: none; stroke: #808080; stroke-opacity: 0.7; stroke-width: 0.986215"/>
    <path d="M 368.717939 293.477986 
L 568.054914 193.327616 
" clip-path="url(#p59458a1099)" style="fill: none; stroke: #808080; stroke-opacity: 0.7; stroke-width: 0.984355"/>
    <path d="M 368.717939 293.477986 
L 319.938492 107.607273 
" clip-path="url(#p59458a1099)" style="fill: none; stroke: #808080; stroke-opacity: 0.7; stroke-width: 0.983274"/>
    <path d="M 368.717939 293.477986 
L 498.732761 143.074282 
" clip-path="url(#p59458a1099)" style="fill: none; stroke: #808080; stroke-opacity: 0.7; stroke-width: 0.982804"/>
    <path d="M 368.717939 293.477986 
L 593.187202 352.923252 
" clip-path="url(#p59458a1099)" style="fill: none; stroke: #808080; stroke-opacity: 0.7; stroke-width: 0.982794"/>
    <path d="M 368.717939 293.477986 
L 503.613733 247.663038 
" clip-path="url(#p59458a1099)" style="fill: none; stroke: #808080; stroke-opacity: 0.7; stroke-width: 0.981666"/>
    <path d="M 368.717939 293.477986 
L 168.920269 298.176412 
" clip-path="url(#p59458a1099)" style="fill: none; stroke: #808080; stroke-opacity: 0.7; stroke-width: 0.981603"/>
    <path d="M 368.717939 293.477986 
L 227.406639 383.659112 
" clip-path="url(#p59458a1099)" style="fill: none; stroke: #808080; stroke-opacity: 0.7; stroke-width: 0.976927"/>
    <path d="M 368.717939 293.477986 
L 140.301469 363.439414 
" clip-path="url(#p59458a1099)" style="fill: none; stroke: #808080; stroke-opacity: 0.7; stroke-width: 0.975758"/>
    <path d="M 368.717939 293.477986 
L 237.417051 451.669108 
" clip-path="url(#p59458a1099)" style="fill: none; stroke: #808080; stroke-opacity: 0.7; stroke-width: 0.974413"/>
    <path d="M 368.717939 293.477986 
L 438.440838 468.142723 
" clip-path="url(#p59458a1099)" style="fill: none; stroke: #808080; stroke-opacity: 0.7; stroke-width: 0.974259"/>
    <path d="M 368.717939 293.477986 
L 528.084769 433.296498 
" clip-path="url(#p59458a1099)" style="fill: none; stroke: #808080; stroke-opacity: 0.7; stroke-width: 0.973471"/>
   </g>
   <g id="PathCollection_1">
    <defs>
     <path id="C0_0_62008b48b5" d="M 0 8.660254 
C 2.296726 8.660254 4.499694 7.747755 6.123724 6.123724 
C 7.747755 4.499694 8.660254 2.296726 8.660254 -0 
C 8.660254 -2.296726 7.747755 -4.499694 6.123724 -6.123724 
C 4.499694 -7.747755 2.296726 -8.660254 0 -8.660254 
C -2.296726 -8.660254 -4.499694 -7.747755 -6.123724 -6.123724 
C -7.747755 -4.499694 -8.660254 -2.296726 -8.660254 0 
C -8.660254 2.296726 -7.747755 4.499694 -6.123724 6.123724 
C -4.499694 7.747755 -2.296726 8.660254 0 8.660254 
z
"/>
    </defs>
    <g clip-path="url(#p59458a1099)">
     <use xlink:href="#C0_0_62008b48b5" x="368.717939" y="293.477986" style="fill: #ff0000; stroke: #ff0000"/>
    </g>
    <g clip-path="url(#p59458a1099)">
     <use xlink:href="#C0_0_62008b48b5" x="138.421488" y="228.301078" style="fill: #ffe4b5; stroke: #ffe4b5"/>
    </g>
    <g clip-path="url(#p59458a1099)">
     <use xlink:href="#C0_0_62008b48b5" x="499.727556" y="362.161136" style="fill: #ffe4b5; stroke: #ffe4b5"/>
    </g>
    <g clip-path="url(#p59458a1099)">
     <use xlink:href="#C0_0_62008b48b5" x="226.463765" y="221.826392" style="fill: #ffe4b5; stroke: #ffe4b5"/>
    </g>
    <g clip-path="url(#p59458a1099)">
     <use xlink:href="#C0_0_62008b48b5" x="221.539559" y="145.719875" style="fill: #ffe4b5; stroke: #ffe4b5"/>
    </g>
    <g clip-path="url(#p59458a1099)">
     <use xlink:href="#C0_0_62008b48b5" x="599.578512" y="274.854222" style="fill: #ffe4b5; stroke: #ffe4b5"/>
    </g>
    <g clip-path="url(#p59458a1099)">
     <use xlink:href="#C0_0_62008b48b5" x="338.972317" y="182.137658" style="fill: #ffe4b5; stroke: #ffe4b5"/>
    </g>
    <g clip-path="url(#p59458a1099)">
     <use xlink:href="#C0_0_62008b48b5" x="333.948495" y="474.152727" style="fill: #ffe4b5; stroke: #ffe4b5"/>
    </g>
    <g clip-path="url(#p59458a1099)">
     <use xlink:href="#C0_0_62008b48b5" x="418.078304" y="124.658963" style="fill: #ffe4b5; stroke: #ffe4b5"/>
    </g>
    <g clip-path="url(#p59458a1099)">
     <use xlink:href="#C0_0_62008b48b5" x="365.71534" y="404.735689" style="fill: #ffe4b5; stroke: #ffe4b5"/>
    </g>
    <g clip-path="url(#p59458a1099)">
     <use xlink:href="#C0_0_62008b48b5" x="568.054914" y="193.327616" style="fill: #ffe4b5; stroke: #ffe4b5"/>
    </g>
    <g clip-path="url(#p59458a1099)">
     <use xlink:href="#C0_0_62008b48b5" x="319.938492" y="107.607273" style="fill: #ffe4b5; stroke: #ffe4b5"/>
    </g>
    <g clip-path="url(#p59458a1099)">
     <use xlink:href="#C0_0_62008b48b5" x="498.732761" y="143.074282" style="fill: #ffe4b5; stroke: #ffe4b5"/>
    </g>
    <g clip-path="url(#p59458a1099)">
     <use xlink:href="#C0_0_62008b48b5" x="593.187202" y="352.923252" style="fill: #ffe4b5; stroke: #ffe4b5"/>
    </g>
    <g clip-path="url(#p59458a1099)">
     <use xlink:href="#C0_0_62008b48b5" x="503.613733" y="247.663038" style="fill: #ffe4b5; stroke: #ffe4b5"/>
    </g>
    <g clip-path="url(#p59458a1099)">
     <use xlink:href="#C0_0_62008b48b5" x="168.920269" y="298.176412" style="fill: #ffe4b5; stroke: #ffe4b5"/>
    </g>
    <g clip-path="url(#p59458a1099)">
     <use xlink:href="#C0_0_62008b48b5" x="227.406639" y="383.659112" style="fill: #ffe4b5; stroke: #ffe4b5"/>
    </g>
    <g clip-path="url(#p59458a1099)">
     <use xlink:href="#C0_0_62008b48b5" x="140.301469" y="363.439414" style="fill: #ffe4b5; stroke: #ffe4b5"/>
    </g>
    <g clip-path="url(#p59458a1099)">
     <use xlink:href="#C0_0_62008b48b5" x="237.417051" y="451.669108" style="fill: #ffe4b5; stroke: #ffe4b5"/>
    </g>
    <g clip-path="url(#p59458a1099)">
     <use xlink:href="#C0_0_62008b48b5" x="438.440838" y="468.142723" style="fill: #ffe4b5; stroke: #ffe4b5"/>
    </g>
    <g clip-path="url(#p59458a1099)">
     <use xlink:href="#C0_0_62008b48b5" x="528.084769" y="433.296498" style="fill: #ffe4b5; stroke: #ffe4b5"/>
    </g>
   </g>
   <g id="text_1">
    <g clip-path="url(#p59458a1099)">
     <!-- Capsaicin -->
     <g transform="translate(349.442314 295.685486) scale(0.08 -0.08)">
      <defs>
       <path id="DejaVuSans-43" d="M 4122 4306 
L 4122 3641 
Q 3803 3938 3442 4084 
Q 3081 4231 2675 4231 
Q 1875 4231 1450 3742 
Q 1025 3253 1025 2328 
Q 1025 1406 1450 917 
Q 1875 428 2675 428 
Q 3081 428 3442 575 
Q 3803 722 4122 1019 
L 4122 359 
Q 3791 134 3420 21 
Q 3050 -91 2638 -91 
Q 1578 -91 968 557 
Q 359 1206 359 2328 
Q 359 3453 968 4101 
Q 1578 4750 2638 4750 
Q 3056 4750 3426 4639 
Q 3797 4528 4122 4306 
z
" transform="scale(0.015625)"/>
       <path id="DejaVuSans-61" d="M 2194 1759 
Q 1497 1759 1228 1600 
Q 959 1441 959 1056 
Q 959 750 1161 570 
Q 1363 391 1709 391 
Q 2188 391 2477 730 
Q 2766 1069 2766 1631 
L 2766 1759 
L 2194 1759 
z
M 3341 1997 
L 3341 0 
L 2766 0 
L 2766 531 
Q 2569 213 2275 61 
Q 1981 -91 1556 -91 
Q 1019 -91 701 211 
Q 384 513 384 1019 
Q 384 1609 779 1909 
Q 1175 2209 1959 2209 
L 2766 2209 
L 2766 2266 
Q 2766 2663 2505 2880 
Q 2244 3097 1772 3097 
Q 1472 3097 1187 3025 
Q 903 2953 641 2809 
L 641 3341 
Q 956 3463 1253 3523 
Q 1550 3584 1831 3584 
Q 2591 3584 2966 3190 
Q 3341 2797 3341 1997 
z
" transform="scale(0.015625)"/>
       <path id="DejaVuSans-70" d="M 1159 525 
L 1159 -1331 
L 581 -1331 
L 581 3500 
L 1159 3500 
L 1159 2969 
Q 1341 3281 1617 3432 
Q 1894 3584 2278 3584 
Q 2916 3584 3314 3078 
Q 3713 2572 3713 1747 
Q 3713 922 3314 415 
Q 2916 -91 2278 -91 
Q 1894 -91 1617 61 
Q 1341 213 1159 525 
z
M 3116 1747 
Q 3116 2381 2855 2742 
Q 2594 3103 2138 3103 
Q 1681 3103 1420 2742 
Q 1159 2381 1159 1747 
Q 1159 1113 1420 752 
Q 1681 391 2138 391 
Q 2594 391 2855 752 
Q 3116 1113 3116 1747 
z
" transform="scale(0.015625)"/>
       <path id="DejaVuSans-73" d="M 2834 3397 
L 2834 2853 
Q 2591 2978 2328 3040 
Q 2066 3103 1784 3103 
Q 1356 3103 1142 2972 
Q 928 2841 928 2578 
Q 928 2378 1081 2264 
Q 1234 2150 1697 2047 
L 1894 2003 
Q 2506 1872 2764 1633 
Q 3022 1394 3022 966 
Q 3022 478 2636 193 
Q 2250 -91 1575 -91 
Q 1294 -91 989 -36 
Q 684 19 347 128 
L 347 722 
Q 666 556 975 473 
Q 1284 391 1588 391 
Q 1994 391 2212 530 
Q 2431 669 2431 922 
Q 2431 1156 2273 1281 
Q 2116 1406 1581 1522 
L 1381 1569 
Q 847 1681 609 1914 
Q 372 2147 372 2553 
Q 372 3047 722 3315 
Q 1072 3584 1716 3584 
Q 2034 3584 2315 3537 
Q 2597 3491 2834 3397 
z
" transform="scale(0.015625)"/>
       <path id="DejaVuSans-69" d="M 603 3500 
L 1178 3500 
L 1178 0 
L 603 0 
L 603 3500 
z
M 603 4863 
L 1178 4863 
L 1178 4134 
L 603 4134 
L 603 4863 
z
" transform="scale(0.015625)"/>
       <path id="DejaVuSans-63" d="M 3122 3366 
L 3122 2828 
Q 2878 2963 2633 3030 
Q 2388 3097 2138 3097 
Q 1578 3097 1268 2742 
Q 959 2388 959 1747 
Q 959 1106 1268 751 
Q 1578 397 2138 397 
Q 2388 397 2633 464 
Q 2878 531 3122 666 
L 3122 134 
Q 2881 22 2623 -34 
Q 2366 -91 2075 -91 
Q 1284 -91 818 406 
Q 353 903 353 1747 
Q 353 2603 823 3093 
Q 1294 3584 2113 3584 
Q 2378 3584 2631 3529 
Q 2884 3475 3122 3366 
z
" transform="scale(0.015625)"/>
       <path id="DejaVuSans-6e" d="M 3513 2113 
L 3513 0 
L 2938 0 
L 2938 2094 
Q 2938 2591 2744 2837 
Q 2550 3084 2163 3084 
Q 1697 3084 1428 2787 
Q 1159 2491 1159 1978 
L 1159 0 
L 581 0 
L 581 3500 
L 1159 3500 
L 1159 2956 
Q 1366 3272 1645 3428 
Q 1925 3584 2291 3584 
Q 2894 3584 3203 3211 
Q 3513 2838 3513 2113 
z
" transform="scale(0.015625)"/>
      </defs>
      <use xlink:href="#DejaVuSans-43"/>
      <use xlink:href="#DejaVuSans-61" x="69.824219"/>
      <use xlink:href="#DejaVuSans-70" x="131.103516"/>
      <use xlink:href="#DejaVuSans-73" x="194.580078"/>
      <use xlink:href="#DejaVuSans-61" x="246.679688"/>
      <use xlink:href="#DejaVuSans-69" x="307.958984"/>
      <use xlink:href="#DejaVuSans-63" x="335.742188"/>
      <use xlink:href="#DejaVuSans-69" x="390.722656"/>
      <use xlink:href="#DejaVuSans-6e" x="418.505859"/>
     </g>
    </g>
   </g>
   <g id="text_2">
    <g clip-path="url(#p59458a1099)">
     <!-- α-Pinene-2-oxide -->
     <g transform="translate(104.607738 230.508578) scale(0.08 -0.08)">
      <defs>
       <path id="DejaVuSans-3b1" d="M 2644 1628 
L 2506 2350 
Q 2366 3091 1809 3091 
Q 1391 3091 1200 2747 
Q 959 2316 959 1747 
Q 959 1059 1194 731 
Q 1431 397 1809 397 
Q 2228 397 2453 1063 
L 2644 1628 
z
M 2966 2584 
L 3275 3500 
L 3788 3500 
L 3147 1603 
L 3272 919 
Q 3300 766 3409 638 
Q 3538 488 3638 488 
L 3913 488 
L 3913 0 
L 3569 0 
Q 3275 0 3013 263 
Q 2884 394 2831 669 
Q 2688 322 2394 50 
Q 2256 -78 1809 -78 
Q 1075 -78 719 397 
Q 353 888 353 1747 
Q 353 2666 750 3097 
Q 1191 3578 1809 3578 
Q 2781 3578 2966 2584 
z
" transform="scale(0.015625)"/>
       <path id="DejaVuSans-2d" d="M 313 2009 
L 1997 2009 
L 1997 1497 
L 313 1497 
L 313 2009 
z
" transform="scale(0.015625)"/>
       <path id="DejaVuSans-50" d="M 1259 4147 
L 1259 2394 
L 2053 2394 
Q 2494 2394 2734 2622 
Q 2975 2850 2975 3272 
Q 2975 3691 2734 3919 
Q 2494 4147 2053 4147 
L 1259 4147 
z
M 628 4666 
L 2053 4666 
Q 2838 4666 3239 4311 
Q 3641 3956 3641 3272 
Q 3641 2581 3239 2228 
Q 2838 1875 2053 1875 
L 1259 1875 
L 1259 0 
L 628 0 
L 628 4666 
z
" transform="scale(0.015625)"/>
       <path id="DejaVuSans-65" d="M 3597 1894 
L 3597 1613 
L 953 1613 
Q 991 1019 1311 708 
Q 1631 397 2203 397 
Q 2534 397 2845 478 
Q 3156 559 3463 722 
L 3463 178 
Q 3153 47 2828 -22 
Q 2503 -91 2169 -91 
Q 1331 -91 842 396 
Q 353 884 353 1716 
Q 353 2575 817 3079 
Q 1281 3584 2069 3584 
Q 2775 3584 3186 3129 
Q 3597 2675 3597 1894 
z
M 3022 2063 
Q 3016 2534 2758 2815 
Q 2500 3097 2075 3097 
Q 1594 3097 1305 2825 
Q 1016 2553 972 2059 
L 3022 2063 
z
" transform="scale(0.015625)"/>
       <path id="DejaVuSans-32" d="M 1228 531 
L 3431 531 
L 3431 0 
L 469 0 
L 469 531 
Q 828 903 1448 1529 
Q 2069 2156 2228 2338 
Q 2531 2678 2651 2914 
Q 2772 3150 2772 3378 
Q 2772 3750 2511 3984 
Q 2250 4219 1831 4219 
Q 1534 4219 1204 4116 
Q 875 4013 500 3803 
L 500 4441 
Q 881 4594 1212 4672 
Q 1544 4750 1819 4750 
Q 2544 4750 2975 4387 
Q 3406 4025 3406 3419 
Q 3406 3131 3298 2873 
Q 3191 2616 2906 2266 
Q 2828 2175 2409 1742 
Q 1991 1309 1228 531 
z
" transform="scale(0.015625)"/>
       <path id="DejaVuSans-6f" d="M 1959 3097 
Q 1497 3097 1228 2736 
Q 959 2375 959 1747 
Q 959 1119 1226 758 
Q 1494 397 1959 397 
Q 2419 397 2687 759 
Q 2956 1122 2956 1747 
Q 2956 2369 2687 2733 
Q 2419 3097 1959 3097 
z
M 1959 3584 
Q 2709 3584 3137 3096 
Q 3566 2609 3566 1747 
Q 3566 888 3137 398 
Q 2709 -91 1959 -91 
Q 1206 -91 779 398 
Q 353 888 353 1747 
Q 353 2609 779 3096 
Q 1206 3584 1959 3584 
z
" transform="scale(0.015625)"/>
       <path id="DejaVuSans-78" d="M 3513 3500 
L 2247 1797 
L 3578 0 
L 2900 0 
L 1881 1375 
L 863 0 
L 184 0 
L 1544 1831 
L 300 3500 
L 978 3500 
L 1906 2253 
L 2834 3500 
L 3513 3500 
z
" transform="scale(0.015625)"/>
       <path id="DejaVuSans-64" d="M 2906 2969 
L 2906 4863 
L 3481 4863 
L 3481 0 
L 2906 0 
L 2906 525 
Q 2725 213 2448 61 
Q 2172 -91 1784 -91 
Q 1150 -91 751 415 
Q 353 922 353 1747 
Q 353 2572 751 3078 
Q 1150 3584 1784 3584 
Q 2172 3584 2448 3432 
Q 2725 3281 2906 2969 
z
M 947 1747 
Q 947 1113 1208 752 
Q 1469 391 1925 391 
Q 2381 391 2643 752 
Q 2906 1113 2906 1747 
Q 2906 2381 2643 2742 
Q 2381 3103 1925 3103 
Q 1469 3103 1208 2742 
Q 947 2381 947 1747 
z
" transform="scale(0.015625)"/>
      </defs>
      <use xlink:href="#DejaVuSans-3b1"/>
      <use xlink:href="#DejaVuSans-2d" x="65.917969"/>
      <use xlink:href="#DejaVuSans-50" x="102.001953"/>
      <use xlink:href="#DejaVuSans-69" x="160.054688"/>
      <use xlink:href="#DejaVuSans-6e" x="187.837891"/>
      <use xlink:href="#DejaVuSans-65" x="251.216797"/>
      <use xlink:href="#DejaVuSans-6e" x="312.740234"/>
      <use xlink:href="#DejaVuSans-65" x="376.119141"/>
      <use xlink:href="#DejaVuSans-2d" x="437.642578"/>
      <use xlink:href="#DejaVuSans-32" x="473.726562"/>
      <use xlink:href="#DejaVuSans-2d" x="537.349609"/>
      <use xlink:href="#DejaVuSans-6f" x="575.308594"/>
      <use xlink:href="#DejaVuSans-78" x="633.365234"/>
      <use xlink:href="#DejaVuSans-69" x="692.544922"/>
      <use xlink:href="#DejaVuSans-64" x="720.328125"/>
      <use xlink:href="#DejaVuSans-65" x="783.804688"/>
     </g>
    </g>
   </g>
   <g id="text_3">
    <g clip-path="url(#p59458a1099)">
     <!-- Dihydrocapsaicin -->
     <g transform="translate(465.410681 364.368636) scale(0.08 -0.08)">
      <defs>
       <path id="DejaVuSans-44" d="M 1259 4147 
L 1259 519 
L 2022 519 
Q 2988 519 3436 956 
Q 3884 1394 3884 2338 
Q 3884 3275 3436 3711 
Q 2988 4147 2022 4147 
L 1259 4147 
z
M 628 4666 
L 1925 4666 
Q 3281 4666 3915 4102 
Q 4550 3538 4550 2338 
Q 4550 1131 3912 565 
Q 3275 0 1925 0 
L 628 0 
L 628 4666 
z
" transform="scale(0.015625)"/>
       <path id="DejaVuSans-68" d="M 3513 2113 
L 3513 0 
L 2938 0 
L 2938 2094 
Q 2938 2591 2744 2837 
Q 2550 3084 2163 3084 
Q 1697 3084 1428 2787 
Q 1159 2491 1159 1978 
L 1159 0 
L 581 0 
L 581 4863 
L 1159 4863 
L 1159 2956 
Q 1366 3272 1645 3428 
Q 1925 3584 2291 3584 
Q 2894 3584 3203 3211 
Q 3513 2838 3513 2113 
z
" transform="scale(0.015625)"/>
       <path id="DejaVuSans-79" d="M 2059 -325 
Q 1816 -950 1584 -1140 
Q 1353 -1331 966 -1331 
L 506 -1331 
L 506 -850 
L 844 -850 
Q 1081 -850 1212 -737 
Q 1344 -625 1503 -206 
L 1606 56 
L 191 3500 
L 800 3500 
L 1894 763 
L 2988 3500 
L 3597 3500 
L 2059 -325 
z
" transform="scale(0.015625)"/>
       <path id="DejaVuSans-72" d="M 2631 2963 
Q 2534 3019 2420 3045 
Q 2306 3072 2169 3072 
Q 1681 3072 1420 2755 
Q 1159 2438 1159 1844 
L 1159 0 
L 581 0 
L 581 3500 
L 1159 3500 
L 1159 2956 
Q 1341 3275 1631 3429 
Q 1922 3584 2338 3584 
Q 2397 3584 2469 3576 
Q 2541 3569 2628 3553 
L 2631 2963 
z
" transform="scale(0.015625)"/>
      </defs>
      <use xlink:href="#DejaVuSans-44"/>
      <use xlink:href="#DejaVuSans-69" x="77.001953"/>
      <use xlink:href="#DejaVuSans-68" x="104.785156"/>
      <use xlink:href="#DejaVuSans-79" x="168.164062"/>
      <use xlink:href="#DejaVuSans-64" x="227.34375"/>
      <use xlink:href="#DejaVuSans-72" x="290.820312"/>
      <use xlink:href="#DejaVuSans-6f" x="329.683594"/>
      <use xlink:href="#DejaVuSans-63" x="390.865234"/>
      <use xlink:href="#DejaVuSans-61" x="445.845703"/>
      <use xlink:href="#DejaVuSans-70" x="507.125"/>
      <use xlink:href="#DejaVuSans-73" x="570.601562"/>
      <use xlink:href="#DejaVuSans-61" x="622.701172"/>
      <use xlink:href="#DejaVuSans-69" x="683.980469"/>
      <use xlink:href="#DejaVuSans-63" x="711.763672"/>
      <use xlink:href="#DejaVuSans-69" x="766.744141"/>
      <use xlink:href="#DejaVuSans-6e" x="794.527344"/>
     </g>
    </g>
   </g>
   <g id="text_4">
    <g clip-path="url(#p59458a1099)">
     <!-- 7,7-dimethyl-3-spiro(4,4,-dimethyl-2,6-dioxocyclohexyl)-1,2,3,4,5,6,7,8-octahydro-5-quinolinone -->
     <g transform="translate(33.901265 224.033892) scale(0.08 -0.08)">
      <defs>
       <path id="DejaVuSans-37" d="M 525 4666 
L 3525 4666 
L 3525 4397 
L 1831 0 
L 1172 0 
L 2766 4134 
L 525 4134 
L 525 4666 
z
" transform="scale(0.015625)"/>
       <path id="DejaVuSans-2c" d="M 750 794 
L 1409 794 
L 1409 256 
L 897 -744 
L 494 -744 
L 750 256 
L 750 794 
z
" transform="scale(0.015625)"/>
       <path id="DejaVuSans-6d" d="M 3328 2828 
Q 3544 3216 3844 3400 
Q 4144 3584 4550 3584 
Q 5097 3584 5394 3201 
Q 5691 2819 5691 2113 
L 5691 0 
L 5113 0 
L 5113 2094 
Q 5113 2597 4934 2840 
Q 4756 3084 4391 3084 
Q 3944 3084 3684 2787 
Q 3425 2491 3425 1978 
L 3425 0 
L 2847 0 
L 2847 2094 
Q 2847 2600 2669 2842 
Q 2491 3084 2119 3084 
Q 1678 3084 1418 2786 
Q 1159 2488 1159 1978 
L 1159 0 
L 581 0 
L 581 3500 
L 1159 3500 
L 1159 2956 
Q 1356 3278 1631 3431 
Q 1906 3584 2284 3584 
Q 2666 3584 2933 3390 
Q 3200 3197 3328 2828 
z
" transform="scale(0.015625)"/>
       <path id="DejaVuSans-74" d="M 1172 4494 
L 1172 3500 
L 2356 3500 
L 2356 3053 
L 1172 3053 
L 1172 1153 
Q 1172 725 1289 603 
Q 1406 481 1766 481 
L 2356 481 
L 2356 0 
L 1766 0 
Q 1100 0 847 248 
Q 594 497 594 1153 
L 594 3053 
L 172 3053 
L 172 3500 
L 594 3500 
L 594 4494 
L 1172 4494 
z
" transform="scale(0.015625)"/>
       <path id="DejaVuSans-6c" d="M 603 4863 
L 1178 4863 
L 1178 0 
L 603 0 
L 603 4863 
z
" transform="scale(0.015625)"/>
       <path id="DejaVuSans-33" d="M 2597 2516 
Q 3050 2419 3304 2112 
Q 3559 1806 3559 1356 
Q 3559 666 3084 287 
Q 2609 -91 1734 -91 
Q 1441 -91 1130 -33 
Q 819 25 488 141 
L 488 750 
Q 750 597 1062 519 
Q 1375 441 1716 441 
Q 2309 441 2620 675 
Q 2931 909 2931 1356 
Q 2931 1769 2642 2001 
Q 2353 2234 1838 2234 
L 1294 2234 
L 1294 2753 
L 1863 2753 
Q 2328 2753 2575 2939 
Q 2822 3125 2822 3475 
Q 2822 3834 2567 4026 
Q 2313 4219 1838 4219 
Q 1578 4219 1281 4162 
Q 984 4106 628 3988 
L 628 4550 
Q 988 4650 1302 4700 
Q 1616 4750 1894 4750 
Q 2613 4750 3031 4423 
Q 3450 4097 3450 3541 
Q 3450 3153 3228 2886 
Q 3006 2619 2597 2516 
z
" transform="scale(0.015625)"/>
       <path id="DejaVuSans-28" d="M 1984 4856 
Q 1566 4138 1362 3434 
Q 1159 2731 1159 2009 
Q 1159 1288 1364 580 
Q 1569 -128 1984 -844 
L 1484 -844 
Q 1016 -109 783 600 
Q 550 1309 550 2009 
Q 550 2706 781 3412 
Q 1013 4119 1484 4856 
L 1984 4856 
z
" transform="scale(0.015625)"/>
       <path id="DejaVuSans-34" d="M 2419 4116 
L 825 1625 
L 2419 1625 
L 2419 4116 
z
M 2253 4666 
L 3047 4666 
L 3047 1625 
L 3713 1625 
L 3713 1100 
L 3047 1100 
L 3047 0 
L 2419 0 
L 2419 1100 
L 313 1100 
L 313 1709 
L 2253 4666 
z
" transform="scale(0.015625)"/>
       <path id="DejaVuSans-36" d="M 2113 2584 
Q 1688 2584 1439 2293 
Q 1191 2003 1191 1497 
Q 1191 994 1439 701 
Q 1688 409 2113 409 
Q 2538 409 2786 701 
Q 3034 994 3034 1497 
Q 3034 2003 2786 2293 
Q 2538 2584 2113 2584 
z
M 3366 4563 
L 3366 3988 
Q 3128 4100 2886 4159 
Q 2644 4219 2406 4219 
Q 1781 4219 1451 3797 
Q 1122 3375 1075 2522 
Q 1259 2794 1537 2939 
Q 1816 3084 2150 3084 
Q 2853 3084 3261 2657 
Q 3669 2231 3669 1497 
Q 3669 778 3244 343 
Q 2819 -91 2113 -91 
Q 1303 -91 875 529 
Q 447 1150 447 2328 
Q 447 3434 972 4092 
Q 1497 4750 2381 4750 
Q 2619 4750 2861 4703 
Q 3103 4656 3366 4563 
z
" transform="scale(0.015625)"/>
       <path id="DejaVuSans-29" d="M 513 4856 
L 1013 4856 
Q 1481 4119 1714 3412 
Q 1947 2706 1947 2009 
Q 1947 1309 1714 600 
Q 1481 -109 1013 -844 
L 513 -844 
Q 928 -128 1133 580 
Q 1338 1288 1338 2009 
Q 1338 2731 1133 3434 
Q 928 4138 513 4856 
z
" transform="scale(0.015625)"/>
       <path id="DejaVuSans-31" d="M 794 531 
L 1825 531 
L 1825 4091 
L 703 3866 
L 703 4441 
L 1819 4666 
L 2450 4666 
L 2450 531 
L 3481 531 
L 3481 0 
L 794 0 
L 794 531 
z
" transform="scale(0.015625)"/>
       <path id="DejaVuSans-35" d="M 691 4666 
L 3169 4666 
L 3169 4134 
L 1269 4134 
L 1269 2991 
Q 1406 3038 1543 3061 
Q 1681 3084 1819 3084 
Q 2600 3084 3056 2656 
Q 3513 2228 3513 1497 
Q 3513 744 3044 326 
Q 2575 -91 1722 -91 
Q 1428 -91 1123 -41 
Q 819 9 494 109 
L 494 744 
Q 775 591 1075 516 
Q 1375 441 1709 441 
Q 2250 441 2565 725 
Q 2881 1009 2881 1497 
Q 2881 1984 2565 2268 
Q 2250 2553 1709 2553 
Q 1456 2553 1204 2497 
Q 953 2441 691 2322 
L 691 4666 
z
" transform="scale(0.015625)"/>
       <path id="DejaVuSans-38" d="M 2034 2216 
Q 1584 2216 1326 1975 
Q 1069 1734 1069 1313 
Q 1069 891 1326 650 
Q 1584 409 2034 409 
Q 2484 409 2743 651 
Q 3003 894 3003 1313 
Q 3003 1734 2745 1975 
Q 2488 2216 2034 2216 
z
M 1403 2484 
Q 997 2584 770 2862 
Q 544 3141 544 3541 
Q 544 4100 942 4425 
Q 1341 4750 2034 4750 
Q 2731 4750 3128 4425 
Q 3525 4100 3525 3541 
Q 3525 3141 3298 2862 
Q 3072 2584 2669 2484 
Q 3125 2378 3379 2068 
Q 3634 1759 3634 1313 
Q 3634 634 3220 271 
Q 2806 -91 2034 -91 
Q 1263 -91 848 271 
Q 434 634 434 1313 
Q 434 1759 690 2068 
Q 947 2378 1403 2484 
z
M 1172 3481 
Q 1172 3119 1398 2916 
Q 1625 2713 2034 2713 
Q 2441 2713 2670 2916 
Q 2900 3119 2900 3481 
Q 2900 3844 2670 4047 
Q 2441 4250 2034 4250 
Q 1625 4250 1398 4047 
Q 1172 3844 1172 3481 
z
" transform="scale(0.015625)"/>
       <path id="DejaVuSans-71" d="M 947 1747 
Q 947 1113 1208 752 
Q 1469 391 1925 391 
Q 2381 391 2643 752 
Q 2906 1113 2906 1747 
Q 2906 2381 2643 2742 
Q 2381 3103 1925 3103 
Q 1469 3103 1208 2742 
Q 947 2381 947 1747 
z
M 2906 525 
Q 2725 213 2448 61 
Q 2172 -91 1784 -91 
Q 1150 -91 751 415 
Q 353 922 353 1747 
Q 353 2572 751 3078 
Q 1150 3584 1784 3584 
Q 2172 3584 2448 3432 
Q 2725 3281 2906 2969 
L 2906 3500 
L 3481 3500 
L 3481 -1331 
L 2906 -1331 
L 2906 525 
z
" transform="scale(0.015625)"/>
       <path id="DejaVuSans-75" d="M 544 1381 
L 544 3500 
L 1119 3500 
L 1119 1403 
Q 1119 906 1312 657 
Q 1506 409 1894 409 
Q 2359 409 2629 706 
Q 2900 1003 2900 1516 
L 2900 3500 
L 3475 3500 
L 3475 0 
L 2900 0 
L 2900 538 
Q 2691 219 2414 64 
Q 2138 -91 1772 -91 
Q 1169 -91 856 284 
Q 544 659 544 1381 
z
M 1991 3584 
L 1991 3584 
z
" transform="scale(0.015625)"/>
      </defs>
      <use xlink:href="#DejaVuSans-37"/>
      <use xlink:href="#DejaVuSans-2c" x="63.623047"/>
      <use xlink:href="#DejaVuSans-37" x="95.410156"/>
      <use xlink:href="#DejaVuSans-2d" x="159.033203"/>
      <use xlink:href="#DejaVuSans-64" x="195.117188"/>
      <use xlink:href="#DejaVuSans-69" x="258.59375"/>
      <use xlink:href="#DejaVuSans-6d" x="286.376953"/>
      <use xlink:href="#DejaVuSans-65" x="383.789062"/>
      <use xlink:href="#DejaVuSans-74" x="445.3125"/>
      <use xlink:href="#DejaVuSans-68" x="484.521484"/>
      <use xlink:href="#DejaVuSans-79" x="547.900391"/>
      <use xlink:href="#DejaVuSans-6c" x="607.080078"/>
      <use xlink:href="#DejaVuSans-2d" x="634.863281"/>
      <use xlink:href="#DejaVuSans-33" x="670.947266"/>
      <use xlink:href="#DejaVuSans-2d" x="734.570312"/>
      <use xlink:href="#DejaVuSans-73" x="770.654297"/>
      <use xlink:href="#DejaVuSans-70" x="822.753906"/>
      <use xlink:href="#DejaVuSans-69" x="886.230469"/>
      <use xlink:href="#DejaVuSans-72" x="914.013672"/>
      <use xlink:href="#DejaVuSans-6f" x="952.876953"/>
      <use xlink:href="#DejaVuSans-28" x="1014.058594"/>
      <use xlink:href="#DejaVuSans-34" x="1053.072266"/>
      <use xlink:href="#DejaVuSans-2c" x="1116.695312"/>
      <use xlink:href="#DejaVuSans-34" x="1148.482422"/>
      <use xlink:href="#DejaVuSans-2c" x="1212.105469"/>
      <use xlink:href="#DejaVuSans-2d" x="1243.892578"/>
      <use xlink:href="#DejaVuSans-64" x="1279.976562"/>
      <use xlink:href="#DejaVuSans-69" x="1343.453125"/>
      <use xlink:href="#DejaVuSans-6d" x="1371.236328"/>
      <use xlink:href="#DejaVuSans-65" x="1468.648438"/>
      <use xlink:href="#DejaVuSans-74" x="1530.171875"/>
      <use xlink:href="#DejaVuSans-68" x="1569.380859"/>
      <use xlink:href="#DejaVuSans-79" x="1632.759766"/>
      <use xlink:href="#DejaVuSans-6c" x="1691.939453"/>
      <use xlink:href="#DejaVuSans-2d" x="1719.722656"/>
      <use xlink:href="#DejaVuSans-32" x="1755.806641"/>
      <use xlink:href="#DejaVuSans-2c" x="1819.429688"/>
      <use xlink:href="#DejaVuSans-36" x="1851.216797"/>
      <use xlink:href="#DejaVuSans-2d" x="1914.839844"/>
      <use xlink:href="#DejaVuSans-64" x="1950.923828"/>
      <use xlink:href="#DejaVuSans-69" x="2014.400391"/>
      <use xlink:href="#DejaVuSans-6f" x="2042.183594"/>
      <use xlink:href="#DejaVuSans-78" x="2100.240234"/>
      <use xlink:href="#DejaVuSans-6f" x="2156.294922"/>
      <use xlink:href="#DejaVuSans-63" x="2217.476562"/>
      <use xlink:href="#DejaVuSans-79" x="2272.457031"/>
      <use xlink:href="#DejaVuSans-63" x="2331.636719"/>
      <use xlink:href="#DejaVuSans-6c" x="2386.617188"/>
      <use xlink:href="#DejaVuSans-6f" x="2414.400391"/>
      <use xlink:href="#DejaVuSans-68" x="2475.582031"/>
      <use xlink:href="#DejaVuSans-65" x="2538.960938"/>
      <use xlink:href="#DejaVuSans-78" x="2598.734375"/>
      <use xlink:href="#DejaVuSans-79" x="2657.914062"/>
      <use xlink:href="#DejaVuSans-6c" x="2717.09375"/>
      <use xlink:href="#DejaVuSans-29" x="2744.876953"/>
      <use xlink:href="#DejaVuSans-2d" x="2783.890625"/>
      <use xlink:href="#DejaVuSans-31" x="2819.974609"/>
      <use xlink:href="#DejaVuSans-2c" x="2883.597656"/>
      <use xlink:href="#DejaVuSans-32" x="2915.384766"/>
      <use xlink:href="#DejaVuSans-2c" x="2979.007812"/>
      <use xlink:href="#DejaVuSans-33" x="3010.794922"/>
      <use xlink:href="#DejaVuSans-2c" x="3074.417969"/>
      <use xlink:href="#DejaVuSans-34" x="3106.205078"/>
      <use xlink:href="#DejaVuSans-2c" x="3169.828125"/>
      <use xlink:href="#DejaVuSans-35" x="3201.615234"/>
      <use xlink:href="#DejaVuSans-2c" x="3265.238281"/>
      <use xlink:href="#DejaVuSans-36" x="3297.025391"/>
      <use xlink:href="#DejaVuSans-2c" x="3360.648438"/>
      <use xlink:href="#DejaVuSans-37" x="3392.435547"/>
      <use xlink:href="#DejaVuSans-2c" x="3456.058594"/>
      <use xlink:href="#DejaVuSans-38" x="3487.845703"/>
      <use xlink:href="#DejaVuSans-2d" x="3551.46875"/>
      <use xlink:href="#DejaVuSans-6f" x="3589.427734"/>
      <use xlink:href="#DejaVuSans-63" x="3650.609375"/>
      <use xlink:href="#DejaVuSans-74" x="3705.589844"/>
      <use xlink:href="#DejaVuSans-61" x="3744.798828"/>
      <use xlink:href="#DejaVuSans-68" x="3806.078125"/>
      <use xlink:href="#DejaVuSans-79" x="3869.457031"/>
      <use xlink:href="#DejaVuSans-64" x="3928.636719"/>
      <use xlink:href="#DejaVuSans-72" x="3992.113281"/>
      <use xlink:href="#DejaVuSans-6f" x="4030.976562"/>
      <use xlink:href="#DejaVuSans-2d" x="4094.033203"/>
      <use xlink:href="#DejaVuSans-35" x="4130.117188"/>
      <use xlink:href="#DejaVuSans-2d" x="4193.740234"/>
      <use xlink:href="#DejaVuSans-71" x="4229.824219"/>
      <use xlink:href="#DejaVuSans-75" x="4293.300781"/>
      <use xlink:href="#DejaVuSans-69" x="4356.679688"/>
      <use xlink:href="#DejaVuSans-6e" x="4384.462891"/>
      <use xlink:href="#DejaVuSans-6f" x="4447.841797"/>
      <use xlink:href="#DejaVuSans-6c" x="4509.023438"/>
      <use xlink:href="#DejaVuSans-69" x="4536.806641"/>
      <use xlink:href="#DejaVuSans-6e" x="4564.589844"/>
      <use xlink:href="#DejaVuSans-6f" x="4627.96875"/>
      <use xlink:href="#DejaVuSans-6e" x="4689.150391"/>
      <use xlink:href="#DejaVuSans-65" x="4752.529297"/>
     </g>
    </g>
   </g>
   <g id="text_5">
    <g clip-path="url(#p59458a1099)">
     <!-- HomocapsaicinⅡ -->
     <g transform="translate(189.089559 147.927375) scale(0.08 -0.08)">
      <defs>
       <path id="DejaVuSans-48" d="M 628 4666 
L 1259 4666 
L 1259 2753 
L 3553 2753 
L 3553 4666 
L 4184 4666 
L 4184 0 
L 3553 0 
L 3553 2222 
L 1259 2222 
L 1259 0 
L 628 0 
L 628 4666 
z
" transform="scale(0.015625)"/>
       <path id="DejaVuSans-2161" d="M 628 4666 
L 1259 4666 
L 1259 0 
L 628 0 
L 628 4666 
z
M 1892 4666 
L 2523 4666 
L 2523 0 
L 1892 0 
L 1892 4666 
z
" transform="scale(0.015625)"/>
      </defs>
      <use xlink:href="#DejaVuSans-48"/>
      <use xlink:href="#DejaVuSans-6f" x="75.195312"/>
      <use xlink:href="#DejaVuSans-6d" x="136.376953"/>
      <use xlink:href="#DejaVuSans-6f" x="233.789062"/>
      <use xlink:href="#DejaVuSans-63" x="294.970703"/>
      <use xlink:href="#DejaVuSans-61" x="349.951172"/>
      <use xlink:href="#DejaVuSans-70" x="411.230469"/>
      <use xlink:href="#DejaVuSans-73" x="474.707031"/>
      <use xlink:href="#DejaVuSans-61" x="526.806641"/>
      <use xlink:href="#DejaVuSans-69" x="588.085938"/>
      <use xlink:href="#DejaVuSans-63" x="615.869141"/>
      <use xlink:href="#DejaVuSans-69" x="670.849609"/>
      <use xlink:href="#DejaVuSans-6e" x="698.632812"/>
      <use xlink:href="#DejaVuSans-2161" x="762.011719"/>
     </g>
    </g>
   </g>
   <g id="text_6">
    <g clip-path="url(#p59458a1099)">
     <!-- Homo-anatoxin -->
     <g transform="translate(568.919137 277.061722) scale(0.08 -0.08)">
      <use xlink:href="#DejaVuSans-48"/>
      <use xlink:href="#DejaVuSans-6f" x="75.195312"/>
      <use xlink:href="#DejaVuSans-6d" x="136.376953"/>
      <use xlink:href="#DejaVuSans-6f" x="233.789062"/>
      <use xlink:href="#DejaVuSans-2d" x="296.845703"/>
      <use xlink:href="#DejaVuSans-61" x="332.929688"/>
      <use xlink:href="#DejaVuSans-6e" x="394.208984"/>
      <use xlink:href="#DejaVuSans-61" x="457.587891"/>
      <use xlink:href="#DejaVuSans-74" x="518.867188"/>
      <use xlink:href="#DejaVuSans-6f" x="558.076172"/>
      <use xlink:href="#DejaVuSans-78" x="616.132812"/>
      <use xlink:href="#DejaVuSans-69" x="675.3125"/>
      <use xlink:href="#DejaVuSans-6e" x="703.095703"/>
     </g>
    </g>
   </g>
   <g id="text_7">
    <g clip-path="url(#p59458a1099)">
     <!-- 2-[4a-methyl-8-methylidene-4-(3-methylpentanoyloxy)-1,2,3,4,5,6,7,8a-octahydronaphthalen-2-yl]prop-2-enoic acid -->
     <g transform="translate(106.269192 184.345158) scale(0.08 -0.08)">
      <defs>
       <path id="DejaVuSans-5b" d="M 550 4863 
L 1875 4863 
L 1875 4416 
L 1125 4416 
L 1125 -397 
L 1875 -397 
L 1875 -844 
L 550 -844 
L 550 4863 
z
" transform="scale(0.015625)"/>
       <path id="DejaVuSans-5d" d="M 1947 4863 
L 1947 -844 
L 622 -844 
L 622 -397 
L 1369 -397 
L 1369 4416 
L 622 4416 
L 622 4863 
L 1947 4863 
z
" transform="scale(0.015625)"/>
       <path id="DejaVuSans-20" transform="scale(0.015625)"/>
      </defs>
      <use xlink:href="#DejaVuSans-32"/>
      <use xlink:href="#DejaVuSans-2d" x="63.623047"/>
      <use xlink:href="#DejaVuSans-5b" x="99.707031"/>
      <use xlink:href="#DejaVuSans-34" x="138.720703"/>
      <use xlink:href="#DejaVuSans-61" x="202.34375"/>
      <use xlink:href="#DejaVuSans-2d" x="263.623047"/>
      <use xlink:href="#DejaVuSans-6d" x="299.707031"/>
      <use xlink:href="#DejaVuSans-65" x="397.119141"/>
      <use xlink:href="#DejaVuSans-74" x="458.642578"/>
      <use xlink:href="#DejaVuSans-68" x="497.851562"/>
      <use xlink:href="#DejaVuSans-79" x="561.230469"/>
      <use xlink:href="#DejaVuSans-6c" x="620.410156"/>
      <use xlink:href="#DejaVuSans-2d" x="648.193359"/>
      <use xlink:href="#DejaVuSans-38" x="684.277344"/>
      <use xlink:href="#DejaVuSans-2d" x="747.900391"/>
      <use xlink:href="#DejaVuSans-6d" x="783.984375"/>
      <use xlink:href="#DejaVuSans-65" x="881.396484"/>
      <use xlink:href="#DejaVuSans-74" x="942.919922"/>
      <use xlink:href="#DejaVuSans-68" x="982.128906"/>
      <use xlink:href="#DejaVuSans-79" x="1045.507812"/>
      <use xlink:href="#DejaVuSans-6c" x="1104.6875"/>
      <use xlink:href="#DejaVuSans-69" x="1132.470703"/>
      <use xlink:href="#DejaVuSans-64" x="1160.253906"/>
      <use xlink:href="#DejaVuSans-65" x="1223.730469"/>
      <use xlink:href="#DejaVuSans-6e" x="1285.253906"/>
      <use xlink:href="#DejaVuSans-65" x="1348.632812"/>
      <use xlink:href="#DejaVuSans-2d" x="1410.15625"/>
      <use xlink:href="#DejaVuSans-34" x="1446.240234"/>
      <use xlink:href="#DejaVuSans-2d" x="1509.863281"/>
      <use xlink:href="#DejaVuSans-28" x="1545.947266"/>
      <use xlink:href="#DejaVuSans-33" x="1584.960938"/>
      <use xlink:href="#DejaVuSans-2d" x="1648.583984"/>
      <use xlink:href="#DejaVuSans-6d" x="1684.667969"/>
      <use xlink:href="#DejaVuSans-65" x="1782.080078"/>
      <use xlink:href="#DejaVuSans-74" x="1843.603516"/>
      <use xlink:href="#DejaVuSans-68" x="1882.8125"/>
      <use xlink:href="#DejaVuSans-79" x="1946.191406"/>
      <use xlink:href="#DejaVuSans-6c" x="2005.371094"/>
      <use xlink:href="#DejaVuSans-70" x="2033.154297"/>
      <use xlink:href="#DejaVuSans-65" x="2096.630859"/>
      <use xlink:href="#DejaVuSans-6e" x="2158.154297"/>
      <use xlink:href="#DejaVuSans-74" x="2221.533203"/>
      <use xlink:href="#DejaVuSans-61" x="2260.742188"/>
      <use xlink:href="#DejaVuSans-6e" x="2322.021484"/>
      <use xlink:href="#DejaVuSans-6f" x="2385.400391"/>
      <use xlink:href="#DejaVuSans-79" x="2446.582031"/>
      <use xlink:href="#DejaVuSans-6c" x="2505.761719"/>
      <use xlink:href="#DejaVuSans-6f" x="2533.544922"/>
      <use xlink:href="#DejaVuSans-78" x="2591.601562"/>
      <use xlink:href="#DejaVuSans-79" x="2650.78125"/>
      <use xlink:href="#DejaVuSans-29" x="2709.960938"/>
      <use xlink:href="#DejaVuSans-2d" x="2748.974609"/>
      <use xlink:href="#DejaVuSans-31" x="2785.058594"/>
      <use xlink:href="#DejaVuSans-2c" x="2848.681641"/>
      <use xlink:href="#DejaVuSans-32" x="2880.46875"/>
      <use xlink:href="#DejaVuSans-2c" x="2944.091797"/>
      <use xlink:href="#DejaVuSans-33" x="2975.878906"/>
      <use xlink:href="#DejaVuSans-2c" x="3039.501953"/>
      <use xlink:href="#DejaVuSans-34" x="3071.289062"/>
      <use xlink:href="#DejaVuSans-2c" x="3134.912109"/>
      <use xlink:href="#DejaVuSans-35" x="3166.699219"/>
      <use xlink:href="#DejaVuSans-2c" x="3230.322266"/>
      <use xlink:href="#DejaVuSans-36" x="3262.109375"/>
      <use xlink:href="#DejaVuSans-2c" x="3325.732422"/>
      <use xlink:href="#DejaVuSans-37" x="3357.519531"/>
      <use xlink:href="#DejaVuSans-2c" x="3421.142578"/>
      <use xlink:href="#DejaVuSans-38" x="3452.929688"/>
      <use xlink:href="#DejaVuSans-61" x="3516.552734"/>
      <use xlink:href="#DejaVuSans-2d" x="3577.832031"/>
      <use xlink:href="#DejaVuSans-6f" x="3615.791016"/>
      <use xlink:href="#DejaVuSans-63" x="3676.972656"/>
      <use xlink:href="#DejaVuSans-74" x="3731.953125"/>
      <use xlink:href="#DejaVuSans-61" x="3771.162109"/>
      <use xlink:href="#DejaVuSans-68" x="3832.441406"/>
      <use xlink:href="#DejaVuSans-79" x="3895.820312"/>
      <use xlink:href="#DejaVuSans-64" x="3955"/>
      <use xlink:href="#DejaVuSans-72" x="4018.476562"/>
      <use xlink:href="#DejaVuSans-6f" x="4057.339844"/>
      <use xlink:href="#DejaVuSans-6e" x="4118.521484"/>
      <use xlink:href="#DejaVuSans-61" x="4181.900391"/>
      <use xlink:href="#DejaVuSans-70" x="4243.179688"/>
      <use xlink:href="#DejaVuSans-68" x="4306.65625"/>
      <use xlink:href="#DejaVuSans-74" x="4370.035156"/>
      <use xlink:href="#DejaVuSans-68" x="4409.244141"/>
      <use xlink:href="#DejaVuSans-61" x="4472.623047"/>
      <use xlink:href="#DejaVuSans-6c" x="4533.902344"/>
      <use xlink:href="#DejaVuSans-65" x="4561.685547"/>
      <use xlink:href="#DejaVuSans-6e" x="4623.208984"/>
      <use xlink:href="#DejaVuSans-2d" x="4686.587891"/>
      <use xlink:href="#DejaVuSans-32" x="4722.671875"/>
      <use xlink:href="#DejaVuSans-2d" x="4786.294922"/>
      <use xlink:href="#DejaVuSans-79" x="4820.628906"/>
      <use xlink:href="#DejaVuSans-6c" x="4879.808594"/>
      <use xlink:href="#DejaVuSans-5d" x="4907.591797"/>
      <use xlink:href="#DejaVuSans-70" x="4946.605469"/>
      <use xlink:href="#DejaVuSans-72" x="5010.082031"/>
      <use xlink:href="#DejaVuSans-6f" x="5048.945312"/>
      <use xlink:href="#DejaVuSans-70" x="5110.126953"/>
      <use xlink:href="#DejaVuSans-2d" x="5173.603516"/>
      <use xlink:href="#DejaVuSans-32" x="5209.6875"/>
      <use xlink:href="#DejaVuSans-2d" x="5273.310547"/>
      <use xlink:href="#DejaVuSans-65" x="5309.394531"/>
      <use xlink:href="#DejaVuSans-6e" x="5370.917969"/>
      <use xlink:href="#DejaVuSans-6f" x="5434.296875"/>
      <use xlink:href="#DejaVuSans-69" x="5495.478516"/>
      <use xlink:href="#DejaVuSans-63" x="5523.261719"/>
      <use xlink:href="#DejaVuSans-20" x="5578.242188"/>
      <use xlink:href="#DejaVuSans-61" x="5610.029297"/>
      <use xlink:href="#DejaVuSans-63" x="5671.308594"/>
      <use xlink:href="#DejaVuSans-69" x="5726.289062"/>
      <use xlink:href="#DejaVuSans-64" x="5754.072266"/>
     </g>
    </g>
   </g>
   <g id="text_8">
    <g clip-path="url(#p59458a1099)">
     <!-- 1,3-Dimethylbutylamine -->
     <g transform="translate(285.437245 476.360227) scale(0.08 -0.08)">
      <defs>
       <path id="DejaVuSans-62" d="M 3116 1747 
Q 3116 2381 2855 2742 
Q 2594 3103 2138 3103 
Q 1681 3103 1420 2742 
Q 1159 2381 1159 1747 
Q 1159 1113 1420 752 
Q 1681 391 2138 391 
Q 2594 391 2855 752 
Q 3116 1113 3116 1747 
z
M 1159 2969 
Q 1341 3281 1617 3432 
Q 1894 3584 2278 3584 
Q 2916 3584 3314 3078 
Q 3713 2572 3713 1747 
Q 3713 922 3314 415 
Q 2916 -91 2278 -91 
Q 1894 -91 1617 61 
Q 1341 213 1159 525 
L 1159 0 
L 581 0 
L 581 4863 
L 1159 4863 
L 1159 2969 
z
" transform="scale(0.015625)"/>
      </defs>
      <use xlink:href="#DejaVuSans-31"/>
      <use xlink:href="#DejaVuSans-2c" x="63.623047"/>
      <use xlink:href="#DejaVuSans-33" x="95.410156"/>
      <use xlink:href="#DejaVuSans-2d" x="159.033203"/>
      <use xlink:href="#DejaVuSans-44" x="195.117188"/>
      <use xlink:href="#DejaVuSans-69" x="272.119141"/>
      <use xlink:href="#DejaVuSans-6d" x="299.902344"/>
      <use xlink:href="#DejaVuSans-65" x="397.314453"/>
      <use xlink:href="#DejaVuSans-74" x="458.837891"/>
      <use xlink:href="#DejaVuSans-68" x="498.046875"/>
      <use xlink:href="#DejaVuSans-79" x="561.425781"/>
      <use xlink:href="#DejaVuSans-6c" x="620.605469"/>
      <use xlink:href="#DejaVuSans-62" x="648.388672"/>
      <use xlink:href="#DejaVuSans-75" x="711.865234"/>
      <use xlink:href="#DejaVuSans-74" x="775.244141"/>
      <use xlink:href="#DejaVuSans-79" x="814.453125"/>
      <use xlink:href="#DejaVuSans-6c" x="873.632812"/>
      <use xlink:href="#DejaVuSans-61" x="901.416016"/>
      <use xlink:href="#DejaVuSans-6d" x="962.695312"/>
      <use xlink:href="#DejaVuSans-69" x="1060.107422"/>
      <use xlink:href="#DejaVuSans-6e" x="1087.890625"/>
      <use xlink:href="#DejaVuSans-65" x="1151.269531"/>
     </g>
    </g>
   </g>
   <g id="text_9">
    <g clip-path="url(#p59458a1099)">
     <!-- 4-Methoxybenzaldehyde -->
     <g transform="translate(368.915804 126.866463) scale(0.08 -0.08)">
      <defs>
       <path id="DejaVuSans-4d" d="M 628 4666 
L 1569 4666 
L 2759 1491 
L 3956 4666 
L 4897 4666 
L 4897 0 
L 4281 0 
L 4281 4097 
L 3078 897 
L 2444 897 
L 1241 4097 
L 1241 0 
L 628 0 
L 628 4666 
z
" transform="scale(0.015625)"/>
       <path id="DejaVuSans-7a" d="M 353 3500 
L 3084 3500 
L 3084 2975 
L 922 459 
L 3084 459 
L 3084 0 
L 275 0 
L 275 525 
L 2438 3041 
L 353 3041 
L 353 3500 
z
" transform="scale(0.015625)"/>
      </defs>
      <use xlink:href="#DejaVuSans-34"/>
      <use xlink:href="#DejaVuSans-2d" x="63.623047"/>
      <use xlink:href="#DejaVuSans-4d" x="99.707031"/>
      <use xlink:href="#DejaVuSans-65" x="185.986328"/>
      <use xlink:href="#DejaVuSans-74" x="247.509766"/>
      <use xlink:href="#DejaVuSans-68" x="286.71875"/>
      <use xlink:href="#DejaVuSans-6f" x="350.097656"/>
      <use xlink:href="#DejaVuSans-78" x="408.154297"/>
      <use xlink:href="#DejaVuSans-79" x="467.333984"/>
      <use xlink:href="#DejaVuSans-62" x="526.513672"/>
      <use xlink:href="#DejaVuSans-65" x="589.990234"/>
      <use xlink:href="#DejaVuSans-6e" x="651.513672"/>
      <use xlink:href="#DejaVuSans-7a" x="714.892578"/>
      <use xlink:href="#DejaVuSans-61" x="767.382812"/>
      <use xlink:href="#DejaVuSans-6c" x="828.662109"/>
      <use xlink:href="#DejaVuSans-64" x="856.445312"/>
      <use xlink:href="#DejaVuSans-65" x="919.921875"/>
      <use xlink:href="#DejaVuSans-68" x="981.445312"/>
      <use xlink:href="#DejaVuSans-79" x="1044.824219"/>
      <use xlink:href="#DejaVuSans-64" x="1104.003906"/>
      <use xlink:href="#DejaVuSans-65" x="1167.480469"/>
     </g>
    </g>
   </g>
   <g id="text_10">
    <g clip-path="url(#p59458a1099)">
     <!-- Nateglinide -->
     <g transform="translate(342.833465 406.943189) scale(0.08 -0.08)">
      <defs>
       <path id="DejaVuSans-4e" d="M 628 4666 
L 1478 4666 
L 3547 763 
L 3547 4666 
L 4159 4666 
L 4159 0 
L 3309 0 
L 1241 3903 
L 1241 0 
L 628 0 
L 628 4666 
z
" transform="scale(0.015625)"/>
       <path id="DejaVuSans-67" d="M 2906 1791 
Q 2906 2416 2648 2759 
Q 2391 3103 1925 3103 
Q 1463 3103 1205 2759 
Q 947 2416 947 1791 
Q 947 1169 1205 825 
Q 1463 481 1925 481 
Q 2391 481 2648 825 
Q 2906 1169 2906 1791 
z
M 3481 434 
Q 3481 -459 3084 -895 
Q 2688 -1331 1869 -1331 
Q 1566 -1331 1297 -1286 
Q 1028 -1241 775 -1147 
L 775 -588 
Q 1028 -725 1275 -790 
Q 1522 -856 1778 -856 
Q 2344 -856 2625 -561 
Q 2906 -266 2906 331 
L 2906 616 
Q 2728 306 2450 153 
Q 2172 0 1784 0 
Q 1141 0 747 490 
Q 353 981 353 1791 
Q 353 2603 747 3093 
Q 1141 3584 1784 3584 
Q 2172 3584 2450 3431 
Q 2728 3278 2906 2969 
L 2906 3500 
L 3481 3500 
L 3481 434 
z
" transform="scale(0.015625)"/>
      </defs>
      <use xlink:href="#DejaVuSans-4e"/>
      <use xlink:href="#DejaVuSans-61" x="74.804688"/>
      <use xlink:href="#DejaVuSans-74" x="136.083984"/>
      <use xlink:href="#DejaVuSans-65" x="175.292969"/>
      <use xlink:href="#DejaVuSans-67" x="236.816406"/>
      <use xlink:href="#DejaVuSans-6c" x="300.292969"/>
      <use xlink:href="#DejaVuSans-69" x="328.076172"/>
      <use xlink:href="#DejaVuSans-6e" x="355.859375"/>
      <use xlink:href="#DejaVuSans-69" x="419.238281"/>
      <use xlink:href="#DejaVuSans-64" x="447.021484"/>
      <use xlink:href="#DejaVuSans-65" x="510.498047"/>
     </g>
    </g>
   </g>
   <g id="text_11">
    <g clip-path="url(#p59458a1099)">
     <!-- Laurolactam -->
     <g transform="translate(543.160539 195.535116) scale(0.08 -0.08)">
      <defs>
       <path id="DejaVuSans-4c" d="M 628 4666 
L 1259 4666 
L 1259 531 
L 3531 531 
L 3531 0 
L 628 0 
L 628 4666 
z
" transform="scale(0.015625)"/>
      </defs>
      <use xlink:href="#DejaVuSans-4c"/>
      <use xlink:href="#DejaVuSans-61" x="55.712891"/>
      <use xlink:href="#DejaVuSans-75" x="116.992188"/>
      <use xlink:href="#DejaVuSans-72" x="180.371094"/>
      <use xlink:href="#DejaVuSans-6f" x="219.234375"/>
      <use xlink:href="#DejaVuSans-6c" x="280.416016"/>
      <use xlink:href="#DejaVuSans-61" x="308.199219"/>
      <use xlink:href="#DejaVuSans-63" x="369.478516"/>
      <use xlink:href="#DejaVuSans-74" x="424.458984"/>
      <use xlink:href="#DejaVuSans-61" x="463.667969"/>
      <use xlink:href="#DejaVuSans-6d" x="524.947266"/>
     </g>
    </g>
   </g>
   <g id="text_12">
    <g clip-path="url(#p59458a1099)">
     <!-- Decanamide -->
     <g transform="translate(294.752242 109.814773) scale(0.08 -0.08)">
      <use xlink:href="#DejaVuSans-44"/>
      <use xlink:href="#DejaVuSans-65" x="77.001953"/>
      <use xlink:href="#DejaVuSans-63" x="138.525391"/>
      <use xlink:href="#DejaVuSans-61" x="193.505859"/>
      <use xlink:href="#DejaVuSans-6e" x="254.785156"/>
      <use xlink:href="#DejaVuSans-61" x="318.164062"/>
      <use xlink:href="#DejaVuSans-6d" x="379.443359"/>
      <use xlink:href="#DejaVuSans-69" x="476.855469"/>
      <use xlink:href="#DejaVuSans-64" x="504.638672"/>
      <use xlink:href="#DejaVuSans-65" x="568.115234"/>
     </g>
    </g>
   </g>
   <g id="text_13">
    <g clip-path="url(#p59458a1099)">
     <!-- 4-Methyl PV8 -->
     <g transform="translate(472.285886 145.281782) scale(0.08 -0.08)">
      <defs>
       <path id="DejaVuSans-56" d="M 1831 0 
L 50 4666 
L 709 4666 
L 2188 738 
L 3669 4666 
L 4325 4666 
L 2547 0 
L 1831 0 
z
" transform="scale(0.015625)"/>
      </defs>
      <use xlink:href="#DejaVuSans-34"/>
      <use xlink:href="#DejaVuSans-2d" x="63.623047"/>
      <use xlink:href="#DejaVuSans-4d" x="99.707031"/>
      <use xlink:href="#DejaVuSans-65" x="185.986328"/>
      <use xlink:href="#DejaVuSans-74" x="247.509766"/>
      <use xlink:href="#DejaVuSans-68" x="286.71875"/>
      <use xlink:href="#DejaVuSans-79" x="350.097656"/>
      <use xlink:href="#DejaVuSans-6c" x="409.277344"/>
      <use xlink:href="#DejaVuSans-20" x="437.060547"/>
      <use xlink:href="#DejaVuSans-50" x="468.847656"/>
      <use xlink:href="#DejaVuSans-56" x="529.150391"/>
      <use xlink:href="#DejaVuSans-38" x="597.558594"/>
     </g>
    </g>
   </g>
   <g id="text_14">
    <g clip-path="url(#p59458a1099)">
     <!-- SPI_270.2429_14.9 -->
     <g transform="translate(555.063452 354.948877) scale(0.08 -0.08)">
      <defs>
       <path id="DejaVuSans-53" d="M 3425 4513 
L 3425 3897 
Q 3066 4069 2747 4153 
Q 2428 4238 2131 4238 
Q 1616 4238 1336 4038 
Q 1056 3838 1056 3469 
Q 1056 3159 1242 3001 
Q 1428 2844 1947 2747 
L 2328 2669 
Q 3034 2534 3370 2195 
Q 3706 1856 3706 1288 
Q 3706 609 3251 259 
Q 2797 -91 1919 -91 
Q 1588 -91 1214 -16 
Q 841 59 441 206 
L 441 856 
Q 825 641 1194 531 
Q 1563 422 1919 422 
Q 2459 422 2753 634 
Q 3047 847 3047 1241 
Q 3047 1584 2836 1778 
Q 2625 1972 2144 2069 
L 1759 2144 
Q 1053 2284 737 2584 
Q 422 2884 422 3419 
Q 422 4038 858 4394 
Q 1294 4750 2059 4750 
Q 2388 4750 2728 4690 
Q 3069 4631 3425 4513 
z
" transform="scale(0.015625)"/>
       <path id="DejaVuSans-49" d="M 628 4666 
L 1259 4666 
L 1259 0 
L 628 0 
L 628 4666 
z
" transform="scale(0.015625)"/>
       <path id="DejaVuSans-5f" d="M 3263 -1063 
L 3263 -1509 
L -63 -1509 
L -63 -1063 
L 3263 -1063 
z
" transform="scale(0.015625)"/>
       <path id="DejaVuSans-30" d="M 2034 4250 
Q 1547 4250 1301 3770 
Q 1056 3291 1056 2328 
Q 1056 1369 1301 889 
Q 1547 409 2034 409 
Q 2525 409 2770 889 
Q 3016 1369 3016 2328 
Q 3016 3291 2770 3770 
Q 2525 4250 2034 4250 
z
M 2034 4750 
Q 2819 4750 3233 4129 
Q 3647 3509 3647 2328 
Q 3647 1150 3233 529 
Q 2819 -91 2034 -91 
Q 1250 -91 836 529 
Q 422 1150 422 2328 
Q 422 3509 836 4129 
Q 1250 4750 2034 4750 
z
" transform="scale(0.015625)"/>
       <path id="DejaVuSans-2e" d="M 684 794 
L 1344 794 
L 1344 0 
L 684 0 
L 684 794 
z
" transform="scale(0.015625)"/>
       <path id="DejaVuSans-39" d="M 703 97 
L 703 672 
Q 941 559 1184 500 
Q 1428 441 1663 441 
Q 2288 441 2617 861 
Q 2947 1281 2994 2138 
Q 2813 1869 2534 1725 
Q 2256 1581 1919 1581 
Q 1219 1581 811 2004 
Q 403 2428 403 3163 
Q 403 3881 828 4315 
Q 1253 4750 1959 4750 
Q 2769 4750 3195 4129 
Q 3622 3509 3622 2328 
Q 3622 1225 3098 567 
Q 2575 -91 1691 -91 
Q 1453 -91 1209 -44 
Q 966 3 703 97 
z
M 1959 2075 
Q 2384 2075 2632 2365 
Q 2881 2656 2881 3163 
Q 2881 3666 2632 3958 
Q 2384 4250 1959 4250 
Q 1534 4250 1286 3958 
Q 1038 3666 1038 3163 
Q 1038 2656 1286 2365 
Q 1534 2075 1959 2075 
z
" transform="scale(0.015625)"/>
      </defs>
      <use xlink:href="#DejaVuSans-53"/>
      <use xlink:href="#DejaVuSans-50" x="63.476562"/>
      <use xlink:href="#DejaVuSans-49" x="123.779297"/>
      <use xlink:href="#DejaVuSans-5f" x="153.271484"/>
      <use xlink:href="#DejaVuSans-32" x="203.271484"/>
      <use xlink:href="#DejaVuSans-37" x="266.894531"/>
      <use xlink:href="#DejaVuSans-30" x="330.517578"/>
      <use xlink:href="#DejaVuSans-2e" x="394.140625"/>
      <use xlink:href="#DejaVuSans-32" x="425.927734"/>
      <use xlink:href="#DejaVuSans-34" x="489.550781"/>
      <use xlink:href="#DejaVuSans-32" x="553.173828"/>
      <use xlink:href="#DejaVuSans-39" x="616.796875"/>
      <use xlink:href="#DejaVuSans-5f" x="680.419922"/>
      <use xlink:href="#DejaVuSans-31" x="730.419922"/>
      <use xlink:href="#DejaVuSans-34" x="794.042969"/>
      <use xlink:href="#DejaVuSans-2e" x="857.666016"/>
      <use xlink:href="#DejaVuSans-39" x="889.453125"/>
     </g>
    </g>
   </g>
   <g id="text_15">
    <g clip-path="url(#p59458a1099)">
     <!-- Oleamide -->
     <g transform="translate(484.433108 249.870538) scale(0.08 -0.08)">
      <defs>
       <path id="DejaVuSans-4f" d="M 2522 4238 
Q 1834 4238 1429 3725 
Q 1025 3213 1025 2328 
Q 1025 1447 1429 934 
Q 1834 422 2522 422 
Q 3209 422 3611 934 
Q 4013 1447 4013 2328 
Q 4013 3213 3611 3725 
Q 3209 4238 2522 4238 
z
M 2522 4750 
Q 3503 4750 4090 4092 
Q 4678 3434 4678 2328 
Q 4678 1225 4090 567 
Q 3503 -91 2522 -91 
Q 1538 -91 948 565 
Q 359 1222 359 2328 
Q 359 3434 948 4092 
Q 1538 4750 2522 4750 
z
" transform="scale(0.015625)"/>
      </defs>
      <use xlink:href="#DejaVuSans-4f"/>
      <use xlink:href="#DejaVuSans-6c" x="78.710938"/>
      <use xlink:href="#DejaVuSans-65" x="106.494141"/>
      <use xlink:href="#DejaVuSans-61" x="168.017578"/>
      <use xlink:href="#DejaVuSans-6d" x="229.296875"/>
      <use xlink:href="#DejaVuSans-69" x="326.708984"/>
      <use xlink:href="#DejaVuSans-64" x="354.492188"/>
      <use xlink:href="#DejaVuSans-65" x="417.96875"/>
     </g>
    </g>
   </g>
   <g id="text_16">
    <g clip-path="url(#p59458a1099)">
     <!-- HomodihydrocapsaicinI -->
     <g transform="translate(122.164644 300.383912) scale(0.08 -0.08)">
      <use xlink:href="#DejaVuSans-48"/>
      <use xlink:href="#DejaVuSans-6f" x="75.195312"/>
      <use xlink:href="#DejaVuSans-6d" x="136.376953"/>
      <use xlink:href="#DejaVuSans-6f" x="233.789062"/>
      <use xlink:href="#DejaVuSans-64" x="294.970703"/>
      <use xlink:href="#DejaVuSans-69" x="358.447266"/>
      <use xlink:href="#DejaVuSans-68" x="386.230469"/>
      <use xlink:href="#DejaVuSans-79" x="449.609375"/>
      <use xlink:href="#DejaVuSans-64" x="508.789062"/>
      <use xlink:href="#DejaVuSans-72" x="572.265625"/>
      <use xlink:href="#DejaVuSans-6f" x="611.128906"/>
      <use xlink:href="#DejaVuSans-63" x="672.310547"/>
      <use xlink:href="#DejaVuSans-61" x="727.291016"/>
      <use xlink:href="#DejaVuSans-70" x="788.570312"/>
      <use xlink:href="#DejaVuSans-73" x="852.046875"/>
      <use xlink:href="#DejaVuSans-61" x="904.146484"/>
      <use xlink:href="#DejaVuSans-69" x="965.425781"/>
      <use xlink:href="#DejaVuSans-63" x="993.208984"/>
      <use xlink:href="#DejaVuSans-69" x="1048.189453"/>
      <use xlink:href="#DejaVuSans-6e" x="1075.972656"/>
      <use xlink:href="#DejaVuSans-49" x="1139.351562"/>
     </g>
    </g>
   </g>
   <g id="text_17">
    <g clip-path="url(#p59458a1099)">
     <!-- Dobutamine -->
     <g transform="translate(202.781639 385.866612) scale(0.08 -0.08)">
      <use xlink:href="#DejaVuSans-44"/>
      <use xlink:href="#DejaVuSans-6f" x="77.001953"/>
      <use xlink:href="#DejaVuSans-62" x="138.183594"/>
      <use xlink:href="#DejaVuSans-75" x="201.660156"/>
      <use xlink:href="#DejaVuSans-74" x="265.039062"/>
      <use xlink:href="#DejaVuSans-61" x="304.248047"/>
      <use xlink:href="#DejaVuSans-6d" x="365.527344"/>
      <use xlink:href="#DejaVuSans-69" x="462.939453"/>
      <use xlink:href="#DejaVuSans-6e" x="490.722656"/>
      <use xlink:href="#DejaVuSans-65" x="554.101562"/>
     </g>
    </g>
   </g>
   <g id="text_18">
    <g clip-path="url(#p59458a1099)">
     <!-- Nonivamide -->
     <g transform="translate(116.388344 365.646914) scale(0.08 -0.08)">
      <defs>
       <path id="DejaVuSans-76" d="M 191 3500 
L 800 3500 
L 1894 563 
L 2988 3500 
L 3597 3500 
L 2284 0 
L 1503 0 
L 191 3500 
z
" transform="scale(0.015625)"/>
      </defs>
      <use xlink:href="#DejaVuSans-4e"/>
      <use xlink:href="#DejaVuSans-6f" x="74.804688"/>
      <use xlink:href="#DejaVuSans-6e" x="135.986328"/>
      <use xlink:href="#DejaVuSans-69" x="199.365234"/>
      <use xlink:href="#DejaVuSans-76" x="227.148438"/>
      <use xlink:href="#DejaVuSans-61" x="286.328125"/>
      <use xlink:href="#DejaVuSans-6d" x="347.607422"/>
      <use xlink:href="#DejaVuSans-69" x="445.019531"/>
      <use xlink:href="#DejaVuSans-64" x="472.802734"/>
      <use xlink:href="#DejaVuSans-65" x="536.279297"/>
     </g>
    </g>
   </g>
   <g id="text_19">
    <g clip-path="url(#p59458a1099)">
     <!-- 6-Gingerol 6-姜酚 -->
     <g transform="translate(206.363926 453.876608) scale(0.08 -0.08)">
      <defs>
       <path id="DejaVuSans-47" d="M 3809 666 
L 3809 1919 
L 2778 1919 
L 2778 2438 
L 4434 2438 
L 4434 434 
Q 4069 175 3628 42 
Q 3188 -91 2688 -91 
Q 1594 -91 976 548 
Q 359 1188 359 2328 
Q 359 3472 976 4111 
Q 1594 4750 2688 4750 
Q 3144 4750 3555 4637 
Q 3966 4525 4313 4306 
L 4313 3634 
Q 3963 3931 3569 4081 
Q 3175 4231 2741 4231 
Q 1884 4231 1454 3753 
Q 1025 3275 1025 2328 
Q 1025 1384 1454 906 
Q 1884 428 2741 428 
Q 3075 428 3337 486 
Q 3600 544 3809 666 
z
" transform="scale(0.015625)"/>
       <path id="DejaVuSans-59dc" d="M 319 -1131 
L 319 4513 
L 3519 4513 
L 3519 -1131 
L 319 -1131 
z
M 678 -775 
L 3163 -775 
L 3163 4153 
L 678 4153 
L 678 -775 
z
" transform="scale(0.015625)"/>
       <path id="DejaVuSans-915a" d="M 319 -1131 
L 319 4513 
L 3519 4513 
L 3519 -1131 
L 319 -1131 
z
M 678 -775 
L 3163 -775 
L 3163 4153 
L 678 4153 
L 678 -775 
z
" transform="scale(0.015625)"/>
      </defs>
      <use xlink:href="#DejaVuSans-36"/>
      <use xlink:href="#DejaVuSans-2d" x="63.623047"/>
      <use xlink:href="#DejaVuSans-47" x="103.332031"/>
      <use xlink:href="#DejaVuSans-69" x="180.822266"/>
      <use xlink:href="#DejaVuSans-6e" x="208.605469"/>
      <use xlink:href="#DejaVuSans-67" x="271.984375"/>
      <use xlink:href="#DejaVuSans-65" x="335.460938"/>
      <use xlink:href="#DejaVuSans-72" x="396.984375"/>
      <use xlink:href="#DejaVuSans-6f" x="435.847656"/>
      <use xlink:href="#DejaVuSans-6c" x="497.029297"/>
      <use xlink:href="#DejaVuSans-20" x="524.8125"/>
      <use xlink:href="#DejaVuSans-36" x="556.599609"/>
      <use xlink:href="#DejaVuSans-2d" x="620.222656"/>
      <use xlink:href="#DejaVuSans-59dc" x="656.306641"/>
      <use xlink:href="#DejaVuSans-915a" x="716.316406"/>
     </g>
    </g>
   </g>
   <g id="text_20">
    <g clip-path="url(#p59458a1099)">
     <!-- BMK methyl glycidate -->
     <g transform="translate(394.791463 470.350223) scale(0.08 -0.08)">
      <defs>
       <path id="DejaVuSans-42" d="M 1259 2228 
L 1259 519 
L 2272 519 
Q 2781 519 3026 730 
Q 3272 941 3272 1375 
Q 3272 1813 3026 2020 
Q 2781 2228 2272 2228 
L 1259 2228 
z
M 1259 4147 
L 1259 2741 
L 2194 2741 
Q 2656 2741 2882 2914 
Q 3109 3088 3109 3444 
Q 3109 3797 2882 3972 
Q 2656 4147 2194 4147 
L 1259 4147 
z
M 628 4666 
L 2241 4666 
Q 2963 4666 3353 4366 
Q 3744 4066 3744 3513 
Q 3744 3084 3544 2831 
Q 3344 2578 2956 2516 
Q 3422 2416 3680 2098 
Q 3938 1781 3938 1306 
Q 3938 681 3513 340 
Q 3088 0 2303 0 
L 628 0 
L 628 4666 
z
" transform="scale(0.015625)"/>
       <path id="DejaVuSans-4b" d="M 628 4666 
L 1259 4666 
L 1259 2694 
L 3353 4666 
L 4166 4666 
L 1850 2491 
L 4331 0 
L 3500 0 
L 1259 2247 
L 1259 0 
L 628 0 
L 628 4666 
z
" transform="scale(0.015625)"/>
      </defs>
      <use xlink:href="#DejaVuSans-42"/>
      <use xlink:href="#DejaVuSans-4d" x="68.603516"/>
      <use xlink:href="#DejaVuSans-4b" x="154.882812"/>
      <use xlink:href="#DejaVuSans-20" x="220.458984"/>
      <use xlink:href="#DejaVuSans-6d" x="252.246094"/>
      <use xlink:href="#DejaVuSans-65" x="349.658203"/>
      <use xlink:href="#DejaVuSans-74" x="411.181641"/>
      <use xlink:href="#DejaVuSans-68" x="450.390625"/>
      <use xlink:href="#DejaVuSans-79" x="513.769531"/>
      <use xlink:href="#DejaVuSans-6c" x="572.949219"/>
      <use xlink:href="#DejaVuSans-20" x="600.732422"/>
      <use xlink:href="#DejaVuSans-67" x="632.519531"/>
      <use xlink:href="#DejaVuSans-6c" x="695.996094"/>
      <use xlink:href="#DejaVuSans-79" x="723.779297"/>
      <use xlink:href="#DejaVuSans-63" x="782.958984"/>
      <use xlink:href="#DejaVuSans-69" x="837.939453"/>
      <use xlink:href="#DejaVuSans-64" x="865.722656"/>
      <use xlink:href="#DejaVuSans-61" x="929.199219"/>
      <use xlink:href="#DejaVuSans-74" x="990.478516"/>
      <use xlink:href="#DejaVuSans-65" x="1029.6875"/>
     </g>
    </g>
   </g>
   <g id="text_21">
    <g clip-path="url(#p59458a1099)">
     <!-- phenylethylamide 275 -->
     <g transform="translate(483.126644 435.503998) scale(0.08 -0.08)">
      <use xlink:href="#DejaVuSans-70"/>
      <use xlink:href="#DejaVuSans-68" x="63.476562"/>
      <use xlink:href="#DejaVuSans-65" x="126.855469"/>
      <use xlink:href="#DejaVuSans-6e" x="188.378906"/>
      <use xlink:href="#DejaVuSans-79" x="251.757812"/>
      <use xlink:href="#DejaVuSans-6c" x="310.9375"/>
      <use xlink:href="#DejaVuSans-65" x="338.720703"/>
      <use xlink:href="#DejaVuSans-74" x="400.244141"/>
      <use xlink:href="#DejaVuSans-68" x="439.453125"/>
      <use xlink:href="#DejaVuSans-79" x="502.832031"/>
      <use xlink:href="#DejaVuSans-6c" x="562.011719"/>
      <use xlink:href="#DejaVuSans-61" x="589.794922"/>
      <use xlink:href="#DejaVuSans-6d" x="651.074219"/>
      <use xlink:href="#DejaVuSans-69" x="748.486328"/>
      <use xlink:href="#DejaVuSans-64" x="776.269531"/>
      <use xlink:href="#DejaVuSans-65" x="839.746094"/>
      <use xlink:href="#DejaVuSans-20" x="901.269531"/>
      <use xlink:href="#DejaVuSans-32" x="933.056641"/>
      <use xlink:href="#DejaVuSans-37" x="996.679688"/>
      <use xlink:href="#DejaVuSans-35" x="1060.302734"/>
     </g>
    </g>
   </g>
  </g>
 </g>
 <defs>
  <clipPath id="p59458a1099">
   <rect x="90" y="69.12" width="558" height="443.52"/>
  </clipPath>
 </defs>
</svg>
