<?xml version="1.0" encoding="utf-8" standalone="no"?>
<!DOCTYPE svg PUBLIC "-//W3C//DTD SVG 1.1//EN"
  "http://www.w3.org/Graphics/SVG/1.1/DTD/svg11.dtd">
<svg xmlns:xlink="http://www.w3.org/1999/xlink" width="1008pt" height="432pt" viewBox="0 0 1008 432" xmlns="http://www.w3.org/2000/svg" version="1.1">
 <metadata>
  <rdf:RDF xmlns:dc="http://purl.org/dc/elements/1.1/" xmlns:cc="http://creativecommons.org/ns#" xmlns:rdf="http://www.w3.org/1999/02/22-rdf-syntax-ns#">
   <cc:Work>
    <dc:type rdf:resource="http://purl.org/dc/dcmitype/StillImage"/>
    <dc:date>2024-09-21T22:46:24.368669</dc:date>
    <dc:format>image/svg+xml</dc:format>
    <dc:creator>
     <cc:Agent>
      <dc:title>Matplotlib v3.8.0, https://matplotlib.org/</dc:title>
     </cc:Agent>
    </dc:creator>
   </cc:Work>
  </rdf:RDF>
 </metadata>
 <defs>
  <style type="text/css">*{stroke-linejoin: round; stroke-linecap: butt}</style>
 </defs>
 <g id="figure_1">
  <g id="patch_1">
   <path d="M 0 432 
L 1008 432 
L 1008 0 
L 0 0 
z
" style="fill: #ffffff"/>
  </g>
  <g id="axes_1">
   <g id="patch_2">
    <path d="M 47.72 377.035464 
L 997.2 377.035464 
L 997.2 10.8 
L 47.72 10.8 
z
" style="fill: #ffffff"/>
   </g>
   <g id="matplotlib.axis_1">
    <g id="xtick_1">
     <g id="line2d_1">
      <defs>
       <path id="m0f54fdcd7d" d="M 0 0 
L 0 3.5 
" style="stroke: #000000; stroke-width: 0.8"/>
      </defs>
      <g>
       <use xlink:href="#m0f54fdcd7d" x="90.878182" y="377.035464" style="stroke: #000000; stroke-width: 0.8"/>
      </g>
     </g>
     <g id="text_1">
      <!-- 5.65 -->
      <g transform="translate(82.616571 401.748716) rotate(-30) scale(0.1 -0.1)">
       <defs>
        <path id="DejaVuSans-35" d="M 691 4666 
L 3169 4666 
L 3169 4134 
L 1269 4134 
L 1269 2991 
Q 1406 3038 1543 3061 
Q 1681 3084 1819 3084 
Q 2600 3084 3056 2656 
Q 3513 2228 3513 1497 
Q 3513 744 3044 326 
Q 2575 -91 1722 -91 
Q 1428 -91 1123 -41 
Q 819 9 494 109 
L 494 744 
Q 775 591 1075 516 
Q 1375 441 1709 441 
Q 2250 441 2565 725 
Q 2881 1009 2881 1497 
Q 2881 1984 2565 2268 
Q 2250 2553 1709 2553 
Q 1456 2553 1204 2497 
Q 953 2441 691 2322 
L 691 4666 
z
" transform="scale(0.015625)"/>
        <path id="DejaVuSans-2e" d="M 684 794 
L 1344 794 
L 1344 0 
L 684 0 
L 684 794 
z
" transform="scale(0.015625)"/>
        <path id="DejaVuSans-36" d="M 2113 2584 
Q 1688 2584 1439 2293 
Q 1191 2003 1191 1497 
Q 1191 994 1439 701 
Q 1688 409 2113 409 
Q 2538 409 2786 701 
Q 3034 994 3034 1497 
Q 3034 2003 2786 2293 
Q 2538 2584 2113 2584 
z
M 3366 4563 
L 3366 3988 
Q 3128 4100 2886 4159 
Q 2644 4219 2406 4219 
Q 1781 4219 1451 3797 
Q 1122 3375 1075 2522 
Q 1259 2794 1537 2939 
Q 1816 3084 2150 3084 
Q 2853 3084 3261 2657 
Q 3669 2231 3669 1497 
Q 3669 778 3244 343 
Q 2819 -91 2113 -91 
Q 1303 -91 875 529 
Q 447 1150 447 2328 
Q 447 3434 972 4092 
Q 1497 4750 2381 4750 
Q 2619 4750 2861 4703 
Q 3103 4656 3366 4563 
z
" transform="scale(0.015625)"/>
       </defs>
       <use xlink:href="#DejaVuSans-35"/>
       <use xlink:href="#DejaVuSans-2e" x="63.623047"/>
       <use xlink:href="#DejaVuSans-36" x="95.410156"/>
       <use xlink:href="#DejaVuSans-35" x="159.033203"/>
      </g>
     </g>
    </g>
    <g id="xtick_2">
     <g id="line2d_2">
      <g>
       <use xlink:href="#m0f54fdcd7d" x="121.705455" y="377.035464" style="stroke: #000000; stroke-width: 0.8"/>
      </g>
     </g>
     <g id="text_2">
      <!-- 6.07 -->
      <g transform="translate(113.443844 401.748716) rotate(-30) scale(0.1 -0.1)">
       <defs>
        <path id="DejaVuSans-30" d="M 2034 4250 
Q 1547 4250 1301 3770 
Q 1056 3291 1056 2328 
Q 1056 1369 1301 889 
Q 1547 409 2034 409 
Q 2525 409 2770 889 
Q 3016 1369 3016 2328 
Q 3016 3291 2770 3770 
Q 2525 4250 2034 4250 
z
M 2034 4750 
Q 2819 4750 3233 4129 
Q 3647 3509 3647 2328 
Q 3647 1150 3233 529 
Q 2819 -91 2034 -91 
Q 1250 -91 836 529 
Q 422 1150 422 2328 
Q 422 3509 836 4129 
Q 1250 4750 2034 4750 
z
" transform="scale(0.015625)"/>
        <path id="DejaVuSans-37" d="M 525 4666 
L 3525 4666 
L 3525 4397 
L 1831 0 
L 1172 0 
L 2766 4134 
L 525 4134 
L 525 4666 
z
" transform="scale(0.015625)"/>
       </defs>
       <use xlink:href="#DejaVuSans-36"/>
       <use xlink:href="#DejaVuSans-2e" x="63.623047"/>
       <use xlink:href="#DejaVuSans-30" x="95.410156"/>
       <use xlink:href="#DejaVuSans-37" x="159.033203"/>
      </g>
     </g>
    </g>
    <g id="xtick_3">
     <g id="line2d_3">
      <g>
       <use xlink:href="#m0f54fdcd7d" x="152.532727" y="377.035464" style="stroke: #000000; stroke-width: 0.8"/>
      </g>
     </g>
     <g id="text_3">
      <!-- 6.15 -->
      <g transform="translate(144.271116 401.748716) rotate(-30) scale(0.1 -0.1)">
       <defs>
        <path id="DejaVuSans-31" d="M 794 531 
L 1825 531 
L 1825 4091 
L 703 3866 
L 703 4441 
L 1819 4666 
L 2450 4666 
L 2450 531 
L 3481 531 
L 3481 0 
L 794 0 
L 794 531 
z
" transform="scale(0.015625)"/>
       </defs>
       <use xlink:href="#DejaVuSans-36"/>
       <use xlink:href="#DejaVuSans-2e" x="63.623047"/>
       <use xlink:href="#DejaVuSans-31" x="95.410156"/>
       <use xlink:href="#DejaVuSans-35" x="159.033203"/>
      </g>
     </g>
    </g>
    <g id="xtick_4">
     <g id="line2d_4">
      <g>
       <use xlink:href="#m0f54fdcd7d" x="183.36" y="377.035464" style="stroke: #000000; stroke-width: 0.8"/>
      </g>
     </g>
     <g id="text_4">
      <!-- 6.38 -->
      <g transform="translate(175.098389 401.748716) rotate(-30) scale(0.1 -0.1)">
       <defs>
        <path id="DejaVuSans-33" d="M 2597 2516 
Q 3050 2419 3304 2112 
Q 3559 1806 3559 1356 
Q 3559 666 3084 287 
Q 2609 -91 1734 -91 
Q 1441 -91 1130 -33 
Q 819 25 488 141 
L 488 750 
Q 750 597 1062 519 
Q 1375 441 1716 441 
Q 2309 441 2620 675 
Q 2931 909 2931 1356 
Q 2931 1769 2642 2001 
Q 2353 2234 1838 2234 
L 1294 2234 
L 1294 2753 
L 1863 2753 
Q 2328 2753 2575 2939 
Q 2822 3125 2822 3475 
Q 2822 3834 2567 4026 
Q 2313 4219 1838 4219 
Q 1578 4219 1281 4162 
Q 984 4106 628 3988 
L 628 4550 
Q 988 4650 1302 4700 
Q 1616 4750 1894 4750 
Q 2613 4750 3031 4423 
Q 3450 4097 3450 3541 
Q 3450 3153 3228 2886 
Q 3006 2619 2597 2516 
z
" transform="scale(0.015625)"/>
        <path id="DejaVuSans-38" d="M 2034 2216 
Q 1584 2216 1326 1975 
Q 1069 1734 1069 1313 
Q 1069 891 1326 650 
Q 1584 409 2034 409 
Q 2484 409 2743 651 
Q 3003 894 3003 1313 
Q 3003 1734 2745 1975 
Q 2488 2216 2034 2216 
z
M 1403 2484 
Q 997 2584 770 2862 
Q 544 3141 544 3541 
Q 544 4100 942 4425 
Q 1341 4750 2034 4750 
Q 2731 4750 3128 4425 
Q 3525 4100 3525 3541 
Q 3525 3141 3298 2862 
Q 3072 2584 2669 2484 
Q 3125 2378 3379 2068 
Q 3634 1759 3634 1313 
Q 3634 634 3220 271 
Q 2806 -91 2034 -91 
Q 1263 -91 848 271 
Q 434 634 434 1313 
Q 434 1759 690 2068 
Q 947 2378 1403 2484 
z
M 1172 3481 
Q 1172 3119 1398 2916 
Q 1625 2713 2034 2713 
Q 2441 2713 2670 2916 
Q 2900 3119 2900 3481 
Q 2900 3844 2670 4047 
Q 2441 4250 2034 4250 
Q 1625 4250 1398 4047 
Q 1172 3844 1172 3481 
z
" transform="scale(0.015625)"/>
       </defs>
       <use xlink:href="#DejaVuSans-36"/>
       <use xlink:href="#DejaVuSans-2e" x="63.623047"/>
       <use xlink:href="#DejaVuSans-33" x="95.410156"/>
       <use xlink:href="#DejaVuSans-38" x="159.033203"/>
      </g>
     </g>
    </g>
    <g id="xtick_5">
     <g id="line2d_5">
      <g>
       <use xlink:href="#m0f54fdcd7d" x="214.187273" y="377.035464" style="stroke: #000000; stroke-width: 0.8"/>
      </g>
     </g>
     <g id="text_5">
      <!-- 6.48 -->
      <g transform="translate(205.925662 401.748716) rotate(-30) scale(0.1 -0.1)">
       <defs>
        <path id="DejaVuSans-34" d="M 2419 4116 
L 825 1625 
L 2419 1625 
L 2419 4116 
z
M 2253 4666 
L 3047 4666 
L 3047 1625 
L 3713 1625 
L 3713 1100 
L 3047 1100 
L 3047 0 
L 2419 0 
L 2419 1100 
L 313 1100 
L 313 1709 
L 2253 4666 
z
" transform="scale(0.015625)"/>
       </defs>
       <use xlink:href="#DejaVuSans-36"/>
       <use xlink:href="#DejaVuSans-2e" x="63.623047"/>
       <use xlink:href="#DejaVuSans-34" x="95.410156"/>
       <use xlink:href="#DejaVuSans-38" x="159.033203"/>
      </g>
     </g>
    </g>
    <g id="xtick_6">
     <g id="line2d_6">
      <g>
       <use xlink:href="#m0f54fdcd7d" x="245.014545" y="377.035464" style="stroke: #000000; stroke-width: 0.8"/>
      </g>
     </g>
     <g id="text_6">
      <!-- 6.73 -->
      <g transform="translate(236.752935 401.748716) rotate(-30) scale(0.1 -0.1)">
       <use xlink:href="#DejaVuSans-36"/>
       <use xlink:href="#DejaVuSans-2e" x="63.623047"/>
       <use xlink:href="#DejaVuSans-37" x="95.410156"/>
       <use xlink:href="#DejaVuSans-33" x="159.033203"/>
      </g>
     </g>
    </g>
    <g id="xtick_7">
     <g id="line2d_7">
      <g>
       <use xlink:href="#m0f54fdcd7d" x="275.841818" y="377.035464" style="stroke: #000000; stroke-width: 0.8"/>
      </g>
     </g>
     <g id="text_7">
      <!-- 6.98 -->
      <g transform="translate(267.580207 401.748716) rotate(-30) scale(0.1 -0.1)">
       <defs>
        <path id="DejaVuSans-39" d="M 703 97 
L 703 672 
Q 941 559 1184 500 
Q 1428 441 1663 441 
Q 2288 441 2617 861 
Q 2947 1281 2994 2138 
Q 2813 1869 2534 1725 
Q 2256 1581 1919 1581 
Q 1219 1581 811 2004 
Q 403 2428 403 3163 
Q 403 3881 828 4315 
Q 1253 4750 1959 4750 
Q 2769 4750 3195 4129 
Q 3622 3509 3622 2328 
Q 3622 1225 3098 567 
Q 2575 -91 1691 -91 
Q 1453 -91 1209 -44 
Q 966 3 703 97 
z
M 1959 2075 
Q 2384 2075 2632 2365 
Q 2881 2656 2881 3163 
Q 2881 3666 2632 3958 
Q 2384 4250 1959 4250 
Q 1534 4250 1286 3958 
Q 1038 3666 1038 3163 
Q 1038 2656 1286 2365 
Q 1534 2075 1959 2075 
z
" transform="scale(0.015625)"/>
       </defs>
       <use xlink:href="#DejaVuSans-36"/>
       <use xlink:href="#DejaVuSans-2e" x="63.623047"/>
       <use xlink:href="#DejaVuSans-39" x="95.410156"/>
       <use xlink:href="#DejaVuSans-38" x="159.033203"/>
      </g>
     </g>
    </g>
    <g id="xtick_8">
     <g id="line2d_8">
      <g>
       <use xlink:href="#m0f54fdcd7d" x="306.669091" y="377.035464" style="stroke: #000000; stroke-width: 0.8"/>
      </g>
     </g>
     <g id="text_8">
      <!-- 7.23 -->
      <g transform="translate(298.40748 401.748716) rotate(-30) scale(0.1 -0.1)">
       <defs>
        <path id="DejaVuSans-32" d="M 1228 531 
L 3431 531 
L 3431 0 
L 469 0 
L 469 531 
Q 828 903 1448 1529 
Q 2069 2156 2228 2338 
Q 2531 2678 2651 2914 
Q 2772 3150 2772 3378 
Q 2772 3750 2511 3984 
Q 2250 4219 1831 4219 
Q 1534 4219 1204 4116 
Q 875 4013 500 3803 
L 500 4441 
Q 881 4594 1212 4672 
Q 1544 4750 1819 4750 
Q 2544 4750 2975 4387 
Q 3406 4025 3406 3419 
Q 3406 3131 3298 2873 
Q 3191 2616 2906 2266 
Q 2828 2175 2409 1742 
Q 1991 1309 1228 531 
z
" transform="scale(0.015625)"/>
       </defs>
       <use xlink:href="#DejaVuSans-37"/>
       <use xlink:href="#DejaVuSans-2e" x="63.623047"/>
       <use xlink:href="#DejaVuSans-32" x="95.410156"/>
       <use xlink:href="#DejaVuSans-33" x="159.033203"/>
      </g>
     </g>
    </g>
    <g id="xtick_9">
     <g id="line2d_9">
      <g>
       <use xlink:href="#m0f54fdcd7d" x="337.496364" y="377.035464" style="stroke: #000000; stroke-width: 0.8"/>
      </g>
     </g>
     <g id="text_9">
      <!-- 7.48 -->
      <g transform="translate(329.234753 401.748716) rotate(-30) scale(0.1 -0.1)">
       <use xlink:href="#DejaVuSans-37"/>
       <use xlink:href="#DejaVuSans-2e" x="63.623047"/>
       <use xlink:href="#DejaVuSans-34" x="95.410156"/>
       <use xlink:href="#DejaVuSans-38" x="159.033203"/>
      </g>
     </g>
    </g>
    <g id="xtick_10">
     <g id="line2d_10">
      <g>
       <use xlink:href="#m0f54fdcd7d" x="368.323636" y="377.035464" style="stroke: #000000; stroke-width: 0.8"/>
      </g>
     </g>
     <g id="text_10">
      <!-- 7.73 -->
      <g transform="translate(360.062025 401.748716) rotate(-30) scale(0.1 -0.1)">
       <use xlink:href="#DejaVuSans-37"/>
       <use xlink:href="#DejaVuSans-2e" x="63.623047"/>
       <use xlink:href="#DejaVuSans-37" x="95.410156"/>
       <use xlink:href="#DejaVuSans-33" x="159.033203"/>
      </g>
     </g>
    </g>
    <g id="xtick_11">
     <g id="line2d_11">
      <g>
       <use xlink:href="#m0f54fdcd7d" x="399.150909" y="377.035464" style="stroke: #000000; stroke-width: 0.8"/>
      </g>
     </g>
     <g id="text_11">
      <!-- 7.98 -->
      <g transform="translate(390.889298 401.748716) rotate(-30) scale(0.1 -0.1)">
       <use xlink:href="#DejaVuSans-37"/>
       <use xlink:href="#DejaVuSans-2e" x="63.623047"/>
       <use xlink:href="#DejaVuSans-39" x="95.410156"/>
       <use xlink:href="#DejaVuSans-38" x="159.033203"/>
      </g>
     </g>
    </g>
    <g id="xtick_12">
     <g id="line2d_12">
      <g>
       <use xlink:href="#m0f54fdcd7d" x="429.978182" y="377.035464" style="stroke: #000000; stroke-width: 0.8"/>
      </g>
     </g>
     <g id="text_12">
      <!-- 8.48 -->
      <g transform="translate(421.716571 401.748716) rotate(-30) scale(0.1 -0.1)">
       <use xlink:href="#DejaVuSans-38"/>
       <use xlink:href="#DejaVuSans-2e" x="63.623047"/>
       <use xlink:href="#DejaVuSans-34" x="95.410156"/>
       <use xlink:href="#DejaVuSans-38" x="159.033203"/>
      </g>
     </g>
    </g>
    <g id="xtick_13">
     <g id="line2d_13">
      <g>
       <use xlink:href="#m0f54fdcd7d" x="460.805455" y="377.035464" style="stroke: #000000; stroke-width: 0.8"/>
      </g>
     </g>
     <g id="text_13">
      <!-- 8.98 -->
      <g transform="translate(452.543844 401.748716) rotate(-30) scale(0.1 -0.1)">
       <use xlink:href="#DejaVuSans-38"/>
       <use xlink:href="#DejaVuSans-2e" x="63.623047"/>
       <use xlink:href="#DejaVuSans-39" x="95.410156"/>
       <use xlink:href="#DejaVuSans-38" x="159.033203"/>
      </g>
     </g>
    </g>
    <g id="xtick_14">
     <g id="line2d_14">
      <g>
       <use xlink:href="#m0f54fdcd7d" x="491.632727" y="377.035464" style="stroke: #000000; stroke-width: 0.8"/>
      </g>
     </g>
     <g id="text_14">
      <!-- 9.48 -->
      <g transform="translate(483.371116 401.748716) rotate(-30) scale(0.1 -0.1)">
       <use xlink:href="#DejaVuSans-39"/>
       <use xlink:href="#DejaVuSans-2e" x="63.623047"/>
       <use xlink:href="#DejaVuSans-34" x="95.410156"/>
       <use xlink:href="#DejaVuSans-38" x="159.033203"/>
      </g>
     </g>
    </g>
    <g id="xtick_15">
     <g id="line2d_15">
      <g>
       <use xlink:href="#m0f54fdcd7d" x="522.46" y="377.035464" style="stroke: #000000; stroke-width: 0.8"/>
      </g>
     </g>
     <g id="text_15">
      <!-- 9.98 -->
      <g transform="translate(514.198389 401.748716) rotate(-30) scale(0.1 -0.1)">
       <use xlink:href="#DejaVuSans-39"/>
       <use xlink:href="#DejaVuSans-2e" x="63.623047"/>
       <use xlink:href="#DejaVuSans-39" x="95.410156"/>
       <use xlink:href="#DejaVuSans-38" x="159.033203"/>
      </g>
     </g>
    </g>
    <g id="xtick_16">
     <g id="line2d_16">
      <g>
       <use xlink:href="#m0f54fdcd7d" x="553.287273" y="377.035464" style="stroke: #000000; stroke-width: 0.8"/>
      </g>
     </g>
     <g id="text_16">
      <!-- 10.98 -->
      <g transform="translate(542.270618 404.929966) rotate(-30) scale(0.1 -0.1)">
       <use xlink:href="#DejaVuSans-31"/>
       <use xlink:href="#DejaVuSans-30" x="63.623047"/>
       <use xlink:href="#DejaVuSans-2e" x="127.246094"/>
       <use xlink:href="#DejaVuSans-39" x="159.033203"/>
       <use xlink:href="#DejaVuSans-38" x="222.65625"/>
      </g>
     </g>
    </g>
    <g id="xtick_17">
     <g id="line2d_17">
      <g>
       <use xlink:href="#m0f54fdcd7d" x="584.114545" y="377.035464" style="stroke: #000000; stroke-width: 0.8"/>
      </g>
     </g>
     <g id="text_17">
      <!-- 11.98 -->
      <g transform="translate(573.097891 404.929966) rotate(-30) scale(0.1 -0.1)">
       <use xlink:href="#DejaVuSans-31"/>
       <use xlink:href="#DejaVuSans-31" x="63.623047"/>
       <use xlink:href="#DejaVuSans-2e" x="127.246094"/>
       <use xlink:href="#DejaVuSans-39" x="159.033203"/>
       <use xlink:href="#DejaVuSans-38" x="222.65625"/>
      </g>
     </g>
    </g>
    <g id="xtick_18">
     <g id="line2d_18">
      <g>
       <use xlink:href="#m0f54fdcd7d" x="614.941818" y="377.035464" style="stroke: #000000; stroke-width: 0.8"/>
      </g>
     </g>
     <g id="text_18">
      <!-- 13.98 -->
      <g transform="translate(603.925164 404.929966) rotate(-30) scale(0.1 -0.1)">
       <use xlink:href="#DejaVuSans-31"/>
       <use xlink:href="#DejaVuSans-33" x="63.623047"/>
       <use xlink:href="#DejaVuSans-2e" x="127.246094"/>
       <use xlink:href="#DejaVuSans-39" x="159.033203"/>
       <use xlink:href="#DejaVuSans-38" x="222.65625"/>
      </g>
     </g>
    </g>
    <g id="xtick_19">
     <g id="line2d_19">
      <g>
       <use xlink:href="#m0f54fdcd7d" x="645.769091" y="377.035464" style="stroke: #000000; stroke-width: 0.8"/>
      </g>
     </g>
     <g id="text_19">
      <!-- 15.98 -->
      <g transform="translate(634.752437 404.929966) rotate(-30) scale(0.1 -0.1)">
       <use xlink:href="#DejaVuSans-31"/>
       <use xlink:href="#DejaVuSans-35" x="63.623047"/>
       <use xlink:href="#DejaVuSans-2e" x="127.246094"/>
       <use xlink:href="#DejaVuSans-39" x="159.033203"/>
       <use xlink:href="#DejaVuSans-38" x="222.65625"/>
      </g>
     </g>
    </g>
    <g id="xtick_20">
     <g id="line2d_20">
      <g>
       <use xlink:href="#m0f54fdcd7d" x="676.596364" y="377.035464" style="stroke: #000000; stroke-width: 0.8"/>
      </g>
     </g>
     <g id="text_20">
      <!-- 17.98 -->
      <g transform="translate(665.579709 404.929966) rotate(-30) scale(0.1 -0.1)">
       <use xlink:href="#DejaVuSans-31"/>
       <use xlink:href="#DejaVuSans-37" x="63.623047"/>
       <use xlink:href="#DejaVuSans-2e" x="127.246094"/>
       <use xlink:href="#DejaVuSans-39" x="159.033203"/>
       <use xlink:href="#DejaVuSans-38" x="222.65625"/>
      </g>
     </g>
    </g>
    <g id="xtick_21">
     <g id="line2d_21">
      <g>
       <use xlink:href="#m0f54fdcd7d" x="707.423636" y="377.035464" style="stroke: #000000; stroke-width: 0.8"/>
      </g>
     </g>
     <g id="text_21">
      <!-- 18.18 -->
      <g transform="translate(696.406982 404.929966) rotate(-30) scale(0.1 -0.1)">
       <use xlink:href="#DejaVuSans-31"/>
       <use xlink:href="#DejaVuSans-38" x="63.623047"/>
       <use xlink:href="#DejaVuSans-2e" x="127.246094"/>
       <use xlink:href="#DejaVuSans-31" x="159.033203"/>
       <use xlink:href="#DejaVuSans-38" x="222.65625"/>
      </g>
     </g>
    </g>
    <g id="xtick_22">
     <g id="line2d_22">
      <g>
       <use xlink:href="#m0f54fdcd7d" x="738.250909" y="377.035464" style="stroke: #000000; stroke-width: 0.8"/>
      </g>
     </g>
     <g id="text_22">
      <!-- 18.28 -->
      <g transform="translate(727.234255 404.929966) rotate(-30) scale(0.1 -0.1)">
       <use xlink:href="#DejaVuSans-31"/>
       <use xlink:href="#DejaVuSans-38" x="63.623047"/>
       <use xlink:href="#DejaVuSans-2e" x="127.246094"/>
       <use xlink:href="#DejaVuSans-32" x="159.033203"/>
       <use xlink:href="#DejaVuSans-38" x="222.65625"/>
      </g>
     </g>
    </g>
    <g id="xtick_23">
     <g id="line2d_23">
      <g>
       <use xlink:href="#m0f54fdcd7d" x="769.078182" y="377.035464" style="stroke: #000000; stroke-width: 0.8"/>
      </g>
     </g>
     <g id="text_23">
      <!-- 18.42 -->
      <g transform="translate(758.061528 404.929966) rotate(-30) scale(0.1 -0.1)">
       <use xlink:href="#DejaVuSans-31"/>
       <use xlink:href="#DejaVuSans-38" x="63.623047"/>
       <use xlink:href="#DejaVuSans-2e" x="127.246094"/>
       <use xlink:href="#DejaVuSans-34" x="159.033203"/>
       <use xlink:href="#DejaVuSans-32" x="222.65625"/>
      </g>
     </g>
    </g>
    <g id="xtick_24">
     <g id="line2d_24">
      <g>
       <use xlink:href="#m0f54fdcd7d" x="799.905455" y="377.035464" style="stroke: #000000; stroke-width: 0.8"/>
      </g>
     </g>
     <g id="text_24">
      <!-- 18.58 -->
      <g transform="translate(788.8888 404.929966) rotate(-30) scale(0.1 -0.1)">
       <use xlink:href="#DejaVuSans-31"/>
       <use xlink:href="#DejaVuSans-38" x="63.623047"/>
       <use xlink:href="#DejaVuSans-2e" x="127.246094"/>
       <use xlink:href="#DejaVuSans-35" x="159.033203"/>
       <use xlink:href="#DejaVuSans-38" x="222.65625"/>
      </g>
     </g>
    </g>
    <g id="xtick_25">
     <g id="line2d_25">
      <g>
       <use xlink:href="#m0f54fdcd7d" x="830.732727" y="377.035464" style="stroke: #000000; stroke-width: 0.8"/>
      </g>
     </g>
     <g id="text_25">
      <!-- 18.83 -->
      <g transform="translate(819.716073 404.929966) rotate(-30) scale(0.1 -0.1)">
       <use xlink:href="#DejaVuSans-31"/>
       <use xlink:href="#DejaVuSans-38" x="63.623047"/>
       <use xlink:href="#DejaVuSans-2e" x="127.246094"/>
       <use xlink:href="#DejaVuSans-38" x="159.033203"/>
       <use xlink:href="#DejaVuSans-33" x="222.65625"/>
      </g>
     </g>
    </g>
    <g id="xtick_26">
     <g id="line2d_26">
      <g>
       <use xlink:href="#m0f54fdcd7d" x="861.56" y="377.035464" style="stroke: #000000; stroke-width: 0.8"/>
      </g>
     </g>
     <g id="text_26">
      <!-- 19.08 -->
      <g transform="translate(850.543346 404.929966) rotate(-30) scale(0.1 -0.1)">
       <use xlink:href="#DejaVuSans-31"/>
       <use xlink:href="#DejaVuSans-39" x="63.623047"/>
       <use xlink:href="#DejaVuSans-2e" x="127.246094"/>
       <use xlink:href="#DejaVuSans-30" x="159.033203"/>
       <use xlink:href="#DejaVuSans-38" x="222.65625"/>
      </g>
     </g>
    </g>
    <g id="xtick_27">
     <g id="line2d_27">
      <g>
       <use xlink:href="#m0f54fdcd7d" x="892.387273" y="377.035464" style="stroke: #000000; stroke-width: 0.8"/>
      </g>
     </g>
     <g id="text_27">
      <!-- 19.33 -->
      <g transform="translate(881.370618 404.929966) rotate(-30) scale(0.1 -0.1)">
       <use xlink:href="#DejaVuSans-31"/>
       <use xlink:href="#DejaVuSans-39" x="63.623047"/>
       <use xlink:href="#DejaVuSans-2e" x="127.246094"/>
       <use xlink:href="#DejaVuSans-33" x="159.033203"/>
       <use xlink:href="#DejaVuSans-33" x="222.65625"/>
      </g>
     </g>
    </g>
    <g id="xtick_28">
     <g id="line2d_28">
      <g>
       <use xlink:href="#m0f54fdcd7d" x="923.214545" y="377.035464" style="stroke: #000000; stroke-width: 0.8"/>
      </g>
     </g>
     <g id="text_28">
      <!-- 19.58 -->
      <g transform="translate(912.197891 404.929966) rotate(-30) scale(0.1 -0.1)">
       <use xlink:href="#DejaVuSans-31"/>
       <use xlink:href="#DejaVuSans-39" x="63.623047"/>
       <use xlink:href="#DejaVuSans-2e" x="127.246094"/>
       <use xlink:href="#DejaVuSans-35" x="159.033203"/>
       <use xlink:href="#DejaVuSans-38" x="222.65625"/>
      </g>
     </g>
    </g>
    <g id="xtick_29">
     <g id="line2d_29">
      <g>
       <use xlink:href="#m0f54fdcd7d" x="954.041818" y="377.035464" style="stroke: #000000; stroke-width: 0.8"/>
      </g>
     </g>
     <g id="text_29">
      <!-- 20.58 -->
      <g transform="translate(943.025164 404.929966) rotate(-30) scale(0.1 -0.1)">
       <use xlink:href="#DejaVuSans-32"/>
       <use xlink:href="#DejaVuSans-30" x="63.623047"/>
       <use xlink:href="#DejaVuSans-2e" x="127.246094"/>
       <use xlink:href="#DejaVuSans-35" x="159.033203"/>
       <use xlink:href="#DejaVuSans-38" x="222.65625"/>
      </g>
     </g>
    </g>
    <g id="text_30">
     <!-- Time (h) -->
     <g transform="translate(501.567031 418.329466) scale(0.1 -0.1)">
      <defs>
       <path id="DejaVuSans-54" d="M -19 4666 
L 3928 4666 
L 3928 4134 
L 2272 4134 
L 2272 0 
L 1638 0 
L 1638 4134 
L -19 4134 
L -19 4666 
z
" transform="scale(0.015625)"/>
       <path id="DejaVuSans-69" d="M 603 3500 
L 1178 3500 
L 1178 0 
L 603 0 
L 603 3500 
z
M 603 4863 
L 1178 4863 
L 1178 4134 
L 603 4134 
L 603 4863 
z
" transform="scale(0.015625)"/>
       <path id="DejaVuSans-6d" d="M 3328 2828 
Q 3544 3216 3844 3400 
Q 4144 3584 4550 3584 
Q 5097 3584 5394 3201 
Q 5691 2819 5691 2113 
L 5691 0 
L 5113 0 
L 5113 2094 
Q 5113 2597 4934 2840 
Q 4756 3084 4391 3084 
Q 3944 3084 3684 2787 
Q 3425 2491 3425 1978 
L 3425 0 
L 2847 0 
L 2847 2094 
Q 2847 2600 2669 2842 
Q 2491 3084 2119 3084 
Q 1678 3084 1418 2786 
Q 1159 2488 1159 1978 
L 1159 0 
L 581 0 
L 581 3500 
L 1159 3500 
L 1159 2956 
Q 1356 3278 1631 3431 
Q 1906 3584 2284 3584 
Q 2666 3584 2933 3390 
Q 3200 3197 3328 2828 
z
" transform="scale(0.015625)"/>
       <path id="DejaVuSans-65" d="M 3597 1894 
L 3597 1613 
L 953 1613 
Q 991 1019 1311 708 
Q 1631 397 2203 397 
Q 2534 397 2845 478 
Q 3156 559 3463 722 
L 3463 178 
Q 3153 47 2828 -22 
Q 2503 -91 2169 -91 
Q 1331 -91 842 396 
Q 353 884 353 1716 
Q 353 2575 817 3079 
Q 1281 3584 2069 3584 
Q 2775 3584 3186 3129 
Q 3597 2675 3597 1894 
z
M 3022 2063 
Q 3016 2534 2758 2815 
Q 2500 3097 2075 3097 
Q 1594 3097 1305 2825 
Q 1016 2553 972 2059 
L 3022 2063 
z
" transform="scale(0.015625)"/>
       <path id="DejaVuSans-20" transform="scale(0.015625)"/>
       <path id="DejaVuSans-28" d="M 1984 4856 
Q 1566 4138 1362 3434 
Q 1159 2731 1159 2009 
Q 1159 1288 1364 580 
Q 1569 -128 1984 -844 
L 1484 -844 
Q 1016 -109 783 600 
Q 550 1309 550 2009 
Q 550 2706 781 3412 
Q 1013 4119 1484 4856 
L 1984 4856 
z
" transform="scale(0.015625)"/>
       <path id="DejaVuSans-68" d="M 3513 2113 
L 3513 0 
L 2938 0 
L 2938 2094 
Q 2938 2591 2744 2837 
Q 2550 3084 2163 3084 
Q 1697 3084 1428 2787 
Q 1159 2491 1159 1978 
L 1159 0 
L 581 0 
L 581 4863 
L 1159 4863 
L 1159 2956 
Q 1366 3272 1645 3428 
Q 1925 3584 2291 3584 
Q 2894 3584 3203 3211 
Q 3513 2838 3513 2113 
z
" transform="scale(0.015625)"/>
       <path id="DejaVuSans-29" d="M 513 4856 
L 1013 4856 
Q 1481 4119 1714 3412 
Q 1947 2706 1947 2009 
Q 1947 1309 1714 600 
Q 1481 -109 1013 -844 
L 513 -844 
Q 928 -128 1133 580 
Q 1338 1288 1338 2009 
Q 1338 2731 1133 3434 
Q 928 4138 513 4856 
z
" transform="scale(0.015625)"/>
      </defs>
      <use xlink:href="#DejaVuSans-54"/>
      <use xlink:href="#DejaVuSans-69" x="57.958984"/>
      <use xlink:href="#DejaVuSans-6d" x="85.742188"/>
      <use xlink:href="#DejaVuSans-65" x="183.154297"/>
      <use xlink:href="#DejaVuSans-20" x="244.677734"/>
      <use xlink:href="#DejaVuSans-28" x="276.464844"/>
      <use xlink:href="#DejaVuSans-68" x="315.478516"/>
      <use xlink:href="#DejaVuSans-29" x="378.857422"/>
     </g>
    </g>
   </g>
   <g id="matplotlib.axis_2">
    <g id="ytick_1">
     <g id="line2d_30">
      <defs>
       <path id="m972ba29d74" d="M 0 0 
L -3.5 0 
" style="stroke: #000000; stroke-width: 0.8"/>
      </defs>
      <g>
       <use xlink:href="#m972ba29d74" x="47.72" y="358.602166" style="stroke: #000000; stroke-width: 0.8"/>
      </g>
     </g>
     <g id="text_31">
      <!-- 0.0 -->
      <g transform="translate(24.816875 362.401385) scale(0.1 -0.1)">
       <use xlink:href="#DejaVuSans-30"/>
       <use xlink:href="#DejaVuSans-2e" x="63.623047"/>
       <use xlink:href="#DejaVuSans-30" x="95.410156"/>
      </g>
     </g>
    </g>
    <g id="ytick_2">
     <g id="line2d_31">
      <g>
       <use xlink:href="#m972ba29d74" x="47.72" y="303.133286" style="stroke: #000000; stroke-width: 0.8"/>
      </g>
     </g>
     <g id="text_32">
      <!-- 0.2 -->
      <g transform="translate(24.816875 306.932505) scale(0.1 -0.1)">
       <use xlink:href="#DejaVuSans-30"/>
       <use xlink:href="#DejaVuSans-2e" x="63.623047"/>
       <use xlink:href="#DejaVuSans-32" x="95.410156"/>
      </g>
     </g>
    </g>
    <g id="ytick_3">
     <g id="line2d_32">
      <g>
       <use xlink:href="#m972ba29d74" x="47.72" y="247.664406" style="stroke: #000000; stroke-width: 0.8"/>
      </g>
     </g>
     <g id="text_33">
      <!-- 0.4 -->
      <g transform="translate(24.816875 251.463625) scale(0.1 -0.1)">
       <use xlink:href="#DejaVuSans-30"/>
       <use xlink:href="#DejaVuSans-2e" x="63.623047"/>
       <use xlink:href="#DejaVuSans-34" x="95.410156"/>
      </g>
     </g>
    </g>
    <g id="ytick_4">
     <g id="line2d_33">
      <g>
       <use xlink:href="#m972ba29d74" x="47.72" y="192.195526" style="stroke: #000000; stroke-width: 0.8"/>
      </g>
     </g>
     <g id="text_34">
      <!-- 0.6 -->
      <g transform="translate(24.816875 195.994745) scale(0.1 -0.1)">
       <use xlink:href="#DejaVuSans-30"/>
       <use xlink:href="#DejaVuSans-2e" x="63.623047"/>
       <use xlink:href="#DejaVuSans-36" x="95.410156"/>
      </g>
     </g>
    </g>
    <g id="ytick_5">
     <g id="line2d_34">
      <g>
       <use xlink:href="#m972ba29d74" x="47.72" y="136.726646" style="stroke: #000000; stroke-width: 0.8"/>
      </g>
     </g>
     <g id="text_35">
      <!-- 0.8 -->
      <g transform="translate(24.816875 140.525865) scale(0.1 -0.1)">
       <use xlink:href="#DejaVuSans-30"/>
       <use xlink:href="#DejaVuSans-2e" x="63.623047"/>
       <use xlink:href="#DejaVuSans-38" x="95.410156"/>
      </g>
     </g>
    </g>
    <g id="ytick_6">
     <g id="line2d_35">
      <g>
       <use xlink:href="#m972ba29d74" x="47.72" y="81.257766" style="stroke: #000000; stroke-width: 0.8"/>
      </g>
     </g>
     <g id="text_36">
      <!-- 1.0 -->
      <g transform="translate(24.816875 85.056985) scale(0.1 -0.1)">
       <use xlink:href="#DejaVuSans-31"/>
       <use xlink:href="#DejaVuSans-2e" x="63.623047"/>
       <use xlink:href="#DejaVuSans-30" x="95.410156"/>
      </g>
     </g>
    </g>
    <g id="ytick_7">
     <g id="line2d_36">
      <g>
       <use xlink:href="#m972ba29d74" x="47.72" y="25.788886" style="stroke: #000000; stroke-width: 0.8"/>
      </g>
     </g>
     <g id="text_37">
      <!-- 1.2 -->
      <g transform="translate(24.816875 29.588104) scale(0.1 -0.1)">
       <use xlink:href="#DejaVuSans-31"/>
       <use xlink:href="#DejaVuSans-2e" x="63.623047"/>
       <use xlink:href="#DejaVuSans-32" x="95.410156"/>
      </g>
     </g>
    </g>
    <g id="text_38">
     <!-- Normalized Value -->
     <g transform="translate(18.737187 237.593513) rotate(-90) scale(0.1 -0.1)">
      <defs>
       <path id="DejaVuSans-4e" d="M 628 4666 
L 1478 4666 
L 3547 763 
L 3547 4666 
L 4159 4666 
L 4159 0 
L 3309 0 
L 1241 3903 
L 1241 0 
L 628 0 
L 628 4666 
z
" transform="scale(0.015625)"/>
       <path id="DejaVuSans-6f" d="M 1959 3097 
Q 1497 3097 1228 2736 
Q 959 2375 959 1747 
Q 959 1119 1226 758 
Q 1494 397 1959 397 
Q 2419 397 2687 759 
Q 2956 1122 2956 1747 
Q 2956 2369 2687 2733 
Q 2419 3097 1959 3097 
z
M 1959 3584 
Q 2709 3584 3137 3096 
Q 3566 2609 3566 1747 
Q 3566 888 3137 398 
Q 2709 -91 1959 -91 
Q 1206 -91 779 398 
Q 353 888 353 1747 
Q 353 2609 779 3096 
Q 1206 3584 1959 3584 
z
" transform="scale(0.015625)"/>
       <path id="DejaVuSans-72" d="M 2631 2963 
Q 2534 3019 2420 3045 
Q 2306 3072 2169 3072 
Q 1681 3072 1420 2755 
Q 1159 2438 1159 1844 
L 1159 0 
L 581 0 
L 581 3500 
L 1159 3500 
L 1159 2956 
Q 1341 3275 1631 3429 
Q 1922 3584 2338 3584 
Q 2397 3584 2469 3576 
Q 2541 3569 2628 3553 
L 2631 2963 
z
" transform="scale(0.015625)"/>
       <path id="DejaVuSans-61" d="M 2194 1759 
Q 1497 1759 1228 1600 
Q 959 1441 959 1056 
Q 959 750 1161 570 
Q 1363 391 1709 391 
Q 2188 391 2477 730 
Q 2766 1069 2766 1631 
L 2766 1759 
L 2194 1759 
z
M 3341 1997 
L 3341 0 
L 2766 0 
L 2766 531 
Q 2569 213 2275 61 
Q 1981 -91 1556 -91 
Q 1019 -91 701 211 
Q 384 513 384 1019 
Q 384 1609 779 1909 
Q 1175 2209 1959 2209 
L 2766 2209 
L 2766 2266 
Q 2766 2663 2505 2880 
Q 2244 3097 1772 3097 
Q 1472 3097 1187 3025 
Q 903 2953 641 2809 
L 641 3341 
Q 956 3463 1253 3523 
Q 1550 3584 1831 3584 
Q 2591 3584 2966 3190 
Q 3341 2797 3341 1997 
z
" transform="scale(0.015625)"/>
       <path id="DejaVuSans-6c" d="M 603 4863 
L 1178 4863 
L 1178 0 
L 603 0 
L 603 4863 
z
" transform="scale(0.015625)"/>
       <path id="DejaVuSans-7a" d="M 353 3500 
L 3084 3500 
L 3084 2975 
L 922 459 
L 3084 459 
L 3084 0 
L 275 0 
L 275 525 
L 2438 3041 
L 353 3041 
L 353 3500 
z
" transform="scale(0.015625)"/>
       <path id="DejaVuSans-64" d="M 2906 2969 
L 2906 4863 
L 3481 4863 
L 3481 0 
L 2906 0 
L 2906 525 
Q 2725 213 2448 61 
Q 2172 -91 1784 -91 
Q 1150 -91 751 415 
Q 353 922 353 1747 
Q 353 2572 751 3078 
Q 1150 3584 1784 3584 
Q 2172 3584 2448 3432 
Q 2725 3281 2906 2969 
z
M 947 1747 
Q 947 1113 1208 752 
Q 1469 391 1925 391 
Q 2381 391 2643 752 
Q 2906 1113 2906 1747 
Q 2906 2381 2643 2742 
Q 2381 3103 1925 3103 
Q 1469 3103 1208 2742 
Q 947 2381 947 1747 
z
" transform="scale(0.015625)"/>
       <path id="DejaVuSans-56" d="M 1831 0 
L 50 4666 
L 709 4666 
L 2188 738 
L 3669 4666 
L 4325 4666 
L 2547 0 
L 1831 0 
z
" transform="scale(0.015625)"/>
       <path id="DejaVuSans-75" d="M 544 1381 
L 544 3500 
L 1119 3500 
L 1119 1403 
Q 1119 906 1312 657 
Q 1506 409 1894 409 
Q 2359 409 2629 706 
Q 2900 1003 2900 1516 
L 2900 3500 
L 3475 3500 
L 3475 0 
L 2900 0 
L 2900 538 
Q 2691 219 2414 64 
Q 2138 -91 1772 -91 
Q 1169 -91 856 284 
Q 544 659 544 1381 
z
M 1991 3584 
L 1991 3584 
z
" transform="scale(0.015625)"/>
      </defs>
      <use xlink:href="#DejaVuSans-4e"/>
      <use xlink:href="#DejaVuSans-6f" x="74.804688"/>
      <use xlink:href="#DejaVuSans-72" x="135.986328"/>
      <use xlink:href="#DejaVuSans-6d" x="175.349609"/>
      <use xlink:href="#DejaVuSans-61" x="272.761719"/>
      <use xlink:href="#DejaVuSans-6c" x="334.041016"/>
      <use xlink:href="#DejaVuSans-69" x="361.824219"/>
      <use xlink:href="#DejaVuSans-7a" x="389.607422"/>
      <use xlink:href="#DejaVuSans-65" x="442.097656"/>
      <use xlink:href="#DejaVuSans-64" x="503.621094"/>
      <use xlink:href="#DejaVuSans-20" x="567.097656"/>
      <use xlink:href="#DejaVuSans-56" x="598.884766"/>
      <use xlink:href="#DejaVuSans-61" x="659.542969"/>
      <use xlink:href="#DejaVuSans-6c" x="720.822266"/>
      <use xlink:href="#DejaVuSans-75" x="748.605469"/>
      <use xlink:href="#DejaVuSans-65" x="811.984375"/>
     </g>
    </g>
   </g>
   <g id="line2d_37">
    <path d="M 90.878182 109.191731 
L 93.765017 91.35465 
L 96.651852 78.840717 
L 99.538687 71.253838 
L 102.425521 68.197917 
L 105.312356 69.27686 
L 108.199191 74.094571 
L 111.086026 82.254957 
L 113.972861 93.36192 
L 116.859696 107.019368 
L 119.746531 122.831204 
L 122.633366 140.401335 
L 125.520201 159.333663 
L 131.29387 199.700537 
L 137.06754 240.763067 
L 139.954375 260.564965 
L 142.84121 279.352491 
L 145.728045 296.729552 
L 148.61488 312.300051 
L 151.501715 325.667895 
L 154.38855 336.467638 
L 157.275385 344.722799 
L 160.16222 350.724262 
L 163.049054 354.768167 
L 165.935889 357.150654 
L 168.822724 358.167863 
L 171.709559 358.115932 
L 174.596394 357.291004 
L 177.483229 355.989217 
L 183.256899 353.139626 
L 186.143734 352.132304 
L 189.030569 351.498448 
L 191.917403 351.187587 
L 194.804238 351.149249 
L 197.691073 351.332962 
L 200.577908 351.688254 
L 206.351578 352.711684 
L 212.125248 353.81576 
L 217.898918 354.619394 
L 223.672587 355.029431 
L 229.446257 355.150637 
L 238.106762 355.028573 
L 249.654102 354.859564 
L 258.314606 355.004044 
L 266.975111 355.397871 
L 275.635616 356.038136 
L 290.06979 357.476906 
L 298.730295 358.228485 
L 304.503965 358.540823 
L 310.277635 358.627893 
L 316.051304 358.499046 
L 324.711809 358.035687 
L 344.919653 356.771668 
L 353.580158 356.512579 
L 362.240663 356.507282 
L 370.901168 356.796493 
L 391.109012 357.863587 
L 396.882682 357.897535 
L 402.656351 357.661786 
L 408.430021 357.177651 
L 419.977361 355.85237 
L 428.637866 354.933583 
L 434.411535 354.533413 
L 440.185205 354.342778 
L 445.958875 354.354374 
L 451.732545 354.560676 
L 457.506215 354.95416 
L 466.166719 355.854118 
L 474.827224 356.739235 
L 480.600894 357.002299 
L 483.487729 356.963283 
L 486.374564 356.778369 
L 489.261399 356.423411 
L 492.148234 355.874324 
L 495.035068 355.125392 
L 497.921903 354.214429 
L 503.695573 352.082883 
L 512.356078 348.77331 
L 515.242913 347.816661 
L 518.129748 347.006815 
L 521.016583 346.387891 
L 523.903417 346.002272 
L 526.790252 345.85238 
L 529.677087 345.900681 
L 532.563922 346.1079 
L 538.337592 346.842003 
L 546.998097 348.153226 
L 549.884932 348.489227 
L 552.771766 348.709235 
L 555.658601 348.779053 
L 558.545436 348.699506 
L 561.432271 348.486197 
L 567.205941 347.72092 
L 572.979611 346.608472 
L 581.640116 344.562835 
L 593.187455 341.782253 
L 598.961125 340.633965 
L 604.734795 339.799718 
L 607.62163 339.536139 
L 610.508465 339.394006 
L 613.395299 339.387629 
L 616.282134 339.53086 
L 619.168969 339.824955 
L 622.055804 340.257345 
L 627.829474 341.483901 
L 633.603144 343.104313 
L 639.376814 345.012367 
L 653.810988 350.125497 
L 656.697823 350.852091 
L 659.584658 351.314901 
L 662.471493 351.44003 
L 665.358328 351.153586 
L 668.245163 350.381674 
L 671.131998 349.050398 
L 674.018832 347.085865 
L 676.905667 344.414212 
L 679.792502 340.996687 
L 682.679337 336.896706 
L 685.566172 332.196167 
L 688.453007 326.976969 
L 691.339842 321.32101 
L 694.226677 315.310188 
L 700.000347 302.551549 
L 711.547686 276.367818 
L 717.321356 264.115654 
L 720.208191 258.410885 
L 723.095026 253.064293 
L 725.981861 248.133853 
L 728.868696 243.677541 
L 731.755531 239.753332 
L 734.642365 236.419202 
L 737.5292 233.733127 
L 740.416035 231.744699 
L 743.30287 230.430562 
L 746.189705 229.729795 
L 749.07654 229.581167 
L 751.963375 229.923448 
L 754.85021 230.695407 
L 757.737045 231.835813 
L 760.62388 233.283435 
L 763.510715 234.977042 
L 769.284384 238.857289 
L 775.058054 242.9264 
L 777.944889 244.795166 
L 780.831724 246.417477 
L 783.718559 247.691385 
L 786.605394 248.514946 
L 789.492229 248.78621 
L 792.379064 248.403233 
L 795.265898 247.264066 
L 798.152733 245.266764 
L 801.039568 242.311843 
L 803.926403 238.399773 
L 806.813238 233.663334 
L 809.700073 228.244396 
L 812.586908 222.284834 
L 818.360578 209.311325 
L 827.021082 189.343193 
L 829.907917 183.119208 
L 832.794752 177.333838 
L 835.681587 171.97884 
L 838.568422 166.968637 
L 844.342092 157.636764 
L 853.002597 144.063331 
L 855.889431 139.306166 
L 858.776266 134.28855 
L 861.663101 128.924023 
L 867.436771 117.178998 
L 873.210441 105.155198 
L 876.097276 99.481595 
L 878.984111 94.269701 
L 881.870946 89.696653 
L 884.75778 85.939584 
L 887.644615 83.17563 
L 890.53145 81.581925 
L 893.418285 81.33321 
L 896.30512 82.482454 
L 899.191955 84.905474 
L 902.07879 88.464127 
L 904.965625 93.020269 
L 907.85246 98.435758 
L 910.739295 104.57245 
L 913.62613 111.292202 
L 916.512964 118.45687 
L 922.286634 133.568384 
L 928.060304 148.801847 
L 930.947139 156.11895 
L 933.833974 163.052111 
L 936.720809 169.463187 
L 939.607644 175.214033 
L 942.494479 180.166507 
L 945.381313 184.182465 
L 948.268148 187.123765 
L 951.154983 188.852263 
L 954.041818 189.229816 
L 954.041818 189.229816 
" clip-path="url(#p00b7e51da0)" style="fill: none; stroke-dasharray: 5.55,2.4; stroke-dashoffset: 0; stroke: #fe632a; stroke-width: 1.5"/>
   </g>
   <g id="line2d_38">
    <path d="M 90.878182 134.900692 
L 93.765017 98.605286 
L 96.651852 70.427503 
L 99.538687 49.795066 
L 102.425521 36.135699 
L 105.312356 28.877125 
L 108.199191 27.447067 
L 111.086026 31.273248 
L 113.972861 39.783392 
L 116.859696 52.405223 
L 119.746531 68.566463 
L 122.633366 87.694835 
L 125.520201 109.218064 
L 128.407036 132.563872 
L 134.180705 182.43412 
L 139.954375 232.727366 
L 142.84121 256.601921 
L 145.728045 278.865396 
L 148.61488 298.945513 
L 151.501715 316.269996 
L 154.38855 330.308851 
L 157.275385 341.068644 
L 160.16222 348.924769 
L 163.049054 354.259867 
L 165.935889 357.456581 
L 168.822724 358.897552 
L 171.709559 358.965422 
L 174.596394 358.042835 
L 177.483229 356.512431 
L 180.370064 354.756853 
L 183.256899 353.158743 
L 186.143734 352.03243 
L 189.030569 351.388063 
L 191.917403 351.151159 
L 194.804238 351.247231 
L 197.691073 351.601793 
L 203.464743 352.78844 
L 209.238413 354.115205 
L 212.125248 354.644915 
L 215.012083 354.98663 
L 217.898918 355.104205 
L 220.785753 355.028276 
L 223.672587 354.796279 
L 229.446257 354.013827 
L 240.993597 352.223287 
L 243.880432 351.94702 
L 246.767267 351.8121 
L 249.654102 351.82375 
L 255.427771 352.216007 
L 261.201441 352.979482 
L 269.861946 354.503826 
L 278.522451 356.050684 
L 284.29612 356.916269 
L 290.06979 357.619322 
L 295.84346 358.145141 
L 301.61713 358.479025 
L 307.3908 358.606292 
L 313.164469 358.529065 
L 321.824974 358.138455 
L 344.919653 356.810796 
L 353.580158 356.578526 
L 362.240663 356.526105 
L 373.788002 356.713867 
L 382.448507 356.784621 
L 388.222177 356.57213 
L 393.995847 356.005712 
L 396.882682 355.550619 
L 399.769517 354.960136 
L 405.543186 353.402256 
L 419.977361 348.913235 
L 422.864196 348.196835 
L 425.751031 347.623529 
L 428.637866 347.228727 
L 431.524701 347.046221 
L 434.411535 347.078121 
L 437.29837 347.297676 
L 440.185205 347.677082 
L 445.958875 348.804225 
L 451.732545 350.237106 
L 460.39305 352.473099 
L 466.166719 353.705389 
L 469.053554 354.175779 
L 471.940389 354.522217 
L 474.827224 354.724617 
L 477.714059 354.762893 
L 480.600894 354.616957 
L 483.487729 354.266725 
L 486.374564 353.69211 
L 489.261399 352.873025 
L 492.148234 351.789464 
L 495.035068 350.443688 
L 497.921903 348.890737 
L 503.695573 345.414052 
L 509.469243 341.860893 
L 512.356078 340.21235 
L 515.242913 338.732745 
L 518.129748 337.484765 
L 521.016583 336.531094 
L 523.903417 335.93185 
L 526.790252 335.688072 
L 529.677087 335.741721 
L 532.563922 336.032191 
L 535.450757 336.498875 
L 549.884932 339.35426 
L 552.771766 339.605482 
L 555.658601 339.616993 
L 558.545436 339.393971 
L 561.432271 338.965837 
L 564.319106 338.362097 
L 567.205941 337.61226 
L 572.979611 335.792322 
L 587.413785 330.747423 
L 593.187455 329.078087 
L 596.07429 328.387027 
L 598.961125 327.810452 
L 601.84796 327.362422 
L 604.734795 327.056997 
L 607.62163 326.908237 
L 610.508465 326.9302 
L 613.395299 327.136949 
L 616.282134 327.541553 
L 619.168969 328.130052 
L 624.942639 329.682659 
L 633.603144 332.273256 
L 636.489979 333.025948 
L 639.376814 333.64796 
L 642.263649 334.094137 
L 645.150483 334.319322 
L 648.037318 334.282229 
L 650.924153 333.971519 
L 653.810988 333.389822 
L 656.697823 332.539847 
L 659.584658 331.424303 
L 662.471493 330.045897 
L 665.358328 328.407339 
L 668.245163 326.511337 
L 671.131998 324.360599 
L 674.018832 321.957835 
L 676.905667 319.30576 
L 679.792502 316.413832 
L 682.679337 313.311144 
L 688.453007 306.60405 
L 694.226677 299.445608 
L 708.660851 281.288204 
L 714.434521 274.546705 
L 720.208191 268.284471 
L 725.981861 262.5613 
L 728.868696 259.92055 
L 731.755531 257.436988 
L 734.642365 255.118091 
L 737.5292 252.971332 
L 740.416035 251.007449 
L 743.30287 249.265572 
L 746.189705 247.799453 
L 749.07654 246.662962 
L 751.963375 245.909971 
L 754.85021 245.594353 
L 757.737045 245.769978 
L 760.62388 246.490719 
L 763.510715 247.810446 
L 766.397549 249.783032 
L 769.284384 252.462331 
L 772.171219 255.845515 
L 775.058054 259.746557 
L 783.718559 272.327133 
L 786.605394 276.06991 
L 789.492229 279.215696 
L 792.379064 281.541522 
L 795.265898 282.824419 
L 798.152733 282.841416 
L 801.039568 281.374051 
L 803.926403 278.386637 
L 806.813238 274.085437 
L 809.700073 268.69334 
L 812.586908 262.433239 
L 815.473743 255.528026 
L 821.247413 240.673826 
L 827.021082 225.913871 
L 829.907917 219.126465 
L 832.794752 213.009449 
L 835.681587 207.549251 
L 838.568422 202.610489 
L 841.455257 198.056378 
L 853.002597 180.950798 
L 855.889431 176.268206 
L 858.776266 171.149569 
L 861.663101 165.458108 
L 864.549936 159.125955 
L 870.323606 145.314443 
L 876.097276 131.542893 
L 878.984111 125.260693 
L 881.870946 119.69479 
L 884.75778 115.08062 
L 887.644615 111.653619 
L 890.53145 109.649221 
L 893.418285 109.299532 
L 896.30512 110.667167 
L 899.191955 113.568172 
L 902.07879 117.799166 
L 904.965625 123.156766 
L 907.85246 129.437587 
L 910.739295 136.438247 
L 913.62613 143.955363 
L 925.173469 175.120725 
L 928.060304 182.169375 
L 930.947139 188.514182 
L 933.833974 193.951764 
L 936.720809 198.278738 
L 939.607644 201.291719 
L 942.494479 202.787326 
L 945.381313 202.562175 
L 948.268148 200.412884 
L 951.154983 196.136068 
L 954.041818 189.528346 
L 954.041818 189.528346 
" clip-path="url(#p00b7e51da0)" style="fill: none; stroke-dasharray: 5.55,2.4; stroke-dashoffset: 0; stroke: #cd5c5c; stroke-width: 1.5"/>
   </g>
   <g id="line2d_39">
    <path d="M 90.878182 81.257766 
L 93.765017 90.030443 
L 96.651852 99.681556 
L 99.538687 110.109729 
L 102.425521 121.213588 
L 105.312356 132.891757 
L 111.086026 157.565524 
L 119.746531 196.349123 
L 128.407036 234.827255 
L 134.180705 258.957972 
L 137.06754 270.262794 
L 139.954375 280.925424 
L 142.84121 290.844487 
L 145.728045 299.918609 
L 148.61488 308.046414 
L 151.501715 315.126527 
L 154.38855 321.067217 
L 157.275385 325.899122 
L 160.16222 329.736999 
L 163.049054 332.697258 
L 165.935889 334.896308 
L 168.822724 336.45056 
L 171.709559 337.476423 
L 174.596394 338.090306 
L 177.483229 338.40862 
L 191.917403 339.119736 
L 197.691073 339.691028 
L 206.351578 340.836122 
L 215.012083 342.239134 
L 226.559422 344.35739 
L 278.522451 354.276015 
L 290.06979 356.364645 
L 298.730295 357.673892 
L 304.503965 358.33435 
L 310.277635 358.772624 
L 316.051304 358.993873 
L 321.824974 359.038894 
L 330.485479 358.866965 
L 359.353828 357.90803 
L 365.127498 357.956962 
L 370.901168 358.180489 
L 388.222177 359.0982 
L 393.995847 359.022796 
L 396.882682 358.834482 
L 399.769517 358.522394 
L 405.543186 357.538848 
L 414.203691 355.568703 
L 419.977361 354.253676 
L 425.751031 353.199999 
L 428.637866 352.841514 
L 431.524701 352.631631 
L 434.411535 352.574832 
L 437.29837 352.655093 
L 443.07204 353.159698 
L 448.84571 354.011261 
L 457.506215 355.645618 
L 466.166719 357.297098 
L 471.940389 358.125123 
L 474.827224 358.382794 
L 477.714059 358.502965 
L 480.600894 358.460684 
L 483.487729 358.230996 
L 486.374564 357.788949 
L 489.261399 357.109589 
L 492.148234 356.168044 
L 495.035068 354.962712 
L 497.921903 353.547137 
L 503.695573 350.331384 
L 509.469243 347.013044 
L 512.356078 345.469235 
L 515.242913 344.084376 
L 518.129748 342.92 
L 521.016583 342.037639 
L 523.903417 341.496346 
L 526.790252 341.298122 
L 529.677087 341.387925 
L 532.563922 341.708226 
L 535.450757 342.201502 
L 541.224427 343.476874 
L 546.998097 344.753836 
L 549.884932 345.249099 
L 552.771766 345.572183 
L 555.658601 345.673093 
L 558.545436 345.553816 
L 561.432271 345.238271 
L 564.319106 344.750457 
L 567.205941 344.114371 
L 572.979611 342.493375 
L 578.753281 340.567265 
L 590.30062 336.557882 
L 596.07429 334.807638 
L 601.84796 333.421725 
L 604.734795 332.910531 
L 607.62163 332.544584 
L 610.508465 332.34194 
L 613.395299 332.320654 
L 616.282134 332.498136 
L 619.168969 332.87416 
L 622.055804 333.429143 
L 624.942639 334.142509 
L 627.829474 334.993685 
L 633.603144 337.027167 
L 639.376814 339.364994 
L 650.924153 344.236997 
L 653.810988 345.239555 
L 656.697823 346.003025 
L 659.584658 346.445393 
L 662.471493 346.484643 
L 665.358328 346.038763 
L 668.245163 345.025737 
L 671.131998 343.363551 
L 674.018832 340.970191 
L 676.905667 337.763698 
L 679.792502 333.723086 
L 682.679337 329.004796 
L 685.566172 323.797364 
L 697.113512 301.846969 
L 700.000347 297.021887 
L 702.887182 292.838887 
L 705.774016 289.486504 
L 708.660851 287.147744 
L 711.547686 285.822823 
L 714.434521 285.291671 
L 717.321356 285.321104 
L 725.981861 286.441061 
L 728.868696 286.380984 
L 731.755531 285.715567 
L 734.642365 284.211626 
L 737.5292 281.635977 
L 740.416035 277.793717 
L 743.30287 272.823154 
L 746.189705 267.034165 
L 751.963375 254.246081 
L 754.85021 247.869572 
L 757.737045 241.919809 
L 760.62388 236.708087 
L 763.510715 232.545697 
L 766.397549 229.743934 
L 769.284384 228.614049 
L 772.171219 229.325343 
L 775.058054 231.588341 
L 777.944889 235.021052 
L 780.831724 239.241488 
L 786.605394 248.517572 
L 789.492229 252.809242 
L 792.379064 256.360678 
L 795.265898 258.78989 
L 798.152733 259.714889 
L 801.039568 258.760569 
L 803.926403 255.831129 
L 806.813238 251.20048 
L 809.700073 245.167944 
L 812.586908 238.032848 
L 815.473743 230.094514 
L 827.021082 196.295287 
L 829.907917 188.830628 
L 832.794752 182.331114 
L 835.681587 176.797731 
L 838.568422 172.077778 
L 841.455257 168.016787 
L 844.342092 164.460294 
L 847.228927 161.253831 
L 855.889431 152.189964 
L 858.776266 148.838962 
L 861.663101 145.065662 
L 864.549936 140.772557 
L 867.436771 136.066855 
L 878.984111 116.181695 
L 881.870946 111.710725 
L 884.75778 107.746244 
L 887.644615 104.441436 
L 890.53145 101.94948 
L 893.418285 100.421657 
L 896.30512 99.912469 
L 899.191955 100.335629 
L 902.07879 101.593757 
L 904.965625 103.589471 
L 907.85246 106.225393 
L 910.739295 109.404139 
L 913.62613 113.028331 
L 916.512964 117.000586 
L 922.286634 125.599766 
L 928.060304 134.422633 
L 930.947139 138.674497 
L 933.833974 142.690141 
L 936.720809 146.372183 
L 939.607644 149.623243 
L 942.494479 152.34594 
L 945.381313 154.442893 
L 948.268148 155.816722 
L 951.154983 156.370046 
L 954.041818 156.005484 
L 954.041818 156.005484 
" clip-path="url(#p00b7e51da0)" style="fill: none; stroke-dasharray: 5.55,2.4; stroke-dashoffset: 0; stroke: #e8a317; stroke-width: 1.5"/>
   </g>
   <g id="line2d_40">
    <path d="M 90.878182 81.257766 
L 93.765017 121.311356 
L 96.651852 157.197747 
L 99.538687 189.118246 
L 102.425521 217.27416 
L 105.312356 241.866797 
L 108.199191 263.097465 
L 111.086026 281.167473 
L 113.972861 296.278127 
L 116.859696 308.630736 
L 119.746531 318.426608 
L 122.633366 325.867049 
L 125.520201 331.153369 
L 128.407036 334.486875 
L 131.29387 336.068874 
L 134.180705 336.100674 
L 137.06754 334.783584 
L 139.954375 332.318911 
L 142.84121 328.907963 
L 145.728045 324.752048 
L 148.61488 320.052473 
L 154.38855 309.823697 
L 160.16222 299.574227 
L 163.049054 294.739689 
L 165.935889 290.250227 
L 168.822724 286.219549 
L 171.709559 282.761364 
L 174.596394 279.989382 
L 177.483229 278.017309 
L 180.370064 276.958856 
L 183.256899 276.927729 
L 186.143734 277.999518 
L 189.030569 280.080067 
L 191.917403 283.027992 
L 194.804238 286.701908 
L 197.691073 290.960431 
L 200.577908 295.662175 
L 206.351578 305.829786 
L 212.125248 316.073661 
L 215.012083 320.871297 
L 217.898918 325.313898 
L 220.785753 329.395778 
L 223.672587 333.120031 
L 226.559422 336.489745 
L 229.446257 339.508012 
L 232.333092 342.177922 
L 235.219927 344.502567 
L 238.106762 346.485037 
L 240.993597 348.128423 
L 243.880432 349.435815 
L 246.767267 350.411701 
L 249.654102 351.080875 
L 252.540936 351.483471 
L 255.427771 351.660003 
L 258.314606 351.650985 
L 264.088276 351.238352 
L 275.635616 349.969076 
L 281.409285 349.698943 
L 287.182955 349.746924 
L 292.956625 350.024216 
L 304.503965 350.911504 
L 316.051304 351.737354 
L 333.372314 352.931977 
L 342.032818 353.741063 
L 359.353828 355.50631 
L 365.127498 355.9096 
L 370.901168 356.116862 
L 376.674837 356.128754 
L 388.222177 355.857823 
L 396.882682 355.695208 
L 402.656351 355.743619 
L 411.316856 356.065978 
L 437.29837 357.343601 
L 448.84571 357.529656 
L 463.279884 357.488449 
L 489.261399 357.320138 
L 500.808738 357.537608 
L 538.337592 358.586145 
L 549.884932 358.62663 
L 567.205941 358.397746 
L 578.753281 358.343963 
L 587.413785 358.542723 
L 598.961125 358.88357 
L 604.734795 358.79467 
L 610.508465 358.352304 
L 613.395299 357.956247 
L 616.282134 357.421962 
L 622.055804 356.0044 
L 633.603144 352.848114 
L 636.489979 352.218432 
L 639.376814 351.730095 
L 642.263649 351.421896 
L 645.150483 351.332629 
L 648.037318 351.493675 
L 650.924153 351.879045 
L 653.810988 352.435988 
L 659.584658 353.852985 
L 665.358328 355.321454 
L 668.245163 355.942737 
L 671.131998 356.418184 
L 674.018832 356.694894 
L 676.905667 356.719987 
L 679.792502 356.466151 
L 682.679337 355.980461 
L 688.453007 354.555659 
L 697.113512 352.192903 
L 700.000347 351.587305 
L 702.887182 351.173591 
L 705.774016 351.012295 
L 708.660851 351.162029 
L 711.547686 351.617975 
L 714.434521 352.298864 
L 725.981861 355.555473 
L 728.868696 356.073794 
L 731.755531 356.302144 
L 734.642365 356.154704 
L 737.5292 355.545655 
L 740.416035 354.405752 
L 743.30287 352.810006 
L 746.189705 350.907701 
L 754.85021 344.86043 
L 757.737045 343.230886 
L 760.62388 342.044282 
L 763.510715 341.450516 
L 766.397549 341.599488 
L 769.284384 342.641069 
L 772.171219 344.630025 
L 775.058054 347.313741 
L 783.718559 356.387445 
L 786.605394 358.704201 
L 789.492229 360.142718 
L 792.379064 360.388397 
L 795.265898 359.126639 
L 798.152733 356.042842 
L 801.039568 350.82888 
L 803.926403 343.439125 
L 806.813238 334.175421 
L 809.700073 323.3635 
L 812.586908 311.329092 
L 815.473743 298.397928 
L 827.021082 244.220308 
L 829.907917 231.691315 
L 832.794752 220.19642 
L 835.681587 209.806692 
L 838.568422 200.462007 
L 841.455257 192.10074 
L 844.342092 184.661263 
L 847.228927 178.081949 
L 850.115762 172.30117 
L 853.002597 167.257299 
L 855.889431 162.888709 
L 858.776266 159.133772 
L 861.663101 155.930863 
L 864.549936 153.228269 
L 867.436771 151.009918 
L 870.323606 149.267742 
L 873.210441 147.993673 
L 876.097276 147.179643 
L 878.984111 146.817582 
L 881.870946 146.899422 
L 884.75778 147.417096 
L 887.644615 148.362534 
L 890.53145 149.727669 
L 893.418285 151.503952 
L 896.30512 153.658445 
L 899.191955 156.122726 
L 902.07879 158.825579 
L 907.85246 164.662128 
L 913.62613 170.598352 
L 916.512964 173.425799 
L 919.399799 176.064511 
L 922.286634 178.443272 
L 925.173469 180.490865 
L 928.060304 182.136071 
L 930.947139 183.307673 
L 933.833974 183.934454 
L 936.720809 183.945196 
L 939.607644 183.268682 
L 942.494479 181.833694 
L 945.381313 179.569014 
L 948.268148 176.403426 
L 951.154983 172.265711 
L 954.041818 167.084653 
L 954.041818 167.084653 
" clip-path="url(#p00b7e51da0)" style="fill: none; stroke: #f88017; stroke-width: 4; stroke-linecap: square"/>
   </g>
   <g id="patch_3">
    <path d="M 47.72 377.035464 
L 47.72 10.8 
" style="fill: none; stroke: #000000; stroke-width: 0.8; stroke-linejoin: miter; stroke-linecap: square"/>
   </g>
   <g id="patch_4">
    <path d="M 997.2 377.035464 
L 997.2 10.8 
" style="fill: none; stroke: #000000; stroke-width: 0.8; stroke-linejoin: miter; stroke-linecap: square"/>
   </g>
   <g id="patch_5">
    <path d="M 47.72 377.035464 
L 997.2 377.035464 
" style="fill: none; stroke: #000000; stroke-width: 0.8; stroke-linejoin: miter; stroke-linecap: square"/>
   </g>
   <g id="patch_6">
    <path d="M 47.72 10.8 
L 997.2 10.8 
" style="fill: none; stroke: #000000; stroke-width: 0.8; stroke-linejoin: miter; stroke-linecap: square"/>
   </g>
   <g id="legend_1">
    <g id="patch_7">
     <path d="M 903.715625 77.5125 
L 990.2 77.5125 
Q 992.2 77.5125 992.2 75.5125 
L 992.2 17.8 
Q 992.2 15.8 990.2 15.8 
L 903.715625 15.8 
Q 901.715625 15.8 901.715625 17.8 
L 901.715625 75.5125 
Q 901.715625 77.5125 903.715625 77.5125 
z
" style="fill: #ffffff; opacity: 0.8; stroke: #cccccc; stroke-linejoin: miter"/>
    </g>
    <g id="line2d_41">
     <path d="M 905.715625 23.898438 
L 915.715625 23.898438 
L 925.715625 23.898438 
" style="fill: none; stroke-dasharray: 5.55,2.4; stroke-dashoffset: 0; stroke: #fe632a; stroke-width: 1.5"/>
    </g>
    <g id="text_39">
     <!-- aceE -->
     <g transform="translate(933.715625 27.398438) scale(0.1 -0.1)">
      <defs>
       <path id="DejaVuSans-63" d="M 3122 3366 
L 3122 2828 
Q 2878 2963 2633 3030 
Q 2388 3097 2138 3097 
Q 1578 3097 1268 2742 
Q 959 2388 959 1747 
Q 959 1106 1268 751 
Q 1578 397 2138 397 
Q 2388 397 2633 464 
Q 2878 531 3122 666 
L 3122 134 
Q 2881 22 2623 -34 
Q 2366 -91 2075 -91 
Q 1284 -91 818 406 
Q 353 903 353 1747 
Q 353 2603 823 3093 
Q 1294 3584 2113 3584 
Q 2378 3584 2631 3529 
Q 2884 3475 3122 3366 
z
" transform="scale(0.015625)"/>
       <path id="DejaVuSans-45" d="M 628 4666 
L 3578 4666 
L 3578 4134 
L 1259 4134 
L 1259 2753 
L 3481 2753 
L 3481 2222 
L 1259 2222 
L 1259 531 
L 3634 531 
L 3634 0 
L 628 0 
L 628 4666 
z
" transform="scale(0.015625)"/>
      </defs>
      <use xlink:href="#DejaVuSans-61"/>
      <use xlink:href="#DejaVuSans-63" x="61.279297"/>
      <use xlink:href="#DejaVuSans-65" x="116.259766"/>
      <use xlink:href="#DejaVuSans-45" x="177.783203"/>
     </g>
    </g>
    <g id="line2d_42">
     <path d="M 905.715625 38.576563 
L 915.715625 38.576563 
L 925.715625 38.576563 
" style="fill: none; stroke-dasharray: 5.55,2.4; stroke-dashoffset: 0; stroke: #cd5c5c; stroke-width: 1.5"/>
    </g>
    <g id="text_40">
     <!-- aceF -->
     <g transform="translate(933.715625 42.076563) scale(0.1 -0.1)">
      <defs>
       <path id="DejaVuSans-46" d="M 628 4666 
L 3309 4666 
L 3309 4134 
L 1259 4134 
L 1259 2759 
L 3109 2759 
L 3109 2228 
L 1259 2228 
L 1259 0 
L 628 0 
L 628 4666 
z
" transform="scale(0.015625)"/>
      </defs>
      <use xlink:href="#DejaVuSans-61"/>
      <use xlink:href="#DejaVuSans-63" x="61.279297"/>
      <use xlink:href="#DejaVuSans-65" x="116.259766"/>
      <use xlink:href="#DejaVuSans-46" x="177.783203"/>
     </g>
    </g>
    <g id="line2d_43">
     <path d="M 905.715625 53.254688 
L 915.715625 53.254688 
L 925.715625 53.254688 
" style="fill: none; stroke-dasharray: 5.55,2.4; stroke-dashoffset: 0; stroke: #e8a317; stroke-width: 1.5"/>
    </g>
    <g id="text_41">
     <!-- lpd -->
     <g transform="translate(933.715625 56.754688) scale(0.1 -0.1)">
      <defs>
       <path id="DejaVuSans-70" d="M 1159 525 
L 1159 -1331 
L 581 -1331 
L 581 3500 
L 1159 3500 
L 1159 2969 
Q 1341 3281 1617 3432 
Q 1894 3584 2278 3584 
Q 2916 3584 3314 3078 
Q 3713 2572 3713 1747 
Q 3713 922 3314 415 
Q 2916 -91 2278 -91 
Q 1894 -91 1617 61 
Q 1341 213 1159 525 
z
M 3116 1747 
Q 3116 2381 2855 2742 
Q 2594 3103 2138 3103 
Q 1681 3103 1420 2742 
Q 1159 2381 1159 1747 
Q 1159 1113 1420 752 
Q 1681 391 2138 391 
Q 2594 391 2855 752 
Q 3116 1113 3116 1747 
z
" transform="scale(0.015625)"/>
      </defs>
      <use xlink:href="#DejaVuSans-6c"/>
      <use xlink:href="#DejaVuSans-70" x="27.783203"/>
      <use xlink:href="#DejaVuSans-64" x="91.259766"/>
     </g>
    </g>
    <g id="line2d_44">
     <path d="M 905.715625 67.932813 
L 915.715625 67.932813 
L 925.715625 67.932813 
" style="fill: none; stroke: #f88017; stroke-width: 4; stroke-linecap: square"/>
    </g>
    <g id="text_42">
     <!-- Acetyl-CoA -->
     <g transform="translate(933.715625 71.432813) scale(0.1 -0.1)">
      <defs>
       <path id="DejaVuSans-41" d="M 2188 4044 
L 1331 1722 
L 3047 1722 
L 2188 4044 
z
M 1831 4666 
L 2547 4666 
L 4325 0 
L 3669 0 
L 3244 1197 
L 1141 1197 
L 716 0 
L 50 0 
L 1831 4666 
z
" transform="scale(0.015625)"/>
       <path id="DejaVuSans-74" d="M 1172 4494 
L 1172 3500 
L 2356 3500 
L 2356 3053 
L 1172 3053 
L 1172 1153 
Q 1172 725 1289 603 
Q 1406 481 1766 481 
L 2356 481 
L 2356 0 
L 1766 0 
Q 1100 0 847 248 
Q 594 497 594 1153 
L 594 3053 
L 172 3053 
L 172 3500 
L 594 3500 
L 594 4494 
L 1172 4494 
z
" transform="scale(0.015625)"/>
       <path id="DejaVuSans-79" d="M 2059 -325 
Q 1816 -950 1584 -1140 
Q 1353 -1331 966 -1331 
L 506 -1331 
L 506 -850 
L 844 -850 
Q 1081 -850 1212 -737 
Q 1344 -625 1503 -206 
L 1606 56 
L 191 3500 
L 800 3500 
L 1894 763 
L 2988 3500 
L 3597 3500 
L 2059 -325 
z
" transform="scale(0.015625)"/>
       <path id="DejaVuSans-2d" d="M 313 2009 
L 1997 2009 
L 1997 1497 
L 313 1497 
L 313 2009 
z
" transform="scale(0.015625)"/>
       <path id="DejaVuSans-43" d="M 4122 4306 
L 4122 3641 
Q 3803 3938 3442 4084 
Q 3081 4231 2675 4231 
Q 1875 4231 1450 3742 
Q 1025 3253 1025 2328 
Q 1025 1406 1450 917 
Q 1875 428 2675 428 
Q 3081 428 3442 575 
Q 3803 722 4122 1019 
L 4122 359 
Q 3791 134 3420 21 
Q 3050 -91 2638 -91 
Q 1578 -91 968 557 
Q 359 1206 359 2328 
Q 359 3453 968 4101 
Q 1578 4750 2638 4750 
Q 3056 4750 3426 4639 
Q 3797 4528 4122 4306 
z
" transform="scale(0.015625)"/>
      </defs>
      <use xlink:href="#DejaVuSans-41"/>
      <use xlink:href="#DejaVuSans-63" x="66.658203"/>
      <use xlink:href="#DejaVuSans-65" x="121.638672"/>
      <use xlink:href="#DejaVuSans-74" x="183.162109"/>
      <use xlink:href="#DejaVuSans-79" x="222.371094"/>
      <use xlink:href="#DejaVuSans-6c" x="281.550781"/>
      <use xlink:href="#DejaVuSans-2d" x="309.333984"/>
      <use xlink:href="#DejaVuSans-43" x="345.417969"/>
      <use xlink:href="#DejaVuSans-6f" x="415.242188"/>
      <use xlink:href="#DejaVuSans-41" x="476.423828"/>
     </g>
    </g>
   </g>
  </g>
 </g>
 <defs>
  <clipPath id="p00b7e51da0">
   <rect x="47.72" y="10.8" width="949.48" height="366.235464"/>
  </clipPath>
 </defs>
</svg>
