<?xml version="1.0" encoding="utf-8" standalone="no"?>
<!DOCTYPE svg PUBLIC "-//W3C//DTD SVG 1.1//EN"
  "http://www.w3.org/Graphics/SVG/1.1/DTD/svg11.dtd">
<svg xmlns:xlink="http://www.w3.org/1999/xlink" width="1008pt" height="432pt" viewBox="0 0 1008 432" xmlns="http://www.w3.org/2000/svg" version="1.1">
 <metadata>
  <rdf:RDF xmlns:dc="http://purl.org/dc/elements/1.1/" xmlns:cc="http://creativecommons.org/ns#" xmlns:rdf="http://www.w3.org/1999/02/22-rdf-syntax-ns#">
   <cc:Work>
    <dc:type rdf:resource="http://purl.org/dc/dcmitype/StillImage"/>
    <dc:date>2024-09-21T22:46:24.086544</dc:date>
    <dc:format>image/svg+xml</dc:format>
    <dc:creator>
     <cc:Agent>
      <dc:title>Matplotlib v3.8.0, https://matplotlib.org/</dc:title>
     </cc:Agent>
    </dc:creator>
   </cc:Work>
  </rdf:RDF>
 </metadata>
 <defs>
  <style type="text/css">*{stroke-linejoin: round; stroke-linecap: butt}</style>
 </defs>
 <g id="figure_1">
  <g id="patch_1">
   <path d="M 0 432 
L 1008 432 
L 1008 0 
L 0 0 
z
" style="fill: #ffffff"/>
  </g>
  <g id="axes_1">
   <g id="patch_2">
    <path d="M 56 377.035464 
L 997.2 377.035464 
L 997.2 10.8 
L 56 10.8 
z
" style="fill: #ffffff"/>
   </g>
   <g id="matplotlib.axis_1">
    <g id="xtick_1">
     <g id="line2d_1">
      <defs>
       <path id="m29ea462e3c" d="M 0 0 
L 0 3.5 
" style="stroke: #000000; stroke-width: 0.8"/>
      </defs>
      <g>
       <use xlink:href="#m29ea462e3c" x="98.781818" y="377.035464" style="stroke: #000000; stroke-width: 0.8"/>
      </g>
     </g>
     <g id="text_1">
      <!-- 5.65 -->
      <g transform="translate(90.520207 401.748716) rotate(-30) scale(0.1 -0.1)">
       <defs>
        <path id="DejaVuSans-35" d="M 691 4666 
L 3169 4666 
L 3169 4134 
L 1269 4134 
L 1269 2991 
Q 1406 3038 1543 3061 
Q 1681 3084 1819 3084 
Q 2600 3084 3056 2656 
Q 3513 2228 3513 1497 
Q 3513 744 3044 326 
Q 2575 -91 1722 -91 
Q 1428 -91 1123 -41 
Q 819 9 494 109 
L 494 744 
Q 775 591 1075 516 
Q 1375 441 1709 441 
Q 2250 441 2565 725 
Q 2881 1009 2881 1497 
Q 2881 1984 2565 2268 
Q 2250 2553 1709 2553 
Q 1456 2553 1204 2497 
Q 953 2441 691 2322 
L 691 4666 
z
" transform="scale(0.015625)"/>
        <path id="DejaVuSans-2e" d="M 684 794 
L 1344 794 
L 1344 0 
L 684 0 
L 684 794 
z
" transform="scale(0.015625)"/>
        <path id="DejaVuSans-36" d="M 2113 2584 
Q 1688 2584 1439 2293 
Q 1191 2003 1191 1497 
Q 1191 994 1439 701 
Q 1688 409 2113 409 
Q 2538 409 2786 701 
Q 3034 994 3034 1497 
Q 3034 2003 2786 2293 
Q 2538 2584 2113 2584 
z
M 3366 4563 
L 3366 3988 
Q 3128 4100 2886 4159 
Q 2644 4219 2406 4219 
Q 1781 4219 1451 3797 
Q 1122 3375 1075 2522 
Q 1259 2794 1537 2939 
Q 1816 3084 2150 3084 
Q 2853 3084 3261 2657 
Q 3669 2231 3669 1497 
Q 3669 778 3244 343 
Q 2819 -91 2113 -91 
Q 1303 -91 875 529 
Q 447 1150 447 2328 
Q 447 3434 972 4092 
Q 1497 4750 2381 4750 
Q 2619 4750 2861 4703 
Q 3103 4656 3366 4563 
z
" transform="scale(0.015625)"/>
       </defs>
       <use xlink:href="#DejaVuSans-35"/>
       <use xlink:href="#DejaVuSans-2e" x="63.623047"/>
       <use xlink:href="#DejaVuSans-36" x="95.410156"/>
       <use xlink:href="#DejaVuSans-35" x="159.033203"/>
      </g>
     </g>
    </g>
    <g id="xtick_2">
     <g id="line2d_2">
      <g>
       <use xlink:href="#m29ea462e3c" x="129.34026" y="377.035464" style="stroke: #000000; stroke-width: 0.8"/>
      </g>
     </g>
     <g id="text_2">
      <!-- 6.07 -->
      <g transform="translate(121.078649 401.748716) rotate(-30) scale(0.1 -0.1)">
       <defs>
        <path id="DejaVuSans-30" d="M 2034 4250 
Q 1547 4250 1301 3770 
Q 1056 3291 1056 2328 
Q 1056 1369 1301 889 
Q 1547 409 2034 409 
Q 2525 409 2770 889 
Q 3016 1369 3016 2328 
Q 3016 3291 2770 3770 
Q 2525 4250 2034 4250 
z
M 2034 4750 
Q 2819 4750 3233 4129 
Q 3647 3509 3647 2328 
Q 3647 1150 3233 529 
Q 2819 -91 2034 -91 
Q 1250 -91 836 529 
Q 422 1150 422 2328 
Q 422 3509 836 4129 
Q 1250 4750 2034 4750 
z
" transform="scale(0.015625)"/>
        <path id="DejaVuSans-37" d="M 525 4666 
L 3525 4666 
L 3525 4397 
L 1831 0 
L 1172 0 
L 2766 4134 
L 525 4134 
L 525 4666 
z
" transform="scale(0.015625)"/>
       </defs>
       <use xlink:href="#DejaVuSans-36"/>
       <use xlink:href="#DejaVuSans-2e" x="63.623047"/>
       <use xlink:href="#DejaVuSans-30" x="95.410156"/>
       <use xlink:href="#DejaVuSans-37" x="159.033203"/>
      </g>
     </g>
    </g>
    <g id="xtick_3">
     <g id="line2d_3">
      <g>
       <use xlink:href="#m29ea462e3c" x="159.898701" y="377.035464" style="stroke: #000000; stroke-width: 0.8"/>
      </g>
     </g>
     <g id="text_3">
      <!-- 6.15 -->
      <g transform="translate(151.63709 401.748716) rotate(-30) scale(0.1 -0.1)">
       <defs>
        <path id="DejaVuSans-31" d="M 794 531 
L 1825 531 
L 1825 4091 
L 703 3866 
L 703 4441 
L 1819 4666 
L 2450 4666 
L 2450 531 
L 3481 531 
L 3481 0 
L 794 0 
L 794 531 
z
" transform="scale(0.015625)"/>
       </defs>
       <use xlink:href="#DejaVuSans-36"/>
       <use xlink:href="#DejaVuSans-2e" x="63.623047"/>
       <use xlink:href="#DejaVuSans-31" x="95.410156"/>
       <use xlink:href="#DejaVuSans-35" x="159.033203"/>
      </g>
     </g>
    </g>
    <g id="xtick_4">
     <g id="line2d_4">
      <g>
       <use xlink:href="#m29ea462e3c" x="190.457143" y="377.035464" style="stroke: #000000; stroke-width: 0.8"/>
      </g>
     </g>
     <g id="text_4">
      <!-- 6.38 -->
      <g transform="translate(182.195532 401.748716) rotate(-30) scale(0.1 -0.1)">
       <defs>
        <path id="DejaVuSans-33" d="M 2597 2516 
Q 3050 2419 3304 2112 
Q 3559 1806 3559 1356 
Q 3559 666 3084 287 
Q 2609 -91 1734 -91 
Q 1441 -91 1130 -33 
Q 819 25 488 141 
L 488 750 
Q 750 597 1062 519 
Q 1375 441 1716 441 
Q 2309 441 2620 675 
Q 2931 909 2931 1356 
Q 2931 1769 2642 2001 
Q 2353 2234 1838 2234 
L 1294 2234 
L 1294 2753 
L 1863 2753 
Q 2328 2753 2575 2939 
Q 2822 3125 2822 3475 
Q 2822 3834 2567 4026 
Q 2313 4219 1838 4219 
Q 1578 4219 1281 4162 
Q 984 4106 628 3988 
L 628 4550 
Q 988 4650 1302 4700 
Q 1616 4750 1894 4750 
Q 2613 4750 3031 4423 
Q 3450 4097 3450 3541 
Q 3450 3153 3228 2886 
Q 3006 2619 2597 2516 
z
" transform="scale(0.015625)"/>
        <path id="DejaVuSans-38" d="M 2034 2216 
Q 1584 2216 1326 1975 
Q 1069 1734 1069 1313 
Q 1069 891 1326 650 
Q 1584 409 2034 409 
Q 2484 409 2743 651 
Q 3003 894 3003 1313 
Q 3003 1734 2745 1975 
Q 2488 2216 2034 2216 
z
M 1403 2484 
Q 997 2584 770 2862 
Q 544 3141 544 3541 
Q 544 4100 942 4425 
Q 1341 4750 2034 4750 
Q 2731 4750 3128 4425 
Q 3525 4100 3525 3541 
Q 3525 3141 3298 2862 
Q 3072 2584 2669 2484 
Q 3125 2378 3379 2068 
Q 3634 1759 3634 1313 
Q 3634 634 3220 271 
Q 2806 -91 2034 -91 
Q 1263 -91 848 271 
Q 434 634 434 1313 
Q 434 1759 690 2068 
Q 947 2378 1403 2484 
z
M 1172 3481 
Q 1172 3119 1398 2916 
Q 1625 2713 2034 2713 
Q 2441 2713 2670 2916 
Q 2900 3119 2900 3481 
Q 2900 3844 2670 4047 
Q 2441 4250 2034 4250 
Q 1625 4250 1398 4047 
Q 1172 3844 1172 3481 
z
" transform="scale(0.015625)"/>
       </defs>
       <use xlink:href="#DejaVuSans-36"/>
       <use xlink:href="#DejaVuSans-2e" x="63.623047"/>
       <use xlink:href="#DejaVuSans-33" x="95.410156"/>
       <use xlink:href="#DejaVuSans-38" x="159.033203"/>
      </g>
     </g>
    </g>
    <g id="xtick_5">
     <g id="line2d_5">
      <g>
       <use xlink:href="#m29ea462e3c" x="221.015584" y="377.035464" style="stroke: #000000; stroke-width: 0.8"/>
      </g>
     </g>
     <g id="text_5">
      <!-- 6.48 -->
      <g transform="translate(212.753973 401.748716) rotate(-30) scale(0.1 -0.1)">
       <defs>
        <path id="DejaVuSans-34" d="M 2419 4116 
L 825 1625 
L 2419 1625 
L 2419 4116 
z
M 2253 4666 
L 3047 4666 
L 3047 1625 
L 3713 1625 
L 3713 1100 
L 3047 1100 
L 3047 0 
L 2419 0 
L 2419 1100 
L 313 1100 
L 313 1709 
L 2253 4666 
z
" transform="scale(0.015625)"/>
       </defs>
       <use xlink:href="#DejaVuSans-36"/>
       <use xlink:href="#DejaVuSans-2e" x="63.623047"/>
       <use xlink:href="#DejaVuSans-34" x="95.410156"/>
       <use xlink:href="#DejaVuSans-38" x="159.033203"/>
      </g>
     </g>
    </g>
    <g id="xtick_6">
     <g id="line2d_6">
      <g>
       <use xlink:href="#m29ea462e3c" x="251.574026" y="377.035464" style="stroke: #000000; stroke-width: 0.8"/>
      </g>
     </g>
     <g id="text_6">
      <!-- 6.73 -->
      <g transform="translate(243.312415 401.748716) rotate(-30) scale(0.1 -0.1)">
       <use xlink:href="#DejaVuSans-36"/>
       <use xlink:href="#DejaVuSans-2e" x="63.623047"/>
       <use xlink:href="#DejaVuSans-37" x="95.410156"/>
       <use xlink:href="#DejaVuSans-33" x="159.033203"/>
      </g>
     </g>
    </g>
    <g id="xtick_7">
     <g id="line2d_7">
      <g>
       <use xlink:href="#m29ea462e3c" x="282.132468" y="377.035464" style="stroke: #000000; stroke-width: 0.8"/>
      </g>
     </g>
     <g id="text_7">
      <!-- 6.98 -->
      <g transform="translate(273.870857 401.748716) rotate(-30) scale(0.1 -0.1)">
       <defs>
        <path id="DejaVuSans-39" d="M 703 97 
L 703 672 
Q 941 559 1184 500 
Q 1428 441 1663 441 
Q 2288 441 2617 861 
Q 2947 1281 2994 2138 
Q 2813 1869 2534 1725 
Q 2256 1581 1919 1581 
Q 1219 1581 811 2004 
Q 403 2428 403 3163 
Q 403 3881 828 4315 
Q 1253 4750 1959 4750 
Q 2769 4750 3195 4129 
Q 3622 3509 3622 2328 
Q 3622 1225 3098 567 
Q 2575 -91 1691 -91 
Q 1453 -91 1209 -44 
Q 966 3 703 97 
z
M 1959 2075 
Q 2384 2075 2632 2365 
Q 2881 2656 2881 3163 
Q 2881 3666 2632 3958 
Q 2384 4250 1959 4250 
Q 1534 4250 1286 3958 
Q 1038 3666 1038 3163 
Q 1038 2656 1286 2365 
Q 1534 2075 1959 2075 
z
" transform="scale(0.015625)"/>
       </defs>
       <use xlink:href="#DejaVuSans-36"/>
       <use xlink:href="#DejaVuSans-2e" x="63.623047"/>
       <use xlink:href="#DejaVuSans-39" x="95.410156"/>
       <use xlink:href="#DejaVuSans-38" x="159.033203"/>
      </g>
     </g>
    </g>
    <g id="xtick_8">
     <g id="line2d_8">
      <g>
       <use xlink:href="#m29ea462e3c" x="312.690909" y="377.035464" style="stroke: #000000; stroke-width: 0.8"/>
      </g>
     </g>
     <g id="text_8">
      <!-- 7.23 -->
      <g transform="translate(304.429298 401.748716) rotate(-30) scale(0.1 -0.1)">
       <defs>
        <path id="DejaVuSans-32" d="M 1228 531 
L 3431 531 
L 3431 0 
L 469 0 
L 469 531 
Q 828 903 1448 1529 
Q 2069 2156 2228 2338 
Q 2531 2678 2651 2914 
Q 2772 3150 2772 3378 
Q 2772 3750 2511 3984 
Q 2250 4219 1831 4219 
Q 1534 4219 1204 4116 
Q 875 4013 500 3803 
L 500 4441 
Q 881 4594 1212 4672 
Q 1544 4750 1819 4750 
Q 2544 4750 2975 4387 
Q 3406 4025 3406 3419 
Q 3406 3131 3298 2873 
Q 3191 2616 2906 2266 
Q 2828 2175 2409 1742 
Q 1991 1309 1228 531 
z
" transform="scale(0.015625)"/>
       </defs>
       <use xlink:href="#DejaVuSans-37"/>
       <use xlink:href="#DejaVuSans-2e" x="63.623047"/>
       <use xlink:href="#DejaVuSans-32" x="95.410156"/>
       <use xlink:href="#DejaVuSans-33" x="159.033203"/>
      </g>
     </g>
    </g>
    <g id="xtick_9">
     <g id="line2d_9">
      <g>
       <use xlink:href="#m29ea462e3c" x="343.249351" y="377.035464" style="stroke: #000000; stroke-width: 0.8"/>
      </g>
     </g>
     <g id="text_9">
      <!-- 7.48 -->
      <g transform="translate(334.98774 401.748716) rotate(-30) scale(0.1 -0.1)">
       <use xlink:href="#DejaVuSans-37"/>
       <use xlink:href="#DejaVuSans-2e" x="63.623047"/>
       <use xlink:href="#DejaVuSans-34" x="95.410156"/>
       <use xlink:href="#DejaVuSans-38" x="159.033203"/>
      </g>
     </g>
    </g>
    <g id="xtick_10">
     <g id="line2d_10">
      <g>
       <use xlink:href="#m29ea462e3c" x="373.807792" y="377.035464" style="stroke: #000000; stroke-width: 0.8"/>
      </g>
     </g>
     <g id="text_10">
      <!-- 7.73 -->
      <g transform="translate(365.546181 401.748716) rotate(-30) scale(0.1 -0.1)">
       <use xlink:href="#DejaVuSans-37"/>
       <use xlink:href="#DejaVuSans-2e" x="63.623047"/>
       <use xlink:href="#DejaVuSans-37" x="95.410156"/>
       <use xlink:href="#DejaVuSans-33" x="159.033203"/>
      </g>
     </g>
    </g>
    <g id="xtick_11">
     <g id="line2d_11">
      <g>
       <use xlink:href="#m29ea462e3c" x="404.366234" y="377.035464" style="stroke: #000000; stroke-width: 0.8"/>
      </g>
     </g>
     <g id="text_11">
      <!-- 7.98 -->
      <g transform="translate(396.104623 401.748716) rotate(-30) scale(0.1 -0.1)">
       <use xlink:href="#DejaVuSans-37"/>
       <use xlink:href="#DejaVuSans-2e" x="63.623047"/>
       <use xlink:href="#DejaVuSans-39" x="95.410156"/>
       <use xlink:href="#DejaVuSans-38" x="159.033203"/>
      </g>
     </g>
    </g>
    <g id="xtick_12">
     <g id="line2d_12">
      <g>
       <use xlink:href="#m29ea462e3c" x="434.924675" y="377.035464" style="stroke: #000000; stroke-width: 0.8"/>
      </g>
     </g>
     <g id="text_12">
      <!-- 8.48 -->
      <g transform="translate(426.663064 401.748716) rotate(-30) scale(0.1 -0.1)">
       <use xlink:href="#DejaVuSans-38"/>
       <use xlink:href="#DejaVuSans-2e" x="63.623047"/>
       <use xlink:href="#DejaVuSans-34" x="95.410156"/>
       <use xlink:href="#DejaVuSans-38" x="159.033203"/>
      </g>
     </g>
    </g>
    <g id="xtick_13">
     <g id="line2d_13">
      <g>
       <use xlink:href="#m29ea462e3c" x="465.483117" y="377.035464" style="stroke: #000000; stroke-width: 0.8"/>
      </g>
     </g>
     <g id="text_13">
      <!-- 8.98 -->
      <g transform="translate(457.221506 401.748716) rotate(-30) scale(0.1 -0.1)">
       <use xlink:href="#DejaVuSans-38"/>
       <use xlink:href="#DejaVuSans-2e" x="63.623047"/>
       <use xlink:href="#DejaVuSans-39" x="95.410156"/>
       <use xlink:href="#DejaVuSans-38" x="159.033203"/>
      </g>
     </g>
    </g>
    <g id="xtick_14">
     <g id="line2d_14">
      <g>
       <use xlink:href="#m29ea462e3c" x="496.041558" y="377.035464" style="stroke: #000000; stroke-width: 0.8"/>
      </g>
     </g>
     <g id="text_14">
      <!-- 9.48 -->
      <g transform="translate(487.779948 401.748716) rotate(-30) scale(0.1 -0.1)">
       <use xlink:href="#DejaVuSans-39"/>
       <use xlink:href="#DejaVuSans-2e" x="63.623047"/>
       <use xlink:href="#DejaVuSans-34" x="95.410156"/>
       <use xlink:href="#DejaVuSans-38" x="159.033203"/>
      </g>
     </g>
    </g>
    <g id="xtick_15">
     <g id="line2d_15">
      <g>
       <use xlink:href="#m29ea462e3c" x="526.6" y="377.035464" style="stroke: #000000; stroke-width: 0.8"/>
      </g>
     </g>
     <g id="text_15">
      <!-- 9.98 -->
      <g transform="translate(518.338389 401.748716) rotate(-30) scale(0.1 -0.1)">
       <use xlink:href="#DejaVuSans-39"/>
       <use xlink:href="#DejaVuSans-2e" x="63.623047"/>
       <use xlink:href="#DejaVuSans-39" x="95.410156"/>
       <use xlink:href="#DejaVuSans-38" x="159.033203"/>
      </g>
     </g>
    </g>
    <g id="xtick_16">
     <g id="line2d_16">
      <g>
       <use xlink:href="#m29ea462e3c" x="557.158442" y="377.035464" style="stroke: #000000; stroke-width: 0.8"/>
      </g>
     </g>
     <g id="text_16">
      <!-- 10.98 -->
      <g transform="translate(546.141787 404.929966) rotate(-30) scale(0.1 -0.1)">
       <use xlink:href="#DejaVuSans-31"/>
       <use xlink:href="#DejaVuSans-30" x="63.623047"/>
       <use xlink:href="#DejaVuSans-2e" x="127.246094"/>
       <use xlink:href="#DejaVuSans-39" x="159.033203"/>
       <use xlink:href="#DejaVuSans-38" x="222.65625"/>
      </g>
     </g>
    </g>
    <g id="xtick_17">
     <g id="line2d_17">
      <g>
       <use xlink:href="#m29ea462e3c" x="587.716883" y="377.035464" style="stroke: #000000; stroke-width: 0.8"/>
      </g>
     </g>
     <g id="text_17">
      <!-- 11.98 -->
      <g transform="translate(576.700229 404.929966) rotate(-30) scale(0.1 -0.1)">
       <use xlink:href="#DejaVuSans-31"/>
       <use xlink:href="#DejaVuSans-31" x="63.623047"/>
       <use xlink:href="#DejaVuSans-2e" x="127.246094"/>
       <use xlink:href="#DejaVuSans-39" x="159.033203"/>
       <use xlink:href="#DejaVuSans-38" x="222.65625"/>
      </g>
     </g>
    </g>
    <g id="xtick_18">
     <g id="line2d_18">
      <g>
       <use xlink:href="#m29ea462e3c" x="618.275325" y="377.035464" style="stroke: #000000; stroke-width: 0.8"/>
      </g>
     </g>
     <g id="text_18">
      <!-- 13.98 -->
      <g transform="translate(607.25867 404.929966) rotate(-30) scale(0.1 -0.1)">
       <use xlink:href="#DejaVuSans-31"/>
       <use xlink:href="#DejaVuSans-33" x="63.623047"/>
       <use xlink:href="#DejaVuSans-2e" x="127.246094"/>
       <use xlink:href="#DejaVuSans-39" x="159.033203"/>
       <use xlink:href="#DejaVuSans-38" x="222.65625"/>
      </g>
     </g>
    </g>
    <g id="xtick_19">
     <g id="line2d_19">
      <g>
       <use xlink:href="#m29ea462e3c" x="648.833766" y="377.035464" style="stroke: #000000; stroke-width: 0.8"/>
      </g>
     </g>
     <g id="text_19">
      <!-- 15.98 -->
      <g transform="translate(637.817112 404.929966) rotate(-30) scale(0.1 -0.1)">
       <use xlink:href="#DejaVuSans-31"/>
       <use xlink:href="#DejaVuSans-35" x="63.623047"/>
       <use xlink:href="#DejaVuSans-2e" x="127.246094"/>
       <use xlink:href="#DejaVuSans-39" x="159.033203"/>
       <use xlink:href="#DejaVuSans-38" x="222.65625"/>
      </g>
     </g>
    </g>
    <g id="xtick_20">
     <g id="line2d_20">
      <g>
       <use xlink:href="#m29ea462e3c" x="679.392208" y="377.035464" style="stroke: #000000; stroke-width: 0.8"/>
      </g>
     </g>
     <g id="text_20">
      <!-- 17.98 -->
      <g transform="translate(668.375554 404.929966) rotate(-30) scale(0.1 -0.1)">
       <use xlink:href="#DejaVuSans-31"/>
       <use xlink:href="#DejaVuSans-37" x="63.623047"/>
       <use xlink:href="#DejaVuSans-2e" x="127.246094"/>
       <use xlink:href="#DejaVuSans-39" x="159.033203"/>
       <use xlink:href="#DejaVuSans-38" x="222.65625"/>
      </g>
     </g>
    </g>
    <g id="xtick_21">
     <g id="line2d_21">
      <g>
       <use xlink:href="#m29ea462e3c" x="709.950649" y="377.035464" style="stroke: #000000; stroke-width: 0.8"/>
      </g>
     </g>
     <g id="text_21">
      <!-- 18.18 -->
      <g transform="translate(698.933995 404.929966) rotate(-30) scale(0.1 -0.1)">
       <use xlink:href="#DejaVuSans-31"/>
       <use xlink:href="#DejaVuSans-38" x="63.623047"/>
       <use xlink:href="#DejaVuSans-2e" x="127.246094"/>
       <use xlink:href="#DejaVuSans-31" x="159.033203"/>
       <use xlink:href="#DejaVuSans-38" x="222.65625"/>
      </g>
     </g>
    </g>
    <g id="xtick_22">
     <g id="line2d_22">
      <g>
       <use xlink:href="#m29ea462e3c" x="740.509091" y="377.035464" style="stroke: #000000; stroke-width: 0.8"/>
      </g>
     </g>
     <g id="text_22">
      <!-- 18.28 -->
      <g transform="translate(729.492437 404.929966) rotate(-30) scale(0.1 -0.1)">
       <use xlink:href="#DejaVuSans-31"/>
       <use xlink:href="#DejaVuSans-38" x="63.623047"/>
       <use xlink:href="#DejaVuSans-2e" x="127.246094"/>
       <use xlink:href="#DejaVuSans-32" x="159.033203"/>
       <use xlink:href="#DejaVuSans-38" x="222.65625"/>
      </g>
     </g>
    </g>
    <g id="xtick_23">
     <g id="line2d_23">
      <g>
       <use xlink:href="#m29ea462e3c" x="771.067532" y="377.035464" style="stroke: #000000; stroke-width: 0.8"/>
      </g>
     </g>
     <g id="text_23">
      <!-- 18.42 -->
      <g transform="translate(760.050878 404.929966) rotate(-30) scale(0.1 -0.1)">
       <use xlink:href="#DejaVuSans-31"/>
       <use xlink:href="#DejaVuSans-38" x="63.623047"/>
       <use xlink:href="#DejaVuSans-2e" x="127.246094"/>
       <use xlink:href="#DejaVuSans-34" x="159.033203"/>
       <use xlink:href="#DejaVuSans-32" x="222.65625"/>
      </g>
     </g>
    </g>
    <g id="xtick_24">
     <g id="line2d_24">
      <g>
       <use xlink:href="#m29ea462e3c" x="801.625974" y="377.035464" style="stroke: #000000; stroke-width: 0.8"/>
      </g>
     </g>
     <g id="text_24">
      <!-- 18.58 -->
      <g transform="translate(790.60932 404.929966) rotate(-30) scale(0.1 -0.1)">
       <use xlink:href="#DejaVuSans-31"/>
       <use xlink:href="#DejaVuSans-38" x="63.623047"/>
       <use xlink:href="#DejaVuSans-2e" x="127.246094"/>
       <use xlink:href="#DejaVuSans-35" x="159.033203"/>
       <use xlink:href="#DejaVuSans-38" x="222.65625"/>
      </g>
     </g>
    </g>
    <g id="xtick_25">
     <g id="line2d_25">
      <g>
       <use xlink:href="#m29ea462e3c" x="832.184416" y="377.035464" style="stroke: #000000; stroke-width: 0.8"/>
      </g>
     </g>
     <g id="text_25">
      <!-- 18.83 -->
      <g transform="translate(821.167761 404.929966) rotate(-30) scale(0.1 -0.1)">
       <use xlink:href="#DejaVuSans-31"/>
       <use xlink:href="#DejaVuSans-38" x="63.623047"/>
       <use xlink:href="#DejaVuSans-2e" x="127.246094"/>
       <use xlink:href="#DejaVuSans-38" x="159.033203"/>
       <use xlink:href="#DejaVuSans-33" x="222.65625"/>
      </g>
     </g>
    </g>
    <g id="xtick_26">
     <g id="line2d_26">
      <g>
       <use xlink:href="#m29ea462e3c" x="862.742857" y="377.035464" style="stroke: #000000; stroke-width: 0.8"/>
      </g>
     </g>
     <g id="text_26">
      <!-- 19.08 -->
      <g transform="translate(851.726203 404.929966) rotate(-30) scale(0.1 -0.1)">
       <use xlink:href="#DejaVuSans-31"/>
       <use xlink:href="#DejaVuSans-39" x="63.623047"/>
       <use xlink:href="#DejaVuSans-2e" x="127.246094"/>
       <use xlink:href="#DejaVuSans-30" x="159.033203"/>
       <use xlink:href="#DejaVuSans-38" x="222.65625"/>
      </g>
     </g>
    </g>
    <g id="xtick_27">
     <g id="line2d_27">
      <g>
       <use xlink:href="#m29ea462e3c" x="893.301299" y="377.035464" style="stroke: #000000; stroke-width: 0.8"/>
      </g>
     </g>
     <g id="text_27">
      <!-- 19.33 -->
      <g transform="translate(882.284644 404.929966) rotate(-30) scale(0.1 -0.1)">
       <use xlink:href="#DejaVuSans-31"/>
       <use xlink:href="#DejaVuSans-39" x="63.623047"/>
       <use xlink:href="#DejaVuSans-2e" x="127.246094"/>
       <use xlink:href="#DejaVuSans-33" x="159.033203"/>
       <use xlink:href="#DejaVuSans-33" x="222.65625"/>
      </g>
     </g>
    </g>
    <g id="xtick_28">
     <g id="line2d_28">
      <g>
       <use xlink:href="#m29ea462e3c" x="923.85974" y="377.035464" style="stroke: #000000; stroke-width: 0.8"/>
      </g>
     </g>
     <g id="text_28">
      <!-- 19.58 -->
      <g transform="translate(912.843086 404.929966) rotate(-30) scale(0.1 -0.1)">
       <use xlink:href="#DejaVuSans-31"/>
       <use xlink:href="#DejaVuSans-39" x="63.623047"/>
       <use xlink:href="#DejaVuSans-2e" x="127.246094"/>
       <use xlink:href="#DejaVuSans-35" x="159.033203"/>
       <use xlink:href="#DejaVuSans-38" x="222.65625"/>
      </g>
     </g>
    </g>
    <g id="xtick_29">
     <g id="line2d_29">
      <g>
       <use xlink:href="#m29ea462e3c" x="954.418182" y="377.035464" style="stroke: #000000; stroke-width: 0.8"/>
      </g>
     </g>
     <g id="text_29">
      <!-- 20.58 -->
      <g transform="translate(943.401528 404.929966) rotate(-30) scale(0.1 -0.1)">
       <use xlink:href="#DejaVuSans-32"/>
       <use xlink:href="#DejaVuSans-30" x="63.623047"/>
       <use xlink:href="#DejaVuSans-2e" x="127.246094"/>
       <use xlink:href="#DejaVuSans-35" x="159.033203"/>
       <use xlink:href="#DejaVuSans-38" x="222.65625"/>
      </g>
     </g>
    </g>
    <g id="text_30">
     <!-- Time (h) -->
     <g transform="translate(505.707031 418.329466) scale(0.1 -0.1)">
      <defs>
       <path id="DejaVuSans-54" d="M -19 4666 
L 3928 4666 
L 3928 4134 
L 2272 4134 
L 2272 0 
L 1638 0 
L 1638 4134 
L -19 4134 
L -19 4666 
z
" transform="scale(0.015625)"/>
       <path id="DejaVuSans-69" d="M 603 3500 
L 1178 3500 
L 1178 0 
L 603 0 
L 603 3500 
z
M 603 4863 
L 1178 4863 
L 1178 4134 
L 603 4134 
L 603 4863 
z
" transform="scale(0.015625)"/>
       <path id="DejaVuSans-6d" d="M 3328 2828 
Q 3544 3216 3844 3400 
Q 4144 3584 4550 3584 
Q 5097 3584 5394 3201 
Q 5691 2819 5691 2113 
L 5691 0 
L 5113 0 
L 5113 2094 
Q 5113 2597 4934 2840 
Q 4756 3084 4391 3084 
Q 3944 3084 3684 2787 
Q 3425 2491 3425 1978 
L 3425 0 
L 2847 0 
L 2847 2094 
Q 2847 2600 2669 2842 
Q 2491 3084 2119 3084 
Q 1678 3084 1418 2786 
Q 1159 2488 1159 1978 
L 1159 0 
L 581 0 
L 581 3500 
L 1159 3500 
L 1159 2956 
Q 1356 3278 1631 3431 
Q 1906 3584 2284 3584 
Q 2666 3584 2933 3390 
Q 3200 3197 3328 2828 
z
" transform="scale(0.015625)"/>
       <path id="DejaVuSans-65" d="M 3597 1894 
L 3597 1613 
L 953 1613 
Q 991 1019 1311 708 
Q 1631 397 2203 397 
Q 2534 397 2845 478 
Q 3156 559 3463 722 
L 3463 178 
Q 3153 47 2828 -22 
Q 2503 -91 2169 -91 
Q 1331 -91 842 396 
Q 353 884 353 1716 
Q 353 2575 817 3079 
Q 1281 3584 2069 3584 
Q 2775 3584 3186 3129 
Q 3597 2675 3597 1894 
z
M 3022 2063 
Q 3016 2534 2758 2815 
Q 2500 3097 2075 3097 
Q 1594 3097 1305 2825 
Q 1016 2553 972 2059 
L 3022 2063 
z
" transform="scale(0.015625)"/>
       <path id="DejaVuSans-20" transform="scale(0.015625)"/>
       <path id="DejaVuSans-28" d="M 1984 4856 
Q 1566 4138 1362 3434 
Q 1159 2731 1159 2009 
Q 1159 1288 1364 580 
Q 1569 -128 1984 -844 
L 1484 -844 
Q 1016 -109 783 600 
Q 550 1309 550 2009 
Q 550 2706 781 3412 
Q 1013 4119 1484 4856 
L 1984 4856 
z
" transform="scale(0.015625)"/>
       <path id="DejaVuSans-68" d="M 3513 2113 
L 3513 0 
L 2938 0 
L 2938 2094 
Q 2938 2591 2744 2837 
Q 2550 3084 2163 3084 
Q 1697 3084 1428 2787 
Q 1159 2491 1159 1978 
L 1159 0 
L 581 0 
L 581 4863 
L 1159 4863 
L 1159 2956 
Q 1366 3272 1645 3428 
Q 1925 3584 2291 3584 
Q 2894 3584 3203 3211 
Q 3513 2838 3513 2113 
z
" transform="scale(0.015625)"/>
       <path id="DejaVuSans-29" d="M 513 4856 
L 1013 4856 
Q 1481 4119 1714 3412 
Q 1947 2706 1947 2009 
Q 1947 1309 1714 600 
Q 1481 -109 1013 -844 
L 513 -844 
Q 928 -128 1133 580 
Q 1338 1288 1338 2009 
Q 1338 2731 1133 3434 
Q 928 4138 513 4856 
z
" transform="scale(0.015625)"/>
      </defs>
      <use xlink:href="#DejaVuSans-54"/>
      <use xlink:href="#DejaVuSans-69" x="57.958984"/>
      <use xlink:href="#DejaVuSans-6d" x="85.742188"/>
      <use xlink:href="#DejaVuSans-65" x="183.154297"/>
      <use xlink:href="#DejaVuSans-20" x="244.677734"/>
      <use xlink:href="#DejaVuSans-28" x="276.464844"/>
      <use xlink:href="#DejaVuSans-68" x="315.478516"/>
      <use xlink:href="#DejaVuSans-29" x="378.857422"/>
     </g>
    </g>
   </g>
   <g id="matplotlib.axis_2">
    <g id="ytick_1">
     <g id="line2d_30">
      <defs>
       <path id="m352e3e1416" d="M 0 0 
L -3.5 0 
" style="stroke: #000000; stroke-width: 0.8"/>
      </defs>
      <g>
       <use xlink:href="#m352e3e1416" x="56" y="373.524698" style="stroke: #000000; stroke-width: 0.8"/>
      </g>
     </g>
     <g id="text_31">
      <!-- −0.2 -->
      <g transform="translate(24.717188 377.323917) scale(0.1 -0.1)">
       <defs>
        <path id="DejaVuSans-2212" d="M 678 2272 
L 4684 2272 
L 4684 1741 
L 678 1741 
L 678 2272 
z
" transform="scale(0.015625)"/>
       </defs>
       <use xlink:href="#DejaVuSans-2212"/>
       <use xlink:href="#DejaVuSans-30" x="83.789062"/>
       <use xlink:href="#DejaVuSans-2e" x="147.412109"/>
       <use xlink:href="#DejaVuSans-32" x="179.199219"/>
      </g>
     </g>
    </g>
    <g id="ytick_2">
     <g id="line2d_31">
      <g>
       <use xlink:href="#m352e3e1416" x="56" y="318.814542" style="stroke: #000000; stroke-width: 0.8"/>
      </g>
     </g>
     <g id="text_32">
      <!-- 0.0 -->
      <g transform="translate(33.096875 322.613761) scale(0.1 -0.1)">
       <use xlink:href="#DejaVuSans-30"/>
       <use xlink:href="#DejaVuSans-2e" x="63.623047"/>
       <use xlink:href="#DejaVuSans-30" x="95.410156"/>
      </g>
     </g>
    </g>
    <g id="ytick_3">
     <g id="line2d_32">
      <g>
       <use xlink:href="#m352e3e1416" x="56" y="264.104387" style="stroke: #000000; stroke-width: 0.8"/>
      </g>
     </g>
     <g id="text_33">
      <!-- 0.2 -->
      <g transform="translate(33.096875 267.903606) scale(0.1 -0.1)">
       <use xlink:href="#DejaVuSans-30"/>
       <use xlink:href="#DejaVuSans-2e" x="63.623047"/>
       <use xlink:href="#DejaVuSans-32" x="95.410156"/>
      </g>
     </g>
    </g>
    <g id="ytick_4">
     <g id="line2d_33">
      <g>
       <use xlink:href="#m352e3e1416" x="56" y="209.394232" style="stroke: #000000; stroke-width: 0.8"/>
      </g>
     </g>
     <g id="text_34">
      <!-- 0.4 -->
      <g transform="translate(33.096875 213.193451) scale(0.1 -0.1)">
       <use xlink:href="#DejaVuSans-30"/>
       <use xlink:href="#DejaVuSans-2e" x="63.623047"/>
       <use xlink:href="#DejaVuSans-34" x="95.410156"/>
      </g>
     </g>
    </g>
    <g id="ytick_5">
     <g id="line2d_34">
      <g>
       <use xlink:href="#m352e3e1416" x="56" y="154.684077" style="stroke: #000000; stroke-width: 0.8"/>
      </g>
     </g>
     <g id="text_35">
      <!-- 0.6 -->
      <g transform="translate(33.096875 158.483295) scale(0.1 -0.1)">
       <use xlink:href="#DejaVuSans-30"/>
       <use xlink:href="#DejaVuSans-2e" x="63.623047"/>
       <use xlink:href="#DejaVuSans-36" x="95.410156"/>
      </g>
     </g>
    </g>
    <g id="ytick_6">
     <g id="line2d_35">
      <g>
       <use xlink:href="#m352e3e1416" x="56" y="99.973921" style="stroke: #000000; stroke-width: 0.8"/>
      </g>
     </g>
     <g id="text_36">
      <!-- 0.8 -->
      <g transform="translate(33.096875 103.77314) scale(0.1 -0.1)">
       <use xlink:href="#DejaVuSans-30"/>
       <use xlink:href="#DejaVuSans-2e" x="63.623047"/>
       <use xlink:href="#DejaVuSans-38" x="95.410156"/>
      </g>
     </g>
    </g>
    <g id="ytick_7">
     <g id="line2d_36">
      <g>
       <use xlink:href="#m352e3e1416" x="56" y="45.263766" style="stroke: #000000; stroke-width: 0.8"/>
      </g>
     </g>
     <g id="text_37">
      <!-- 1.0 -->
      <g transform="translate(33.096875 49.062985) scale(0.1 -0.1)">
       <use xlink:href="#DejaVuSans-31"/>
       <use xlink:href="#DejaVuSans-2e" x="63.623047"/>
       <use xlink:href="#DejaVuSans-30" x="95.410156"/>
      </g>
     </g>
    </g>
    <g id="text_38">
     <!-- Normalized Value -->
     <g transform="translate(18.6375 237.593513) rotate(-90) scale(0.1 -0.1)">
      <defs>
       <path id="DejaVuSans-4e" d="M 628 4666 
L 1478 4666 
L 3547 763 
L 3547 4666 
L 4159 4666 
L 4159 0 
L 3309 0 
L 1241 3903 
L 1241 0 
L 628 0 
L 628 4666 
z
" transform="scale(0.015625)"/>
       <path id="DejaVuSans-6f" d="M 1959 3097 
Q 1497 3097 1228 2736 
Q 959 2375 959 1747 
Q 959 1119 1226 758 
Q 1494 397 1959 397 
Q 2419 397 2687 759 
Q 2956 1122 2956 1747 
Q 2956 2369 2687 2733 
Q 2419 3097 1959 3097 
z
M 1959 3584 
Q 2709 3584 3137 3096 
Q 3566 2609 3566 1747 
Q 3566 888 3137 398 
Q 2709 -91 1959 -91 
Q 1206 -91 779 398 
Q 353 888 353 1747 
Q 353 2609 779 3096 
Q 1206 3584 1959 3584 
z
" transform="scale(0.015625)"/>
       <path id="DejaVuSans-72" d="M 2631 2963 
Q 2534 3019 2420 3045 
Q 2306 3072 2169 3072 
Q 1681 3072 1420 2755 
Q 1159 2438 1159 1844 
L 1159 0 
L 581 0 
L 581 3500 
L 1159 3500 
L 1159 2956 
Q 1341 3275 1631 3429 
Q 1922 3584 2338 3584 
Q 2397 3584 2469 3576 
Q 2541 3569 2628 3553 
L 2631 2963 
z
" transform="scale(0.015625)"/>
       <path id="DejaVuSans-61" d="M 2194 1759 
Q 1497 1759 1228 1600 
Q 959 1441 959 1056 
Q 959 750 1161 570 
Q 1363 391 1709 391 
Q 2188 391 2477 730 
Q 2766 1069 2766 1631 
L 2766 1759 
L 2194 1759 
z
M 3341 1997 
L 3341 0 
L 2766 0 
L 2766 531 
Q 2569 213 2275 61 
Q 1981 -91 1556 -91 
Q 1019 -91 701 211 
Q 384 513 384 1019 
Q 384 1609 779 1909 
Q 1175 2209 1959 2209 
L 2766 2209 
L 2766 2266 
Q 2766 2663 2505 2880 
Q 2244 3097 1772 3097 
Q 1472 3097 1187 3025 
Q 903 2953 641 2809 
L 641 3341 
Q 956 3463 1253 3523 
Q 1550 3584 1831 3584 
Q 2591 3584 2966 3190 
Q 3341 2797 3341 1997 
z
" transform="scale(0.015625)"/>
       <path id="DejaVuSans-6c" d="M 603 4863 
L 1178 4863 
L 1178 0 
L 603 0 
L 603 4863 
z
" transform="scale(0.015625)"/>
       <path id="DejaVuSans-7a" d="M 353 3500 
L 3084 3500 
L 3084 2975 
L 922 459 
L 3084 459 
L 3084 0 
L 275 0 
L 275 525 
L 2438 3041 
L 353 3041 
L 353 3500 
z
" transform="scale(0.015625)"/>
       <path id="DejaVuSans-64" d="M 2906 2969 
L 2906 4863 
L 3481 4863 
L 3481 0 
L 2906 0 
L 2906 525 
Q 2725 213 2448 61 
Q 2172 -91 1784 -91 
Q 1150 -91 751 415 
Q 353 922 353 1747 
Q 353 2572 751 3078 
Q 1150 3584 1784 3584 
Q 2172 3584 2448 3432 
Q 2725 3281 2906 2969 
z
M 947 1747 
Q 947 1113 1208 752 
Q 1469 391 1925 391 
Q 2381 391 2643 752 
Q 2906 1113 2906 1747 
Q 2906 2381 2643 2742 
Q 2381 3103 1925 3103 
Q 1469 3103 1208 2742 
Q 947 2381 947 1747 
z
" transform="scale(0.015625)"/>
       <path id="DejaVuSans-56" d="M 1831 0 
L 50 4666 
L 709 4666 
L 2188 738 
L 3669 4666 
L 4325 4666 
L 2547 0 
L 1831 0 
z
" transform="scale(0.015625)"/>
       <path id="DejaVuSans-75" d="M 544 1381 
L 544 3500 
L 1119 3500 
L 1119 1403 
Q 1119 906 1312 657 
Q 1506 409 1894 409 
Q 2359 409 2629 706 
Q 2900 1003 2900 1516 
L 2900 3500 
L 3475 3500 
L 3475 0 
L 2900 0 
L 2900 538 
Q 2691 219 2414 64 
Q 2138 -91 1772 -91 
Q 1169 -91 856 284 
Q 544 659 544 1381 
z
M 1991 3584 
L 1991 3584 
z
" transform="scale(0.015625)"/>
      </defs>
      <use xlink:href="#DejaVuSans-4e"/>
      <use xlink:href="#DejaVuSans-6f" x="74.804688"/>
      <use xlink:href="#DejaVuSans-72" x="135.986328"/>
      <use xlink:href="#DejaVuSans-6d" x="175.349609"/>
      <use xlink:href="#DejaVuSans-61" x="272.761719"/>
      <use xlink:href="#DejaVuSans-6c" x="334.041016"/>
      <use xlink:href="#DejaVuSans-69" x="361.824219"/>
      <use xlink:href="#DejaVuSans-7a" x="389.607422"/>
      <use xlink:href="#DejaVuSans-65" x="442.097656"/>
      <use xlink:href="#DejaVuSans-64" x="503.621094"/>
      <use xlink:href="#DejaVuSans-20" x="567.097656"/>
      <use xlink:href="#DejaVuSans-56" x="598.884766"/>
      <use xlink:href="#DejaVuSans-61" x="659.542969"/>
      <use xlink:href="#DejaVuSans-6c" x="720.822266"/>
      <use xlink:href="#DejaVuSans-75" x="748.605469"/>
      <use xlink:href="#DejaVuSans-65" x="811.984375"/>
     </g>
    </g>
   </g>
   <g id="line2d_37">
    <path d="M 98.781818 114.506213 
L 101.643478 106.106655 
L 104.505138 100.447742 
L 107.366798 97.325478 
L 110.228458 96.535865 
L 113.090119 97.874905 
L 115.951779 101.138602 
L 118.813439 106.122957 
L 121.675099 112.623974 
L 124.536759 120.437656 
L 127.398419 129.360004 
L 130.260079 139.187023 
L 133.121739 149.714713 
L 138.845059 172.056122 
L 144.568379 194.752253 
L 147.43004 205.723346 
L 150.2917 216.171128 
L 153.15336 225.8916 
L 156.01502 234.680767 
L 158.87668 242.33463 
L 161.73834 248.663093 
L 164.6 253.652457 
L 167.46166 257.41028 
L 170.32332 260.046499 
L 173.18498 261.671055 
L 176.04664 262.393886 
L 178.9083 262.324932 
L 181.76996 261.574133 
L 184.631621 260.251427 
L 187.493281 258.466753 
L 190.354941 256.330052 
L 193.216601 253.942214 
L 198.939921 248.644292 
L 213.248221 234.657634 
L 216.109881 232.128195 
L 218.971542 229.803283 
L 221.833202 227.732012 
L 224.694862 225.940233 
L 227.556522 224.4128 
L 230.418182 223.130395 
L 233.279842 222.073699 
L 236.141502 221.223395 
L 239.003162 220.560164 
L 241.864822 220.064689 
L 244.726482 219.717651 
L 250.449802 219.391613 
L 256.173123 219.453425 
L 259.034783 219.643528 
L 261.896443 219.963826 
L 264.758103 220.432464 
L 267.619763 221.067584 
L 270.481423 221.88733 
L 273.343083 222.909846 
L 276.204743 224.153274 
L 279.066403 225.635758 
L 281.928063 227.375442 
L 284.789723 229.378444 
L 290.513043 233.941923 
L 299.098024 241.101411 
L 301.959684 243.283861 
L 304.821344 245.24435 
L 307.683004 246.910915 
L 310.544664 248.211593 
L 313.406324 249.074832 
L 316.267984 249.478678 
L 319.129644 249.497513 
L 321.991304 249.216785 
L 324.852964 248.721943 
L 336.299605 246.310391 
L 339.161265 246.026699 
L 342.022925 246.041583 
L 344.884585 246.436214 
L 347.746245 247.219928 
L 350.607905 248.342457 
L 353.469565 249.751727 
L 356.331225 251.395666 
L 362.054545 255.179252 
L 373.501186 263.271208 
L 376.362846 265.105049 
L 379.224506 266.796737 
L 382.086166 268.338718 
L 384.947826 269.72345 
L 387.809486 270.943386 
L 390.671146 271.990983 
L 393.532806 272.858697 
L 396.394466 273.538981 
L 399.256126 274.024293 
L 402.117787 274.307087 
L 404.979447 274.37994 
L 407.841107 274.256969 
L 413.564427 273.670701 
L 419.287747 273.072412 
L 422.149407 272.934415 
L 425.011067 272.992197 
L 427.872727 273.312022 
L 430.734387 273.96015 
L 433.596047 275.002845 
L 436.457708 276.503023 
L 439.319368 278.458192 
L 442.181028 280.806274 
L 445.042688 283.483011 
L 447.904348 286.424147 
L 453.627668 292.842589 
L 462.212648 302.846826 
L 465.074308 306.024965 
L 467.935968 309.019626 
L 470.797628 311.780316 
L 473.659289 314.261057 
L 476.520949 316.41588 
L 479.382609 318.198817 
L 482.244269 319.563897 
L 485.105929 320.465152 
L 487.967589 320.856613 
L 490.829249 320.692311 
L 493.690909 319.926276 
L 496.552569 318.512725 
L 499.414229 316.458645 
L 502.275889 313.896082 
L 505.137549 310.975197 
L 513.72253 301.564255 
L 516.58419 298.711722 
L 519.44585 296.251685 
L 522.30751 294.334308 
L 525.16917 293.109753 
L 528.03083 292.721795 
L 530.89249 293.16726 
L 533.75415 294.296025 
L 536.61581 295.951579 
L 539.47747 297.977409 
L 548.062451 304.711444 
L 550.924111 306.653265 
L 553.785771 308.182804 
L 556.647431 309.143549 
L 559.509091 309.402381 
L 562.370751 308.987642 
L 565.232411 307.995804 
L 568.094071 306.52358 
L 570.955731 304.667682 
L 573.817391 302.524822 
L 579.540711 297.765067 
L 585.264032 293.018015 
L 588.125692 290.890982 
L 590.987352 289.031118 
L 593.849012 287.44071 
L 596.710672 286.110973 
L 599.572332 285.033122 
L 602.433992 284.19837 
L 605.295652 283.597932 
L 608.157312 283.223022 
L 611.018972 283.064856 
L 613.880632 283.114647 
L 616.742292 283.363611 
L 619.603953 283.803479 
L 622.465613 284.440175 
L 625.327273 285.295198 
L 628.188933 286.390844 
L 631.050593 287.749406 
L 633.912253 289.393182 
L 636.773913 291.344467 
L 639.635573 293.625555 
L 642.497233 296.258743 
L 645.358893 299.266325 
L 648.220553 302.670598 
L 656.805534 314.212495 
L 659.667194 317.503014 
L 662.528854 319.963059 
L 665.390514 321.261324 
L 668.252174 321.0665 
L 671.113834 319.047279 
L 673.975494 314.872355 
L 676.837154 308.210419 
L 679.698814 298.73034 
L 682.560474 286.295415 
L 685.422134 271.334717 
L 688.283794 254.379667 
L 691.145455 235.961683 
L 702.592095 158.288811 
L 705.453755 140.527457 
L 708.315415 124.491688 
L 711.177075 110.702135 
L 714.038735 99.323017 
L 716.900395 90.089023 
L 719.762055 82.709267 
L 722.623715 76.892865 
L 725.485375 72.348931 
L 728.347036 68.786581 
L 731.208696 65.91493 
L 739.793676 58.535321 
L 742.655336 55.556878 
L 751.240316 45.626236 
L 754.101976 42.874442 
L 756.963636 40.847681 
L 759.825296 39.813446 
L 762.686957 40.039231 
L 765.548617 41.792529 
L 768.410277 45.340834 
L 771.271937 50.951594 
L 774.133597 58.741534 
L 776.995257 68.340234 
L 779.856917 79.279044 
L 785.580237 103.302385 
L 788.441897 115.449614 
L 791.303557 127.062346 
L 794.165217 137.67193 
L 797.026877 146.809714 
L 799.888538 154.007047 
L 802.750198 158.803122 
L 805.611858 161.05532 
L 808.473518 161.042215 
L 811.335178 159.07133 
L 814.196838 155.45019 
L 817.058498 150.486317 
L 819.920158 144.487237 
L 822.781818 137.760473 
L 831.366798 116.28932 
L 834.228458 109.704651 
L 837.090119 103.664928 
L 839.951779 98.110133 
L 842.813439 92.978811 
L 845.675099 88.209511 
L 848.536759 83.740778 
L 854.260079 75.459198 
L 865.706719 59.83479 
L 868.568379 55.986021 
L 871.43004 52.340858 
L 874.2917 49.031718 
L 877.15336 46.191019 
L 880.01502 43.951178 
L 882.87668 42.444613 
L 885.73834 41.803743 
L 888.6 42.160983 
L 891.46166 43.648753 
L 894.32332 46.397285 
L 897.18498 50.425654 
L 900.04664 55.591222 
L 902.9083 61.738611 
L 905.76996 68.712441 
L 908.631621 76.357332 
L 911.493281 84.517904 
L 917.216601 101.764575 
L 922.939921 119.209416 
L 925.801581 127.617701 
L 928.663241 135.60939 
L 931.524901 143.029103 
L 934.386561 149.72146 
L 937.248221 155.531081 
L 940.109881 160.302588 
L 942.971542 163.8806 
L 945.833202 166.109737 
L 948.694862 166.834621 
L 951.556522 165.89987 
L 954.418182 163.150107 
L 954.418182 163.150107 
" clip-path="url(#pef88447141)" style="fill: none; stroke-dasharray: 5.55,2.4; stroke-dashoffset: 0; stroke: #fe632a; stroke-width: 1.5"/>
   </g>
   <g id="line2d_38">
    <path d="M 98.781818 316.228924 
L 101.643478 336.499223 
L 104.505138 350.279939 
L 107.366798 358.075015 
L 110.228458 360.388397 
L 113.090119 357.724029 
L 115.951779 350.585854 
L 118.813439 339.477818 
L 121.675099 324.903864 
L 124.536759 307.367937 
L 127.398419 287.373981 
L 130.260079 265.425941 
L 133.121739 242.02776 
L 147.43004 120.922804 
L 150.2917 99.406612 
L 153.15336 79.96789 
L 156.01502 63.110582 
L 158.87668 49.338633 
L 161.73834 39.113471 
L 164.6 32.357005 
L 167.46166 28.620284 
L 170.32332 27.447067 
L 173.18498 28.381113 
L 176.04664 30.966183 
L 178.9083 34.746036 
L 181.76996 39.264432 
L 187.493281 48.691887 
L 190.354941 52.688466 
L 193.216601 55.687517 
L 196.078261 57.717505 
L 198.939921 58.917022 
L 201.801581 59.424664 
L 204.663241 59.379028 
L 207.524901 58.918709 
L 210.386561 58.182305 
L 216.109881 56.435625 
L 218.971542 55.702541 
L 221.833202 55.247103 
L 224.694862 55.150195 
L 227.556522 55.392179 
L 230.418182 55.943184 
L 233.279842 56.773339 
L 236.141502 57.852773 
L 239.003162 59.151617 
L 241.864822 60.639998 
L 244.726482 62.288046 
L 250.449802 65.943661 
L 256.173123 69.93697 
L 259.034783 72.123185 
L 261.896443 74.506433 
L 264.758103 77.139921 
L 267.619763 80.076854 
L 270.481423 83.370438 
L 273.343083 87.073877 
L 276.204743 91.240377 
L 279.066403 95.923144 
L 281.928063 101.175383 
L 284.789723 107.023716 
L 287.651383 113.362925 
L 293.374704 126.929939 
L 299.098024 140.70829 
L 301.959684 147.311671 
L 304.821344 153.529831 
L 307.683004 159.216751 
L 310.544664 164.226414 
L 313.406324 168.413541 
L 316.267984 171.722434 
L 319.129644 174.271375 
L 321.991304 176.198632 
L 324.852964 177.642475 
L 327.714625 178.741175 
L 336.299605 181.349106 
L 339.161265 182.449926 
L 342.022925 183.896951 
L 344.884585 185.821928 
L 347.746245 188.247076 
L 350.607905 191.103727 
L 353.469565 194.32046 
L 356.331225 197.825857 
L 362.054545 205.416967 
L 370.639526 217.183128 
L 373.501186 220.920705 
L 376.362846 224.45727 
L 379.224506 227.788379 
L 382.086166 230.929077 
L 384.947826 233.894427 
L 390.671146 239.359331 
L 396.394466 244.303594 
L 402.117787 248.847718 
L 407.841107 253.108415 
L 413.564427 257.147267 
L 419.287747 260.984211 
L 427.872727 266.402411 
L 436.457708 271.47269 
L 445.042688 276.262146 
L 456.489328 282.340806 
L 470.797628 289.662952 
L 476.520949 292.320376 
L 479.382609 293.483715 
L 482.244269 294.496144 
L 485.105929 295.327167 
L 487.967589 295.94629 
L 490.829249 296.323018 
L 493.690909 296.426854 
L 496.552569 296.227394 
L 499.414229 295.719926 
L 502.275889 294.960625 
L 505.137549 294.014487 
L 519.44585 288.756134 
L 522.30751 288.053908 
L 525.16917 287.619821 
L 528.03083 287.516304 
L 530.89249 287.746739 
L 533.75415 288.255462 
L 536.61581 288.984241 
L 542.33913 290.869043 
L 550.924111 293.890881 
L 553.785771 294.717138 
L 556.647431 295.35583 
L 559.509091 295.757866 
L 562.370751 295.937237 
L 565.232411 295.934551 
L 570.955731 295.545823 
L 582.402372 294.374622 
L 585.264032 294.237226 
L 588.125692 294.243368 
L 590.987352 294.418765 
L 593.849012 294.749882 
L 596.710672 295.216827 
L 602.433992 296.478628 
L 608.157312 298.045022 
L 622.465613 302.255394 
L 628.188933 303.710297 
L 633.912253 304.917391 
L 639.635573 305.812068 
L 645.358893 306.329722 
L 648.220553 306.426974 
L 653.943874 306.297566 
L 668.252174 305.511665 
L 671.113834 305.544516 
L 673.975494 305.719265 
L 676.837154 306.069576 
L 679.698814 306.6291 
L 682.560474 307.414178 
L 685.422134 308.390776 
L 691.145455 310.745963 
L 702.592095 315.85627 
L 705.453755 316.965496 
L 708.315415 317.921093 
L 711.177075 318.680815 
L 714.038735 319.232012 
L 716.900395 319.597705 
L 719.762055 319.803038 
L 725.485375 319.833202 
L 731.208696 319.523662 
L 742.655336 318.687983 
L 751.240316 318.405561 
L 759.825296 318.382791 
L 802.750198 318.6992 
L 828.505138 318.535373 
L 877.15336 317.933062 
L 900.04664 317.489495 
L 951.556522 316.26443 
L 954.418182 316.23916 
L 954.418182 316.23916 
" clip-path="url(#pef88447141)" style="fill: none; stroke-dasharray: 5.55,2.4; stroke-dashoffset: 0; stroke: #cd5c5c; stroke-width: 1.5"/>
   </g>
   <g id="line2d_39">
    <path d="M 98.781818 45.263766 
L 101.643478 84.769488 
L 104.505138 120.165011 
L 107.366798 151.648888 
L 110.228458 179.419675 
L 113.090119 203.675925 
L 115.951779 224.616192 
L 118.813439 242.439031 
L 121.675099 257.342996 
L 124.536759 269.526641 
L 127.398419 279.188521 
L 130.260079 286.527189 
L 133.121739 291.741201 
L 135.983399 295.029109 
L 138.845059 296.589469 
L 141.706719 296.620835 
L 144.568379 295.32176 
L 147.43004 292.8908 
L 150.2917 289.526508 
L 153.15336 285.427439 
L 156.01502 280.792147 
L 161.73834 270.703284 
L 167.46166 260.59401 
L 170.32332 255.825601 
L 173.18498 251.397547 
L 176.04664 247.422003 
L 178.9083 244.011121 
L 181.76996 241.277054 
L 184.631621 239.331956 
L 187.493281 238.287981 
L 190.354941 238.25728 
L 193.216601 239.314409 
L 196.078261 241.366499 
L 198.939921 244.274101 
L 201.801581 247.897764 
L 204.663241 252.098037 
L 207.524901 256.735469 
L 213.248221 266.764003 
L 218.971542 276.867759 
L 221.833202 281.599771 
L 224.694862 285.981604 
L 227.556522 290.007651 
L 230.418182 293.680961 
L 233.279842 297.004583 
L 236.141502 299.981565 
L 239.003162 302.614956 
L 241.864822 304.907803 
L 244.726482 306.863156 
L 247.588142 308.484063 
L 250.449802 309.773572 
L 253.311462 310.73611 
L 256.173123 311.39613 
L 259.034783 311.793219 
L 261.896443 311.967337 
L 264.758103 311.958442 
L 270.481423 311.551453 
L 281.928063 310.299539 
L 287.651383 310.033101 
L 293.374704 310.080426 
L 299.098024 310.353924 
L 310.544664 311.229076 
L 321.991304 312.04363 
L 339.161265 313.221912 
L 347.746245 314.019931 
L 364.916206 315.761032 
L 370.639526 316.158806 
L 376.362846 316.363233 
L 384.947826 316.330473 
L 404.979447 315.951324 
L 413.564427 316.18191 
L 425.011067 316.785913 
L 436.457708 317.37971 
L 447.904348 317.695258 
L 459.350988 317.768324 
L 479.382609 317.590911 
L 493.690909 317.55005 
L 505.137549 317.764545 
L 542.33913 318.79874 
L 553.785771 318.838671 
L 570.955731 318.612918 
L 582.402372 318.559871 
L 590.987352 318.755912 
L 602.433992 319.092097 
L 608.157312 319.004414 
L 613.880632 318.568098 
L 616.742292 318.177458 
L 619.603953 317.650482 
L 625.327273 316.252309 
L 636.773913 313.139196 
L 639.635573 312.518128 
L 642.497233 312.03647 
L 645.358893 311.732486 
L 648.220553 311.64444 
L 651.082213 311.803284 
L 653.943874 312.183383 
L 656.805534 312.732707 
L 662.528854 314.130322 
L 668.252174 315.578705 
L 671.113834 316.19149 
L 673.975494 316.660434 
L 676.837154 316.933358 
L 679.698814 316.958109 
L 682.560474 316.707744 
L 685.422134 316.228698 
L 691.145455 314.823385 
L 699.730435 312.492947 
L 702.592095 311.895633 
L 705.453755 311.487578 
L 708.315415 311.328488 
L 711.177075 311.476175 
L 714.038735 311.925884 
L 716.900395 312.597459 
L 728.347036 315.809523 
L 731.208696 316.320754 
L 734.070356 316.545981 
L 736.932016 316.400557 
L 739.793676 315.799839 
L 742.655336 314.675529 
L 745.516996 313.101609 
L 748.378656 311.225325 
L 756.963636 305.260771 
L 759.825296 303.653517 
L 762.686957 302.483143 
L 765.548617 301.897499 
L 768.410277 302.044433 
L 771.271937 303.071768 
L 774.133597 305.033518 
L 776.995257 307.680524 
L 785.580237 316.630115 
L 788.441897 318.915182 
L 791.303557 320.334022 
L 794.165217 320.576341 
L 797.026877 319.331841 
L 799.888538 316.290226 
L 802.750198 311.147583 
L 805.611858 303.858907 
L 808.473518 294.721916 
L 811.335178 284.057885 
L 814.196838 272.188088 
L 817.058498 259.433801 
L 828.505138 205.997244 
L 831.366798 193.639627 
L 834.228458 182.301964 
L 837.090119 172.05435 
L 839.951779 162.837486 
L 842.813439 154.590587 
L 845.675099 147.25287 
L 848.536759 140.76355 
L 851.398419 135.061843 
L 854.260079 130.086964 
L 857.121739 125.778129 
L 859.983399 122.074554 
L 862.845059 118.915455 
L 865.706719 116.249828 
L 868.568379 114.061821 
L 871.43004 112.343476 
L 874.2917 111.086834 
L 877.15336 110.283938 
L 880.01502 109.92683 
L 882.87668 110.007551 
L 885.73834 110.518143 
L 888.6 111.450649 
L 891.46166 112.797111 
L 894.32332 114.549097 
L 897.18498 116.67412 
L 900.04664 119.104695 
L 902.9083 121.770577 
L 908.631621 127.527291 
L 914.354941 133.382318 
L 917.216601 136.171089 
L 920.078261 138.773708 
L 922.939921 141.119932 
L 925.801581 143.139516 
L 928.663241 144.762218 
L 931.524901 145.917795 
L 934.386561 146.536003 
L 937.248221 146.546598 
L 940.109881 145.879337 
L 942.971542 144.463977 
L 945.833202 142.230275 
L 948.694862 139.107987 
L 951.556522 135.02687 
L 954.418182 129.91668 
L 954.418182 129.91668 
" clip-path="url(#pef88447141)" style="fill: none; stroke: #f88017; stroke-width: 4; stroke-linecap: square"/>
   </g>
   <g id="patch_3">
    <path d="M 56 377.035464 
L 56 10.8 
" style="fill: none; stroke: #000000; stroke-width: 0.8; stroke-linejoin: miter; stroke-linecap: square"/>
   </g>
   <g id="patch_4">
    <path d="M 997.2 377.035464 
L 997.2 10.8 
" style="fill: none; stroke: #000000; stroke-width: 0.8; stroke-linejoin: miter; stroke-linecap: square"/>
   </g>
   <g id="patch_5">
    <path d="M 56 377.035464 
L 997.2 377.035464 
" style="fill: none; stroke: #000000; stroke-width: 0.8; stroke-linejoin: miter; stroke-linecap: square"/>
   </g>
   <g id="patch_6">
    <path d="M 56 10.8 
L 997.2 10.8 
" style="fill: none; stroke: #000000; stroke-width: 0.8; stroke-linejoin: miter; stroke-linecap: square"/>
   </g>
   <g id="legend_1">
    <g id="patch_7">
     <path d="M 903.715625 372.035464 
L 990.2 372.035464 
Q 992.2 372.035464 992.2 370.035464 
L 992.2 327.001089 
Q 992.2 325.001089 990.2 325.001089 
L 903.715625 325.001089 
Q 901.715625 325.001089 901.715625 327.001089 
L 901.715625 370.035464 
Q 901.715625 372.035464 903.715625 372.035464 
z
" style="fill: #ffffff; opacity: 0.8; stroke: #cccccc; stroke-linejoin: miter"/>
    </g>
    <g id="line2d_40">
     <path d="M 905.715625 333.099526 
L 915.715625 333.099526 
L 925.715625 333.099526 
" style="fill: none; stroke-dasharray: 5.55,2.4; stroke-dashoffset: 0; stroke: #fe632a; stroke-width: 1.5"/>
    </g>
    <g id="text_39">
     <!-- pta -->
     <g transform="translate(933.715625 336.599526) scale(0.1 -0.1)">
      <defs>
       <path id="DejaVuSans-70" d="M 1159 525 
L 1159 -1331 
L 581 -1331 
L 581 3500 
L 1159 3500 
L 1159 2969 
Q 1341 3281 1617 3432 
Q 1894 3584 2278 3584 
Q 2916 3584 3314 3078 
Q 3713 2572 3713 1747 
Q 3713 922 3314 415 
Q 2916 -91 2278 -91 
Q 1894 -91 1617 61 
Q 1341 213 1159 525 
z
M 3116 1747 
Q 3116 2381 2855 2742 
Q 2594 3103 2138 3103 
Q 1681 3103 1420 2742 
Q 1159 2381 1159 1747 
Q 1159 1113 1420 752 
Q 1681 391 2138 391 
Q 2594 391 2855 752 
Q 3116 1113 3116 1747 
z
" transform="scale(0.015625)"/>
       <path id="DejaVuSans-74" d="M 1172 4494 
L 1172 3500 
L 2356 3500 
L 2356 3053 
L 1172 3053 
L 1172 1153 
Q 1172 725 1289 603 
Q 1406 481 1766 481 
L 2356 481 
L 2356 0 
L 1766 0 
Q 1100 0 847 248 
Q 594 497 594 1153 
L 594 3053 
L 172 3053 
L 172 3500 
L 594 3500 
L 594 4494 
L 1172 4494 
z
" transform="scale(0.015625)"/>
      </defs>
      <use xlink:href="#DejaVuSans-70"/>
      <use xlink:href="#DejaVuSans-74" x="63.476562"/>
      <use xlink:href="#DejaVuSans-61" x="102.685547"/>
     </g>
    </g>
    <g id="line2d_41">
     <path d="M 905.715625 347.777651 
L 915.715625 347.777651 
L 925.715625 347.777651 
" style="fill: none; stroke-dasharray: 5.55,2.4; stroke-dashoffset: 0; stroke: #cd5c5c; stroke-width: 1.5"/>
    </g>
    <g id="text_40">
     <!-- acs -->
     <g transform="translate(933.715625 351.277651) scale(0.1 -0.1)">
      <defs>
       <path id="DejaVuSans-63" d="M 3122 3366 
L 3122 2828 
Q 2878 2963 2633 3030 
Q 2388 3097 2138 3097 
Q 1578 3097 1268 2742 
Q 959 2388 959 1747 
Q 959 1106 1268 751 
Q 1578 397 2138 397 
Q 2388 397 2633 464 
Q 2878 531 3122 666 
L 3122 134 
Q 2881 22 2623 -34 
Q 2366 -91 2075 -91 
Q 1284 -91 818 406 
Q 353 903 353 1747 
Q 353 2603 823 3093 
Q 1294 3584 2113 3584 
Q 2378 3584 2631 3529 
Q 2884 3475 3122 3366 
z
" transform="scale(0.015625)"/>
       <path id="DejaVuSans-73" d="M 2834 3397 
L 2834 2853 
Q 2591 2978 2328 3040 
Q 2066 3103 1784 3103 
Q 1356 3103 1142 2972 
Q 928 2841 928 2578 
Q 928 2378 1081 2264 
Q 1234 2150 1697 2047 
L 1894 2003 
Q 2506 1872 2764 1633 
Q 3022 1394 3022 966 
Q 3022 478 2636 193 
Q 2250 -91 1575 -91 
Q 1294 -91 989 -36 
Q 684 19 347 128 
L 347 722 
Q 666 556 975 473 
Q 1284 391 1588 391 
Q 1994 391 2212 530 
Q 2431 669 2431 922 
Q 2431 1156 2273 1281 
Q 2116 1406 1581 1522 
L 1381 1569 
Q 847 1681 609 1914 
Q 372 2147 372 2553 
Q 372 3047 722 3315 
Q 1072 3584 1716 3584 
Q 2034 3584 2315 3537 
Q 2597 3491 2834 3397 
z
" transform="scale(0.015625)"/>
      </defs>
      <use xlink:href="#DejaVuSans-61"/>
      <use xlink:href="#DejaVuSans-63" x="61.279297"/>
      <use xlink:href="#DejaVuSans-73" x="116.259766"/>
     </g>
    </g>
    <g id="line2d_42">
     <path d="M 905.715625 362.455776 
L 915.715625 362.455776 
L 925.715625 362.455776 
" style="fill: none; stroke: #f88017; stroke-width: 4; stroke-linecap: square"/>
    </g>
    <g id="text_41">
     <!-- Acetyl-CoA -->
     <g transform="translate(933.715625 365.955776) scale(0.1 -0.1)">
      <defs>
       <path id="DejaVuSans-41" d="M 2188 4044 
L 1331 1722 
L 3047 1722 
L 2188 4044 
z
M 1831 4666 
L 2547 4666 
L 4325 0 
L 3669 0 
L 3244 1197 
L 1141 1197 
L 716 0 
L 50 0 
L 1831 4666 
z
" transform="scale(0.015625)"/>
       <path id="DejaVuSans-79" d="M 2059 -325 
Q 1816 -950 1584 -1140 
Q 1353 -1331 966 -1331 
L 506 -1331 
L 506 -850 
L 844 -850 
Q 1081 -850 1212 -737 
Q 1344 -625 1503 -206 
L 1606 56 
L 191 3500 
L 800 3500 
L 1894 763 
L 2988 3500 
L 3597 3500 
L 2059 -325 
z
" transform="scale(0.015625)"/>
       <path id="DejaVuSans-2d" d="M 313 2009 
L 1997 2009 
L 1997 1497 
L 313 1497 
L 313 2009 
z
" transform="scale(0.015625)"/>
       <path id="DejaVuSans-43" d="M 4122 4306 
L 4122 3641 
Q 3803 3938 3442 4084 
Q 3081 4231 2675 4231 
Q 1875 4231 1450 3742 
Q 1025 3253 1025 2328 
Q 1025 1406 1450 917 
Q 1875 428 2675 428 
Q 3081 428 3442 575 
Q 3803 722 4122 1019 
L 4122 359 
Q 3791 134 3420 21 
Q 3050 -91 2638 -91 
Q 1578 -91 968 557 
Q 359 1206 359 2328 
Q 359 3453 968 4101 
Q 1578 4750 2638 4750 
Q 3056 4750 3426 4639 
Q 3797 4528 4122 4306 
z
" transform="scale(0.015625)"/>
      </defs>
      <use xlink:href="#DejaVuSans-41"/>
      <use xlink:href="#DejaVuSans-63" x="66.658203"/>
      <use xlink:href="#DejaVuSans-65" x="121.638672"/>
      <use xlink:href="#DejaVuSans-74" x="183.162109"/>
      <use xlink:href="#DejaVuSans-79" x="222.371094"/>
      <use xlink:href="#DejaVuSans-6c" x="281.550781"/>
      <use xlink:href="#DejaVuSans-2d" x="309.333984"/>
      <use xlink:href="#DejaVuSans-43" x="345.417969"/>
      <use xlink:href="#DejaVuSans-6f" x="415.242188"/>
      <use xlink:href="#DejaVuSans-41" x="476.423828"/>
     </g>
    </g>
   </g>
  </g>
 </g>
 <defs>
  <clipPath id="pef88447141">
   <rect x="56" y="10.8" width="941.2" height="366.235464"/>
  </clipPath>
 </defs>
</svg>
